SplineFontDB: 3.2
FontName: Unageo-Variable
FullName: Unageo Variable
FamilyName: Unageo
Weight: Variable
Copyright: Copyright 2023 The Unageo Project Authors (https://github.com/RichardSepsi/Unageo)
UComments: "2023-12-24: Created with FontForge (http://fontforge.org)"
Version: 2.2
ItalicAngle: 0
UnderlinePosition: -100
UnderlineWidth: 50
Ascent: 800
Descent: 200
InvalidEm: 0
LayerCount: 2
Layer: 0 0 "Back" 1
Layer: 1 0 "Fore" 0
XUID: [1021 442 -170519175 32250]
FSType: 0
OS2Version: 0
OS2_WeightWidthSlopeOnly: 0
OS2_UseTypoMetrics: 1
CreationTime: 1703449529
ModificationTime: 1730998223
PfmFamily: 33
TTFWeight: 300
TTFWidth: 5
LineGap: 90
VLineGap: 0
OS2TypoAscent: 950
OS2TypoAOffset: 0
OS2TypoDescent: -250
OS2TypoDOffset: 0
OS2TypoLinegap: 90
OS2WinAscent: 1010
OS2WinAOffset: 0
OS2WinDescent: 220
OS2WinDOffset: 0
HheadAscent: 950
HheadAOffset: 0
HheadDescent: -250
HheadDOffset: 0
OS2CapHeight: 700
OS2XHeight: 500
OS2Vendor: 'PfEd'
Lookup: 1 0 0 "'ss02' Style Set 2 lookup 1" { "'ss02' Style Set 2 lookup 1-1"  } ['ss02' ('DFLT' <'dflt' > 'cyrl' <'dflt' > 'grek' <'dflt' > 'latn' <'dflt' > ) ]
Lookup: 1 0 0 "'ss01' Style Set 1 lookup 0" { "'ss01' Style Set 1 lookup 0-1"  } ['ss01' ('DFLT' <'dflt' > 'cyrl' <'dflt' > 'grek' <'dflt' > 'latn' <'dflt' > ) ]
MarkAttachClasses: 1
DEI: 91125
LangName: 1033 "" "" "" "" "" "" "" "" "Richard Sepsi" "Richard Sepsi" "" "" "" "This Font Software is licensed under the SIL Open Font License, Version 1.1. This license is available with a FAQ at: https://scripts.sil.org/OFL" "http://scripts.sil.org/OFL" "" "Unageo" "Variable"
GaspTable: 1 65535 15 1
Encoding: UnicodeBmp
UnicodeInterp: none
NameList: AGL For New Fonts
DisplaySize: -48
AntiAlias: 1
FitToEm: 0
WinInfo: 65284 19 14
BeginPrivate: 7
BlueValues 23 [-12 0 500 512 700 712]
OtherBlues 11 [-200 -200]
BlueShift 1 7
StdHW 4 [60]
StdVW 4 [60]
StemSnapH 4 [60]
StemSnapV 4 [60]
EndPrivate

StartChar: A
Encoding: 65 65 0
GlifName: A_
Width: 607
Flags: W
HStem: 0 21G<13 88.3872 525.948 595> 205 60<215.972 475.972> 680 20G<374.244 449.159>
VStem: 530 65<0 65>
LayerCount: 2
Fore
SplineSet
215.971679688 265 m 1
 475.971679688 265 l 1
 402.040039062 619 l 1
 215.971679688 265 l 1
184.46875 205 m 1
 78 0 l 1
 13 0 l 1
 384.869140625 700 l 1
 444.869140625 700 l 1
 595 0 l 1
 530 0 l 1
 488.46875 205 l 1
 184.46875 205 l 1
EndSplineSet
EndChar

StartChar: B
Encoding: 66 66 1
GlifName: B_
Width: 631
Flags: W
HStem: 0 62<172.82 451.472> 326 62<224.453 466.339> 638 62<264.049 498.138>
LayerCount: 2
Fore
SplineSet
214.633789062 326 m 1
 172.8203125 62 l 1
 375.8203125 62 l 2
 411.8203125 62 444.87890625 75 474.997070312 101 c 0
 505.115234375 127 523.024414062 158 528.7265625 194 c 0
 534.428710938 230 526.337890625 261 504.456054688 287 c 0
 482.57421875 313 453.633789062 326 417.633789062 326 c 2
 214.633789062 326 l 1
264.048828125 638 m 1
 224.453125 388 l 1
 391.453125 388 l 2
 426.453125 388 458.353515625 400 486.155273438 424 c 0
 513.956054688 448 530.708007812 478 536.250976562 513 c 0
 541.794921875 548 534.545898438 578 514.34765625 602 c 0
 494.1484375 626 466.048828125 638 431.048828125 638 c 2
 264.048828125 638 l 1
213.869140625 700 m 1
 440.869140625 700 l 2
 491.869140625 700 533.018554688 682 564.158203125 645 c 0
 595.297851562 608 606.329101562 564 598.250976562 513 c 0
 588.90625 454 558.462890625 407 507.444335938 369 c 1
 537.91015625 353 560.108398438 329 576.198242188 298 c 0
 592.2890625 267 596.745117188 232 590.7265625 194 c 0
 582.33203125 141 556.046875 95 512.028320312 57 c 0
 468.009765625 19 419 0 366 0 c 2
 103 0 l 1
 213.869140625 700 l 1
EndSplineSet
EndChar

StartChar: C
Encoding: 67 67 2
GlifName: C_
Width: 683
Flags: W
HStem: -12 60<292.34 511.582> 652 60<381.456 600.288>
LayerCount: 2
Fore
SplineSet
504.76953125 712 m 0
 554.76953125 712 600.344726562 703 639.176757812 683 c 0
 678.008789062 663 710.732421875 636 736.030273438 600 c 1
 686.061523438 556 l 1
 642.198242188 620 579.266601562 652 495.266601562 652 c 0
 414.266601562 652 342.673828125 623 281.329101562 564 c 0
 219.984375 505 181.739257812 434 168.434570312 350 c 0
 155.129882812 266 170.884765625 195 213.540039062 136 c 0
 256.1953125 77 318.602539062 48 399.602539062 48 c 0
 483.602539062 48 556.670898438 80 620.807617188 144 c 1
 656.997070312 101 l 1
 620.294921875 65 579.018554688 38 533.850585938 18 c 0
 488.68359375 -2 440.099609375 -12 390.099609375 -12 c 0
 291.099609375 -12 215.642578125 23 163.729492188 93 c 0
 111.81640625 163 92.279296875 248 108.434570312 350 c 0
 124.58984375 452 171.052734375 537 245.139648438 607 c 0
 319.2265625 677 405.76953125 712 504.76953125 712 c 0
EndSplineSet
EndChar

StartChar: D
Encoding: 68 68 3
GlifName: D_
Width: 688
Flags: W
HStem: 0 60<172.503 409.974> 640 60<264.366 493.596>
LayerCount: 2
Fore
SplineSet
387.366210938 640 m 2
 264.366210938 640 l 1
 172.502929688 60 l 1
 295.502929688 60 l 2
 375.502929688 60 447.9375 88 513.965820312 145 c 0
 579.994140625 202 618.763671875 270 631.434570312 350 c 0
 644.10546875 430 626.875 498 578.903320312 555 c 0
 530.931640625 612 467.366210938 640 387.366210938 640 c 2
396.869140625 700 m 2
 493.869140625 700 570.484375 666 627.713867188 598 c 0
 684.943359375 530 706.797851562 447 691.434570312 350 c 0
 676.071289062 253 628.083984375 171 549.313476562 103 c 0
 470.54296875 35 383 0 286 0 c 2
 103 0 l 1
 213.869140625 700 l 1
 396.869140625 700 l 2
EndSplineSet
EndChar

StartChar: E
Encoding: 69 69 4
GlifName: E_
Width: 598
Flags: W
HStem: 0 60<172.503 506> 329 60<224.611 494.108> 640 60<264.366 607.366>
LayerCount: 2
Fore
SplineSet
103 0 m 1
 213.869140625 700 l 1
 616.869140625 700 l 1
 607.366210938 640 l 1
 264.366210938 640 l 1
 224.611328125 389 l 1
 503.611328125 389 l 1
 494.108398438 329 l 1
 215.108398438 329 l 1
 172.502929688 60 l 1
 515.502929688 60 l 1
 506 0 l 1
 103 0 l 1
EndSplineSet
EndChar

StartChar: G
Encoding: 71 71 5
GlifName: G_
Width: 771
Flags: W
HStem: -12 60<291.34 510.415> 320 60<539.187 718.683> 652 60<380.456 599.672>
CounterMasks: 1 e0
LayerCount: 2
Fore
SplineSet
503.76953125 712 m 0
 553.76953125 712 600.344726562 703 639.176757812 683 c 0
 678.008789062 663 710.732421875 636 736.030273438 600 c 1
 685.061523438 556 l 1
 641.198242188 620 578.266601562 652 494.266601562 652 c 0
 413.266601562 652 341.673828125 623 280.329101562 564 c 0
 218.984375 505 181.739257812 434 168.434570312 350 c 0
 155.129882812 266 169.884765625 195 212.540039062 136 c 0
 255.1953125 77 317.602539062 48 398.602539062 48 c 0
 482.602539062 48 555.670898438 80 619.807617188 144 c 0
 668.568359375 193 701.913085938 252 718.682617188 320 c 1
 529.682617188 320 l 1
 539.186523438 380 l 1
 789.186523438 380 l 1
 784.434570312 350 l 2
 768.913085938 252 725.608398438 168 655.838867188 100 c 0
 619.294921875 65 579.018554688 38 532.850585938 18 c 0
 486.68359375 -2 439.099609375 -12 389.099609375 -12 c 0
 290.099609375 -12 214.642578125 23 162.729492188 93 c 0
 110.81640625 163 92.279296875 248 108.434570312 350 c 0
 124.58984375 452 170.052734375 537 244.139648438 607 c 0
 318.2265625 677 404.76953125 712 503.76953125 712 c 0
EndSplineSet
EndChar

StartChar: H
Encoding: 72 72 6
GlifName: H_
Width: 732
Flags: W
HStem: 0 21G<103 166.168 570 633.168> 331 60<224.929 622.425> 680 20G<210.701 273.869 677.701 740.869>
VStem: 103 60<0 60> 213.869 60<640 700> 570 60<0 60> 680.869 60<640 700>
LayerCount: 2
Fore
SplineSet
103 0 m 1
 213.869140625 700 l 1
 273.869140625 700 l 1
 224.928710938 391 l 1
 631.928710938 391 l 1
 680.869140625 700 l 1
 740.869140625 700 l 1
 630 0 l 1
 570 0 l 1
 622.424804688 331 l 1
 215.424804688 331 l 1
 163 0 l 1
 103 0 l 1
EndSplineSet
EndChar

StartChar: I
Encoding: 73 73 7
GlifName: I_
Width: 265
Flags: W
HStem: 0 21G<103 166.168> 680 20G<210.701 273.869>
VStem: 103 60<0 60> 213.869 60<640 700>
LayerCount: 2
Fore
SplineSet
103 0 m 1
 213.869140625 700 l 1
 273.869140625 700 l 1
 163 0 l 1
 103 0 l 1
EndSplineSet
EndChar

StartChar: J
Encoding: 74 74 8
GlifName: J_
Width: 408
Flags: W
HStem: -11 60<78.3573 214.406> 680 20G<363.701 426.869>
VStem: 366.869 60<640 700>
LayerCount: 2
Fore
SplineSet
366.869140625 700 m 1
 426.869140625 700 l 1
 342.766601562 169 l 2
 334.84765625 119 310.1953125 77 269.65234375 42 c 0
 229.108398438 7 184.2578125 -11 134.2578125 -11 c 0
 84.2578125 -11 45.1083984375 7 15.65234375 42 c 1
 64.3046875 84 l 1
 83.6611328125 61 110.760742188 49 143.760742188 49 c 0
 175.760742188 49 205.661132812 61 233.462890625 85 c 0
 261.263671875 109 277.698242188 137 282.766601562 169 c 2
 366.869140625 700 l 1
EndSplineSet
EndChar

StartChar: K
Encoding: 75 75 9
GlifName: K_
Width: 593
Flags: W
HStem: 0 21G<103 166.168 494.708 586> 680 20G<210.701 273.869 582.288 686.869>
VStem: 103 60<0 60> 213.869 60<640 700>
LayerCount: 2
Fore
SplineSet
103 0 m 1
 213.869140625 700 l 1
 273.869140625 700 l 1
 219.860351562 359 l 1
 604.869140625 700 l 1
 686.869140625 700 l 1
 330.661132812 383 l 1
 586 0 l 1
 508 0 l 1
 282.692382812 339 l 1
 205.921875 271 l 1
 163 0 l 1
 103 0 l 1
EndSplineSet
EndChar

StartChar: L
Encoding: 76 76 10
GlifName: L_
Width: 518
Flags: W
HStem: 0 60<172.503 506> 680 20G<210.701 273.869>
VStem: 213.869 60<640 700>
LayerCount: 2
Fore
SplineSet
103 0 m 1
 213.869140625 700 l 1
 273.869140625 700 l 1
 172.502929688 60 l 1
 515.502929688 60 l 1
 506 0 l 1
 103 0 l 1
EndSplineSet
EndChar

StartChar: M
Encoding: 77 77 11
GlifName: M_
Width: 792
Flags: W
HStem: 0 21G<15 82.709 716.626 778> 680 20G<243.159 320.016 688.425 765.244>
VStem: 705.922 58.9473<326.833 593> 717 61<0 373.167>
LayerCount: 2
Fore
SplineSet
249.869140625 700 m 1xe0
 315.869140625 700 l 1
 424.716796875 175 l 1
 698.869140625 700 l 1
 764.869140625 700 l 1xe0
 778 0 l 1
 717 0 l 1xd0
 705.921875 593 l 1
 445.729492188 93 l 1
 376.729492188 93 l 1
 274.921875 593 l 1
 76 0 l 1
 15 0 l 1
 249.869140625 700 l 1xe0
EndSplineSet
EndChar

StartChar: N
Encoding: 78 78 12
GlifName: N_
Width: 739
Flags: W
HStem: 0 21G<103 166.168 566.228 640.168> 680 20G<210.701 284.641 684.701 747.869>
VStem: 103 60<0 60> 687.869 60<640 700>
LayerCount: 2
Fore
SplineSet
213.869140625 700 m 1
 273.869140625 700 l 1
 593.7890625 106 l 1
 687.869140625 700 l 1
 747.869140625 700 l 1
 637 0 l 1
 577 0 l 1
 257.080078125 594 l 1
 163 0 l 1
 103 0 l 1
 213.869140625 700 l 1
EndSplineSet
EndChar

StartChar: O
Encoding: 79 79 13
GlifName: O_
Width: 781
Flags: W
HStem: -12 60<291.34 512.163> 652 60<380.456 601.28>
LayerCount: 2
Fore
SplineSet
494.266601562 652 m 0
 413.266601562 652 341.673828125 623 280.329101562 564 c 0
 218.984375 505 181.739257812 434 168.434570312 350 c 0
 155.129882812 266 169.884765625 195 212.540039062 136 c 0
 255.1953125 77 317.602539062 48 398.602539062 48 c 0
 479.602539062 48 550.1953125 77 611.540039062 136 c 0
 672.884765625 195 711.129882812 266 724.434570312 350 c 0
 737.739257812 434 721.984375 505 679.329101562 564 c 0
 636.673828125 623 575.266601562 652 494.266601562 652 c 0
503.76953125 712 m 0
 602.76953125 712 678.2265625 677 730.139648438 607 c 0
 782.052734375 537 800.58984375 452 784.434570312 350 c 0
 768.279296875 248 722.81640625 163 648.729492188 93 c 0
 574.642578125 23 488.099609375 -12 389.099609375 -12 c 0
 290.099609375 -12 214.642578125 23 162.729492188 93 c 0
 110.81640625 163 92.279296875 248 108.434570312 350 c 0
 124.58984375 452 170.052734375 537 244.139648438 607 c 0
 318.2265625 677 404.76953125 712 503.76953125 712 c 0
EndSplineSet
EndChar

StartChar: P
Encoding: 80 80 14
GlifName: P_
Width: 573
Flags: W
HStem: 0 21G<103 166.168> 266 60<214.634 457.346> 640 60<264.366 499.878>
VStem: 103 60<0 60>
LayerCount: 2
Fore
SplineSet
264.366210938 640 m 1
 214.633789062 326 l 1
 375.633789062 326 l 2
 417.633789062 326 458.166992188 342 494.077148438 373 c 0
 529.987304688 404 550.84765625 441 557.5 483 c 0
 564.151367188 525 555.01171875 562 528.921875 593 c 0
 502.83203125 624 467.366210938 640 425.366210938 640 c 2
 264.366210938 640 l 1
213.869140625 700 m 1
 434.869140625 700 l 2
 494.869140625 700 543.54296875 679 578.890625 637 c 0
 614.23828125 595 627.002929688 543 617.5 483 c 0
 607.997070312 423 578.918945312 372 530.266601562 330 c 0
 481.614257812 288 426.129882812 266 366.129882812 266 c 2
 205.129882812 266 l 1
 163 0 l 1
 103 0 l 1
 213.869140625 700 l 1
EndSplineSet
EndChar

StartChar: Q
Encoding: 81 81 15
GlifName: Q_
Width: 781
Flags: W
HStem: -12 60<291.34 513.045> 652 60<380.456 601.28>
LayerCount: 2
Fore
SplineSet
494.266601562 652 m 0
 413.266601562 652 341.673828125 623 280.329101562 564 c 0
 218.984375 505 181.739257812 434 168.434570312 350 c 0
 155.129882812 266 169.884765625 195 212.540039062 136 c 0
 255.1953125 77 317.602539062 48 398.602539062 48 c 0
 466.602539062 48 527.770507812 68 582.421875 110 c 1
 517.459960938 186 l 1
 567.270507812 229 l 1
 630.391601562 154 l 1
 681.102539062 209 712.397460938 274 724.434570312 350 c 0
 737.739257812 434 721.984375 505 679.329101562 564 c 0
 636.673828125 623 575.266601562 652 494.266601562 652 c 0
503.76953125 712 m 0
 602.76953125 712 678.2265625 677 730.139648438 607 c 0
 782.052734375 537 800.58984375 452 784.434570312 350 c 0
 769.705078125 257 729.875976562 176 666.421875 110 c 1
 733.751953125 30 l 1
 685.099609375 -12 l 1
 617.611328125 67 l 1
 550.217773438 14 474.099609375 -12 389.099609375 -12 c 0
 290.099609375 -12 214.642578125 23 162.729492188 93 c 0
 110.81640625 163 92.279296875 248 108.434570312 350 c 0
 124.58984375 452 170.052734375 537 244.139648438 607 c 0
 318.2265625 677 404.76953125 712 503.76953125 712 c 0
EndSplineSet
EndChar

StartChar: R
Encoding: 82 82 16
GlifName: R_
Width: 593
Flags: W
HStem: 0 21G<103 166.168 468.834 541> 300 60<220.019 382.516> 640 60<264.366 513.439>
VStem: 103 60<0 60> 475 66<0 66>
LayerCount: 2
Fore
SplineSet
264.366210938 640 m 1
 220.018554688 360 l 1
 398.018554688 360 l 2
 436.018554688 360 471.077148438 373 503.51171875 401 c 0
 535.947265625 429 554.173828125 462 560.192382812 500 c 0
 566.2109375 538 558.4375 571 534.872070312 599 c 0
 511.306640625 627 480.366210938 640 442.366210938 640 c 2
 264.366210938 640 l 1
213.869140625 700 m 1
 451.869140625 700 l 2
 506.869140625 700 550.859375 681 583.682617188 642 c 0
 616.505859375 603 628.903320312 555 620.192382812 500 c 0
 613.223632812 456 593.729492188 415 561.186523438 380 c 0
 528.642578125 345 489.841796875 321 445.940429688 309 c 1
 541 0 l 1
 475 0 l 1
 382.515625 300 l 1
 210.515625 300 l 1
 163 0 l 1
 103 0 l 1
 213.869140625 700 l 1
EndSplineSet
EndChar

StartChar: S
Encoding: 83 83 17
GlifName: S_
Width: 544
Flags: W
HStem: -12 60<190.973 361.434> 652 60<280.633 452.119>
VStem: 78.1152 60.167<98.8 129.327> 489.596 60.3262<590.563 616.133>
LayerCount: 2
Fore
SplineSet
378.76953125 712 m 0
 425.76953125 712 464.02734375 701 493.701171875 680 c 0
 523.375 659 542.782226562 630 549.921875 593 c 1
 489.595703125 572 l 1
 484.555664062 597 472.723632812 617 451.940429688 631 c 0
 431.158203125 645 404.266601562 652 369.266601562 652 c 0
 327.266601562 652 291.524414062 641 261.881835938 618 c 0
 232.23828125 595 214.645507812 566 209.102539062 531 c 0
 204.666992188 503 209.708007812 478 225.698242188 459 c 0
 244.897460938 435 280.36328125 419 330.9375 410 c 0
 393.1953125 399 442.39453125 375 478.534179688 338 c 0
 514.673828125 301 527.387695312 255 518.518554688 199 c 0
 509.173828125 140 479.254882812 90 430.760742188 49 c 0
 382.266601562 8 326.099609375 -12 264.099609375 -12 c 0
 215.099609375 -12 174.158203125 1 141.118164062 26 c 0
 108.077148438 51 86.462890625 85 78.115234375 127 c 1
 138.282226562 147 l 1
 144.53125 117 158.729492188 93 182.87890625 75 c 0
 207.028320312 57 237.602539062 48 273.602539062 48 c 0
 319.602539062 48 359.978515625 63 395.571289062 92 c 0
 431.1640625 121 451.866210938 157 458.518554688 199 c 0
 464.853515625 239 454.081054688 272 428.198242188 298 c 0
 402.31640625 324 367.166992188 342 321.434570312 350 c 0
 263.176757812 361 218.344726562 381 185.9375 410 c 0
 153.53125 439 141.024414062 480 149.102539062 531 c 0
 157.1796875 582 182.990234375 625 226.534179688 660 c 0
 270.077148438 695 319.76953125 712 378.76953125 712 c 0
EndSplineSet
EndChar

StartChar: T
Encoding: 84 84 18
GlifName: T_
Width: 545
Flags: W
HStem: 0 21G<243 306.168> 640 60<123.869 344.366 404.366 634.366>
VStem: 243 60<0 60>
LayerCount: 2
Fore
SplineSet
123.869140625 700 m 1
 643.869140625 700 l 1
 634.366210938 640 l 1
 404.366210938 640 l 1
 303 0 l 1
 243 0 l 1
 344.366210938 640 l 1
 114.366210938 640 l 1
 123.869140625 700 l 1
EndSplineSet
EndChar

StartChar: U
Encoding: 85 85 19
GlifName: U_
Width: 714
Flags: W
HStem: -12 60<278.94 457.622> 680 20G<200.701 263.869 669.701 732.869>
VStem: 203.869 60<640 700> 672.869 60<640 700>
LayerCount: 2
Fore
SplineSet
203.869140625 700 m 1
 263.869140625 700 l 1
 197.823242188 283 l 2
 186.736328125 213 196.708007812 156 229.897460938 113 c 0
 263.086914062 70 306.602539062 48 364.602539062 48 c 0
 422.602539062 48 474.086914062 70 520.897460938 113 c 0
 567.708007812 156 595.736328125 213 606.823242188 283 c 2
 672.869140625 700 l 1
 732.869140625 700 l 1
 666.823242188 283 l 2
 652.884765625 195 615.481445312 123 556.928710938 69 c 0
 498.375976562 15 431.099609375 -12 355.099609375 -12 c 0
 279.099609375 -12 221.375976562 15 179.928710938 69 c 0
 138.481445312 123 123.884765625 195 137.823242188 283 c 2
 203.869140625 700 l 1
EndSplineSet
EndChar

StartChar: V
Encoding: 86 86 20
GlifName: V_
Width: 622
Flags: W
HStem: 0 21G<274.568 352.739> 680 20G<123.869 192.299 643.169 717.869>
VStem: 123.869 64<636 700>
LayerCount: 2
Fore
SplineSet
123.869140625 700 m 1
 187.869140625 700 l 1
 324.3046875 84 l 1
 653.869140625 700 l 1
 717.869140625 700 l 1
 342 0 l 1
 279 0 l 1
 123.869140625 700 l 1
EndSplineSet
EndChar

StartChar: W
Encoding: 87 87 21
GlifName: W_
Width: 917
Flags: W
HStem: 0 21G<218.225 293.09 632.212 707.082> 680 20G<123.869 190.604 528.799 604.604 941.833 1015.87>
VStem: 123.869 64<636 700>
LayerCount: 2
Fore
SplineSet
950.869140625 700 m 1
 1015.86914062 700 l 1
 698 0 l 1
 635 0 l 1
 552.60546875 591 l 1
 284 0 l 1
 221 0 l 1
 123.869140625 700 l 1
 187.869140625 700 l 1
 268.947265625 107 l 1
 537.869140625 700 l 1
 601.869140625 700 l 1
 682.947265625 107 l 1
 950.869140625 700 l 1
EndSplineSet
EndChar

StartChar: X
Encoding: 88 88 22
GlifName: X_
Width: 548
Flags: W
HStem: 0 21G<14 101.093 454.311 536> 680 20G<124.869 205.583 558.888 646.869>
LayerCount: 2
Fore
SplineSet
574.869140625 700 m 1
 646.869140625 700 l 1
 366.434570312 350 l 1
 536 0 l 1
 464 0 l 1
 321.565429688 294 l 1
 85 0 l 1
 14 0 l 1
 294.434570312 350 l 1
 124.869140625 700 l 1
 195.869140625 700 l 1
 339.145507812 405 l 1
 574.869140625 700 l 1
EndSplineSet
EndChar

StartChar: Y
Encoding: 89 89 23
GlifName: Y_
Width: 531
Flags: W
HStem: 0 21G<236 299.168> 680 20G<123.869 203.443 543.959 629.869>
VStem: 236 60<0 60>
LayerCount: 2
Fore
SplineSet
123.869140625 700 m 1
 194.869140625 700 l 1
 327.76953125 390 l 1
 558.869140625 700 l 1
 629.869140625 700 l 1
 346.841796875 321 l 5
 296 0 l 1
 236 0 l 1
 286.841796875 321 l 1
 123.869140625 700 l 1
EndSplineSet
EndChar

StartChar: Z
Encoding: 90 90 24
GlifName: Z_
Width: 608
Flags: W
HStem: 0 60<137.503 553> 640 60<166.869 582.366>
LayerCount: 2
Fore
SplineSet
53 0 m 1
 62.5029296875 60 l 1
 582.366210938 640 l 1
 157.366210938 640 l 1
 166.869140625 700 l 1
 666.869140625 700 l 1
 657.366210938 640 l 1
 137.502929688 60 l 1
 562.502929688 60 l 1
 553 0 l 1
 53 0 l 1
EndSplineSet
EndChar

StartChar: F
Encoding: 70 70 25
GlifName: F_
Width: 544
Flags: W
HStem: 0 21G<103 166.168> 318 60<222.869 497.366> 640 60<264.366 607.366>
VStem: 103 60<0 60>
LayerCount: 2
Fore
SplineSet
103 0 m 1
 213.869140625 700 l 1
 616.869140625 700 l 1
 607.366210938 640 l 1
 264.366210938 640 l 1
 222.869140625 378 l 1
 506.869140625 378 l 1
 497.366210938 318 l 1
 213.366210938 318 l 1
 163 0 l 1
 103 0 l 1
EndSplineSet
EndChar

StartChar: a
Encoding: 97 97 26
GlifName: a
Width: 608
Flags: W
HStem: -12 60<215.041 389.912> 0 21G<471 534.168> 452 60<272.875 447.192> 480 20G<547.025 610.192>
VStem: 471 60<0 60> 550.192 60<440 500>
LayerCount: 2
Fore
SplineSet
550.192382812 500 m 1x1c
 610.192382812 500 l 1
 531 0 l 1
 471 0 l 1x5c
 484.462890625 85 l 1
 478.1953125 77 471.928710938 69 464.8203125 62 c 0
 418.05859375 13 361.099609375 -12 291.099609375 -12 c 0
 220.099609375 -12 165.05859375 13 127.13671875 64 c 0
 89.2138671875 115 76.0341796875 177 87.595703125 250 c 0
 99.158203125 323 131.977539062 385 186.055664062 436 c 0
 240.1328125 487 303.092773438 512 374.092773438 512 c 0xac
 444.092773438 512 493.1328125 487 524.372070312 438 c 0
 529.263671875 431 532.997070312 423 536.729492188 415 c 1
 550.192382812 500 l 1x1c
364.58984375 452 m 0xac
 309.58984375 452 261.580078125 433 221.403320312 394 c 0
 181.2265625 355 156.624023438 307 147.595703125 250 c 0
 138.568359375 193 147.965820312 145 175.7890625 106 c 0
 203.611328125 67 245.602539062 48 300.602539062 48 c 0
 354.602539062 48 400.611328125 67 438.7890625 106 c 0
 476.965820312 145 501.41015625 192 510.595703125 250 c 0
 519.782226562 308 510.2265625 355 484.403320312 394 c 0
 458.580078125 433 418.58984375 452 364.58984375 452 c 0xac
EndSplineSet
EndChar

StartChar: b
Encoding: 98 98 27
GlifName: b
Width: 608
Flags: W
HStem: -12 60<241 415.317> 0 21G<78 141.168> 452 60<298.28 473.151> 680 20G<185.701 248.869>
VStem: 78 60<0 60> 188.869 60<640 700>
LayerCount: 2
Fore
SplineSet
387.58984375 452 m 0xbc
 333.58984375 452 287.580078125 433 249.403320312 394 c 0
 211.2265625 355 186.782226562 308 177.595703125 250 c 0
 168.41015625 192 177.965820312 145 203.7890625 106 c 0
 229.611328125 67 269.602539062 48 323.602539062 48 c 0
 378.602539062 48 426.611328125 67 466.7890625 106 c 0
 506.965820312 145 531.568359375 193 540.595703125 250 c 0
 549.624023438 307 540.2265625 355 512.403320312 394 c 0
 484.580078125 433 442.58984375 452 387.58984375 452 c 0xbc
397.092773438 512 m 0
 468.092773438 512 523.1328125 487 561.055664062 436 c 0
 598.977539062 385 612.31640625 324 600.595703125 250 c 0
 588.875976562 176 556.213867188 115 502.13671875 64 c 0
 448.05859375 13 385.099609375 -12 314.099609375 -12 c 0xbc
 244.099609375 -12 195.05859375 13 163.8203125 62 c 0
 158.928710938 69 155.1953125 77 151.462890625 85 c 1
 138 0 l 1
 78 0 l 1x7c
 188.869140625 700 l 1
 248.869140625 700 l 1
 203.729492188 415 l 1
 209.997070312 423 216.263671875 431 223.372070312 438 c 0
 270.1328125 487 327.092773438 512 397.092773438 512 c 0
EndSplineSet
EndChar

StartChar: c
Encoding: 99 99 28
GlifName: c
Width: 504
Flags: W
HStem: -12 60<215.041 389.905> 452 60<272.875 446.602>
LayerCount: 2
Fore
SplineSet
374.092773438 512 m 0
 444.092773438 512 498.1328125 487 536.213867188 437 c 1
 488.245117188 393 l 1
 459.421875 432 418.58984375 452 364.58984375 452 c 0
 309.58984375 452 261.580078125 433 221.403320312 394 c 0
 181.2265625 355 156.624023438 307 147.595703125 250 c 0
 138.568359375 193 147.965820312 145 175.7890625 106 c 0
 203.611328125 67 245.602539062 48 300.602539062 48 c 0
 354.602539062 48 401.770507812 68 442.947265625 107 c 1
 476.978515625 63 l 1
 423.05859375 13 361.099609375 -12 291.099609375 -12 c 0
 220.099609375 -12 165.05859375 13 127.13671875 64 c 0
 89.2138671875 115 76.0341796875 177 87.595703125 250 c 0
 99.158203125 323 131.977539062 385 186.055664062 436 c 0
 240.1328125 487 303.092773438 512 374.092773438 512 c 0
EndSplineSet
EndChar

StartChar: d
Encoding: 100 100 29
GlifName: d
Width: 608
Flags: W
HStem: -12 60<215.041 389.912> 452 60<272.875 447.192>
VStem: 471 60<0 60> 581.869 60<640 700>
LayerCount: 2
Fore
SplineSet
364.58984375 452 m 0
 418.58984375 452 458.580078125 433 484.403320312 394 c 0
 510.2265625 355 519.782226562 308 510.595703125 250 c 0
 501.41015625 192 476.965820312 145 438.7890625 106 c 0
 400.611328125 67 354.602539062 48 300.602539062 48 c 0
 245.602539062 48 203.611328125 67 175.7890625 106 c 0
 147.965820312 145 138.568359375 193 147.595703125 250 c 0
 156.624023438 307 181.2265625 355 221.403320312 394 c 0
 261.580078125 433 309.58984375 452 364.58984375 452 c 0
374.092773438 512 m 0
 303.092773438 512 240.1328125 487 186.055664062 436 c 0
 131.977539062 385 99.31640625 324 87.595703125 250 c 0
 75.8759765625 176 89.2138671875 115 127.13671875 64 c 0
 165.05859375 13 220.099609375 -12 291.099609375 -12 c 0
 361.099609375 -12 418.05859375 13 464.8203125 62 c 0
 471.928710938 69 478.1953125 77 484.462890625 85 c 1
 471 0 l 1
 531 0 l 1
 641.869140625 700 l 1
 581.869140625 700 l 1
 536.729492188 415 l 1
 532.997070312 423 529.263671875 431 524.372070312 438 c 0
 493.1328125 487 444.092773438 512 374.092773438 512 c 0
EndSplineSet
EndChar

StartChar: e
Encoding: 101 101 30
GlifName: e
Width: 554
Flags: W
HStem: -12 60<217.575 412.413> 220 60<154.348 500.897> 452 60<274.035 444.472>
CounterMasks: 1 e0
LayerCount: 2
Fore
SplineSet
551.844726562 220 m 5
 144.844726562 220 l 5
 142.92578125 170 156.431640625 129 184.36328125 97 c 4
 212.294921875 65 251.602539062 48 300.602539062 48 c 4
 370.602539062 48 427.770507812 68 472.947265625 107 c 5
 506.978515625 63 l 5
 449.05859375 13 377.099609375 -12 291.099609375 -12 c 4
 220.099609375 -12 165.05859375 13 127.13671875 64 c 4
 89.2138671875 115 76.0341796875 177 87.595703125 250 c 4
 99.158203125 323 131.977539062 385 186.055664062 436 c 4
 240.1328125 487 303.092773438 512 374.092773438 512 c 4
 444.092773438 512 494.291992188 488 526.372070312 438 c 4
 558.453125 388 568.474609375 325 556.595703125 250 c 6
 551.844726562 220 l 5
364.58984375 452 m 4
 315.58984375 452 270.897460938 435 232.829101562 403 c 4
 194.760742188 371 168.266601562 330 154.34765625 280 c 5
 500.34765625 280 l 5
 503.424804688 331 493.918945312 372 470.987304688 404 c 4
 448.055664062 436 412.58984375 452 364.58984375 452 c 4
EndSplineSet
EndChar

StartChar: f
Encoding: 102 102 31
GlifName: f
Width: 344
Flags: W
HStem: 0 21G<128 191.168> 441 59<112.192 197.848 267.192 406.848> 652 60<323.199 440.267>
VStem: 128 60<0 60>
LayerCount: 2
Fore
SplineSet
397.76953125 712 m 2
 449.76953125 712 l 1
 440.266601562 652 l 1
 388.266601562 652 l 2
 361.266601562 652 336.840820312 643 314.83203125 624 c 0
 292.822265625 605 280.1796875 582 275.903320312 555 c 2
 267.192382812 500 l 1
 416.192382812 500 l 1
 406.84765625 441 l 1
 257.84765625 441 l 1
 188 0 l 1
 128 0 l 1
 197.84765625 441 l 1
 102.84765625 441 l 1
 112.192382812 500 l 1
 207.192382812 500 l 1
 215.903320312 555 l 2
 222.713867188 598 243.57421875 635 279.484375 666 c 0
 315.393554688 697 354.76953125 712 397.76953125 712 c 2
EndSplineSet
EndChar

StartChar: g
Encoding: 103 103 32
GlifName: g
Width: 608
Flags: W
HStem: -212 55<151.193 359.537> -12 60<215.041 389.912> 452 60<272.875 447.192> 480 20G<547.025 610.192>
VStem: 550.192 60<440 500>
LayerCount: 2
Fore
SplineSet
374.092773438 512 m 0xe8
 444.092773438 512 493.1328125 487 524.372070312 438 c 0
 529.263671875 431 532.997070312 423 536.729492188 415 c 1
 550.192382812 500 l 1
 610.192382812 500 l 1xd8
 538.286132812 46 l 2
 526.407226562 -29 494.428710938 -92 441.826171875 -140 c 0
 389.223632812 -188 327.422851562 -212 256.422851562 -212 c 0
 191.422851562 -212 133.115234375 -195 81.341796875 -162 c 1
 113.944335938 -114 l 1
 153.350585938 -143 204.133789062 -157 265.133789062 -157 c 0
 324.133789062 -157 371.142578125 -138 408.478515625 -98 c 0
 445.813476562 -58 469.2578125 -11 478.286132812 46 c 0
 480.8203125 62 481.928710938 69 484.462890625 85 c 1
 478.1953125 77 471.928710938 69 464.8203125 62 c 0
 418.05859375 13 361.099609375 -12 291.099609375 -12 c 0
 220.099609375 -12 165.05859375 13 127.13671875 64 c 0
 89.2138671875 115 76.0341796875 177 87.595703125 250 c 0
 99.158203125 323 131.977539062 385 186.055664062 436 c 0
 240.1328125 487 303.092773438 512 374.092773438 512 c 0xe8
364.58984375 452 m 0xe8
 309.58984375 452 261.580078125 433 221.403320312 394 c 0
 181.2265625 355 156.624023438 307 147.595703125 250 c 0
 138.568359375 193 147.965820312 145 175.7890625 106 c 0
 203.611328125 67 245.602539062 48 300.602539062 48 c 0
 354.602539062 48 400.611328125 67 438.7890625 106 c 0
 476.965820312 145 501.41015625 192 510.595703125 250 c 0
 519.782226562 308 510.2265625 355 484.403320312 394 c 0
 458.580078125 433 418.58984375 452 364.58984375 452 c 0xe8
EndSplineSet
EndChar

StartChar: h
Encoding: 104 104 33
GlifName: h
Width: 559
Flags: W
HStem: 0 21G<78 141.168 437 500.168> 452 60<280.835 431.012> 680 20G<185.701 248.869>
VStem: 78 60<0 60> 188.869 60<640 700> 437 60<0 60>
LayerCount: 2
Fore
SplineSet
497 0 m 1
 437 0 l 1
 479.447265625 268 l 2
 488.474609375 325 481.444335938 369 458.670898438 402 c 0
 435.897460938 435 402.58984375 452 359.58984375 452 c 0
 316.58984375 452 277.897460938 435 244.670898438 402 c 0
 211.444335938 369 189.474609375 325 180.447265625 268 c 2
 138 0 l 5
 78 0 l 5
 188.869140625 700 l 1
 248.869140625 700 l 1
 206.421875 432 l 1
 210.213867188 437 215.005859375 442 218.639648438 446 c 0
 260.608398438 490 311.092773438 512 369.092773438 512 c 0
 429.092773438 512 474.450195312 489 507.481445312 445 c 0
 540.51171875 401 551.008789062 341 539.447265625 268 c 2
 497 0 l 1
EndSplineSet
EndChar

StartChar: i
Encoding: 105 105 34
GlifName: i
Width: 225
Flags: W
HStem: 0 21G<82 145.168> 480 20G<158.025 221.192> 630 80<186.999 252.393>
VStem: 82 60<0 60> 161.192 60<440 500>
LayerCount: 2
Fore
SplineSet
82 0 m 1
 161.192382812 500 l 1
 221.192382812 500 l 1
 142 0 l 1
 82 0 l 1
259.1171875 670 m 0
 257.375 659 252.950195312 650 243.682617188 642 c 0
 234.416015625 634 223.782226562 630 212.782226562 630 c 0
 201.782226562 630 193.416015625 634 186.682617188 642 c 0
 179.950195312 650 177.375 659 179.1171875 670 c 0
 180.859375 681 186.443359375 691 195.7109375 699 c 0
 204.977539062 707 214.453125 710 225.453125 710 c 0
 236.453125 710 245.977539062 707 252.7109375 699 c 0
 259.443359375 691 260.859375 681 259.1171875 670 c 0
EndSplineSet
EndChar

StartChar: j
Encoding: 106 106 35
GlifName: j
Width: 243
Flags: W
HStem: -215 60<-71.5498 8.15323> 480 20G<177.025 240.192> 632 80<205.317 270.71>
VStem: 180.192 60<440 500>
LayerCount: 2
Fore
SplineSet
180.192382812 500 m 5
 240.192382812 500 l 5
 159.891601562 -7 l 6
 150.86328125 -64 123.102539062 -113 75.6083984375 -154 c 4
 28.115234375 -195 -24.052734375 -215 -81.052734375 -215 c 5
 -71.5498046875 -155 l 5
 -30.5498046875 -155 6.826171875 -140 40.4189453125 -111 c 4
 74.0126953125 -82 93.3974609375 -48 99.8916015625 -7 c 6
 180.192382812 500 l 5
277.434570312 672 m 4
 275.692382812 661 271.266601562 652 262 644 c 4
 252.732421875 636 242.098632812 632 231.098632812 632 c 4
 220.098632812 632 211.732421875 636 205 644 c 4
 198.266601562 652 195.692382812 661 197.434570312 672 c 4
 199.176757812 683 204.760742188 693 214.02734375 701 c 4
 223.294921875 709 232.76953125 712 243.76953125 712 c 4
 254.76953125 712 264.294921875 709 271.02734375 701 c 4
 277.760742188 693 279.176757812 683 277.434570312 672 c 4
EndSplineSet
EndChar

StartChar: k
Encoding: 107 107 36
GlifName: k
Width: 470
Flags: W
HStem: 0 21G<78 141.168 384.577 468> 480 20G<424.778 529.192> 680 20G<185.701 248.869>
VStem: 78 60<0 60> 188.869 60<640 700>
LayerCount: 2
Fore
SplineSet
78 0 m 1
 188.869140625 700 l 1
 248.869140625 700 l 1
 179.337890625 261 l 1
 447.192382812 500 l 1
 529.192382812 500 l 1
 308.990234375 303 l 1
 468 0 l 1
 395 0 l 1
 260.021484375 259 l 1
 165.716796875 175 l 1
 138 0 l 1
 78 0 l 1
EndSplineSet
EndChar

StartChar: l
Encoding: 108 108 37
GlifName: l
Width: 215
Flags: W
HStem: 0 21G<78 141.168> 680 20G<185.701 248.869>
VStem: 78 60<0 60> 188.869 60<640 700>
LayerCount: 2
Fore
SplineSet
188.869140625 700 m 5
 248.869140625 700 l 1
 138 0 l 1
 78 0 l 1
 188.869140625 700 l 5
EndSplineSet
EndChar

StartChar: m
Encoding: 109 109 38
GlifName: m
Width: 878
Flags: W
HStem: 0 21G<78 141.168 417 480.168 756 819.168> 452 60<273.397 417.628 612.112 756.628> 480 20G<154.025 217.192>
VStem: 78 60<0 60> 157.192 60<440 500> 417 60<0 60> 756 60<0 60>
LayerCount: 2
Fore
SplineSet
816 0 m 1xde
 756 0 l 1
 798.447265625 268 l 2
 807.474609375 325 801.602539062 370 780.829101562 403 c 0
 760.055664062 436 728.58984375 452 687.58984375 452 c 0
 646.58984375 452 611.055664062 436 579.829101562 403 c 0
 548.602539062 370 528.474609375 325 519.447265625 268 c 2
 477 0 l 1
 417 0 l 1
 459.447265625 268 l 2
 468.474609375 325 462.602539062 370 441.829101562 403 c 0
 421.055664062 436 389.58984375 452 348.58984375 452 c 0xde
 307.58984375 452 272.055664062 436 240.829101562 403 c 0
 209.602539062 370 189.474609375 325 180.447265625 268 c 2
 138 0 l 1
 78 0 l 1
 157.192382812 500 l 1
 217.192382812 500 l 1xbe
 207.213867188 437 l 1
 209.689453125 440 213.1640625 443 215.639648438 446 c 0
 254.450195312 489 302.092773438 512 358.092773438 512 c 0
 416.092773438 512 459.450195312 489 490.481445312 445 c 0
 501.947265625 429 510.095703125 411 515.928710938 391 c 1
 526.25390625 412 539.10546875 430 553.639648438 446 c 0
 592.450195312 489 641.092773438 512 697.092773438 512 c 0
 755.092773438 512 798.450195312 489 829.481445312 445 c 0
 860.51171875 401 870.166992188 342 858.447265625 268 c 2
 816 0 l 1xde
EndSplineSet
EndChar

StartChar: n
Encoding: 110 110 39
GlifName: n
Width: 559
Flags: W
HStem: 0 21G<78 141.168 437 500.168> 452 60<280.835 431.012> 480 20G<154.025 217.192>
VStem: 78 60<0 60> 157.192 60<440 500> 437 60<0 60>
LayerCount: 2
Fore
SplineSet
497 0 m 1xdc
 437 0 l 1
 479.447265625 268 l 2
 488.474609375 325 481.444335938 369 458.670898438 402 c 0
 435.897460938 435 402.58984375 452 359.58984375 452 c 0xdc
 316.58984375 452 277.897460938 435 244.670898438 402 c 0
 211.444335938 369 189.474609375 325 180.447265625 268 c 2
 138 0 l 5
 78 0 l 5
 157.192382812 500 l 1
 217.192382812 500 l 1xbc
 206.421875 432 l 1
 210.213867188 437 215.005859375 442 218.639648438 446 c 0
 260.608398438 490 311.092773438 512 369.092773438 512 c 0
 429.092773438 512 474.450195312 489 507.481445312 445 c 0
 540.51171875 401 551.008789062 341 539.447265625 268 c 2
 497 0 l 1xdc
EndSplineSet
EndChar

StartChar: o
Encoding: 111 111 40
GlifName: o
Width: 584
Flags: W
HStem: -12 60<215.041 391.737> 452 60<272.875 449.651>
LayerCount: 2
Fore
SplineSet
364.58984375 452 m 0
 309.58984375 452 261.580078125 433 221.403320312 394 c 0
 181.2265625 355 156.624023438 307 147.595703125 250 c 0
 138.568359375 193 147.965820312 145 175.7890625 106 c 0
 203.611328125 67 245.602539062 48 300.602539062 48 c 0
 355.602539062 48 402.611328125 67 442.7890625 106 c 0
 482.965820312 145 507.568359375 193 516.595703125 250 c 0
 525.624023438 307 516.2265625 355 488.403320312 394 c 0
 460.580078125 433 419.58984375 452 364.58984375 452 c 0
374.092773438 512 m 0
 445.092773438 512 499.1328125 487 537.055664062 436 c 0
 574.977539062 385 588.158203125 323 576.595703125 250 c 0
 565.034179688 177 532.213867188 115 478.13671875 64 c 0
 424.05859375 13 362.099609375 -12 291.099609375 -12 c 0
 220.099609375 -12 165.05859375 13 127.13671875 64 c 0
 89.2138671875 115 76.0341796875 177 87.595703125 250 c 0
 99.158203125 323 131.977539062 385 186.055664062 436 c 0
 240.1328125 487 303.092773438 512 374.092773438 512 c 0
EndSplineSet
EndChar

StartChar: p
Encoding: 112 112 41
GlifName: p
Width: 613
Flags: W
HStem: -12 60<244.409 420.317> 452 60<301.61 478.151>
VStem: 51.3232 60<-200 -140> 162.192 60<440 500>
LayerCount: 2
Fore
SplineSet
222.192382812 500 m 1
 162.192382812 500 l 1
 51.3232421875 -200 l 1
 111.323242188 -200 l 1
 156.462890625 85 l 1
 160.1953125 77 163.928710938 69 168.8203125 62 c 0
 200.05859375 13 249.099609375 -12 319.099609375 -12 c 0
 390.099609375 -12 453.05859375 13 507.13671875 64 c 0
 561.213867188 115 593.875976562 176 605.595703125 250 c 0
 617.31640625 324 603.977539062 385 566.055664062 436 c 0
 528.1328125 487 473.092773438 512 402.092773438 512 c 0
 332.092773438 512 275.1328125 487 228.372070312 438 c 0
 221.263671875 431 214.997070312 423 208.729492188 415 c 1
 222.192382812 500 l 1
328.602539062 48 m 0
 274.602539062 48 233.611328125 67 207.7890625 106 c 0
 181.965820312 145 173.41015625 192 182.595703125 250 c 0
 191.782226562 308 215.2265625 355 253.403320312 394 c 0
 291.580078125 433 338.58984375 452 392.58984375 452 c 0
 447.58984375 452 489.580078125 433 517.403320312 394 c 0
 545.2265625 355 554.624023438 307 545.595703125 250 c 0
 536.568359375 193 511.965820312 145 471.7890625 106 c 0
 431.611328125 67 383.602539062 48 328.602539062 48 c 0
EndSplineSet
EndChar

StartChar: q
Encoding: 113 113 42
GlifName: q
Width: 598
Flags: W
HStem: -200 21G<439.323 502.491> -12 60<215.041 389.912> 452 60<272.875 447.192> 480 20G<547.025 610.192>
VStem: 439.323 60<-200 -140> 550.192 60<440 500>
LayerCount: 2
Fore
SplineSet
550.192382812 500 m 1xdc
 610.192382812 500 l 1xdc
 499.323242188 -200 l 1
 439.323242188 -200 l 1
 484.462890625 85 l 1
 478.1953125 77 471.928710938 69 464.8203125 62 c 0
 418.05859375 13 361.099609375 -12 291.099609375 -12 c 0
 220.099609375 -12 165.05859375 13 127.13671875 64 c 0
 89.2138671875 115 75.8759765625 176 87.595703125 250 c 0
 99.31640625 324 131.977539062 385 186.055664062 436 c 0
 240.1328125 487 303.092773438 512 374.092773438 512 c 0xec
 444.092773438 512 493.1328125 487 524.372070312 438 c 0
 529.263671875 431 532.997070312 423 536.729492188 415 c 1
 550.192382812 500 l 1xdc
300.602539062 48 m 0
 354.602539062 48 400.611328125 67 438.7890625 106 c 0
 476.965820312 145 501.41015625 192 510.595703125 250 c 0
 519.782226562 308 510.2265625 355 484.403320312 394 c 0
 458.580078125 433 418.58984375 452 364.58984375 452 c 0xec
 309.58984375 452 261.580078125 433 221.403320312 394 c 0
 181.2265625 355 156.624023438 307 147.595703125 250 c 0
 138.568359375 193 147.965820312 145 175.7890625 106 c 0
 203.611328125 67 245.602539062 48 300.602539062 48 c 0
EndSplineSet
EndChar

StartChar: r
Encoding: 114 114 43
GlifName: r
Width: 327
Flags: W
HStem: 0 21G<78 141.168> 452 60<298.385 386.59> 480 20G<154.025 217.192>
VStem: 78 60<0 60> 157.192 60<440 500>
LayerCount: 2
Fore
SplineSet
157.192382812 500 m 1xb8
 217.192382812 500 l 1xb8
 205.155273438 424 l 1
 211.10546875 430 217.213867188 437 224.1640625 443 c 0
 245.173828125 462 267.549804688 477 290.291992188 488 c 0
 322.826171875 504 358.092773438 512 396.092773438 512 c 1
 386.58984375 452 l 1xd8
 337.58984375 452 293.897460938 435 253.353515625 400 c 0
 212.810546875 365 189.31640625 324 181.555664062 275 c 2
 138 0 l 1
 78 0 l 1
 157.192382812 500 l 1xb8
EndSplineSet
EndChar

StartChar: s
Encoding: 115 115 44
GlifName: s
Width: 435
Flags: W
HStem: -12 60<148.396 297.068> 452 60<220.127 354.565>
LayerCount: 2
Fore
SplineSet
430.837890625 422 m 1
 370.670898438 402 l 1
 368.045898438 417 358.947265625 429 344.372070312 438 c 0
 329.797851562 447 311.58984375 452 289.58984375 452 c 0
 262.58984375 452 238.481445312 445 220.10546875 430 c 0
 201.729492188 415 190.87890625 397 187.552734375 376 c 0
 183.750976562 352 196.583984375 332 226.049804688 316 c 0
 239.940429688 309 256.990234375 303 277.040039062 297 c 0
 328.6640625 282 365.497070312 262 387.37890625 236 c 0
 408.418945312 211 416.508789062 180 410.807617188 144 c 0
 403.997070312 101 381.13671875 64 342.384765625 34 c 0
 303.633789062 4 260.099609375 -12 210.099609375 -12 c 0
 171.099609375 -12 139.524414062 -3 114.534179688 16 c 0
 89.54296875 35 72.5029296875 60 62.4130859375 91 c 1
 121.581054688 111 l 1
 134.928710938 69 166.602539062 48 219.602539062 48 c 0
 252.602539062 48 282.028320312 57 307.037109375 76 c 0
 332.046875 95 346.53125 117 350.807617188 144 c 0
 355.2421875 172 342.884765625 195 312.89453125 214 c 0
 297.478515625 224 276.745117188 232 251.853515625 239 c 0
 211.595703125 250 179.447265625 268 154.931640625 290 c 0
 130.416015625 312 122.008789062 341 127.552734375 376 c 0
 133.571289062 414 152.797851562 447 184.916015625 473 c 0
 217.034179688 499 255.092773438 512 299.092773438 512 c 0
 334.092773438 512 363.826171875 504 387.291992188 488 c 0
 410.7578125 472 425.114257812 449 430.837890625 422 c 1
EndSplineSet
EndChar

StartChar: t
Encoding: 116 116 45
GlifName: t
Width: 364
Flags: W
HStem: 0 60<249.488 331> 441 59<102.192 181.848 251.192 401.848>
VStem: 215.9 60<596 656>
LayerCount: 2
Fore
SplineSet
215.900390625 656 m 1
 275.900390625 656 l 1
 251.192382812 500 l 1
 411.192382812 500 l 1
 401.84765625 441 l 1
 241.84765625 441 l 1
 203.518554688 199 l 2
 197.341796875 160 205.2734375 128 227.997070312 101 c 0
 250.720703125 74 281.502929688 60 320.502929688 60 c 2
 340.502929688 60 l 1
 331 0 l 1
 311 0 l 2
 256 0 212.16796875 20 179.344726562 59 c 0
 146.521484375 98 134.807617188 144 143.518554688 199 c 2
 181.84765625 441 l 1
 92.84765625 441 l 1
 102.192382812 500 l 1
 191.192382812 500 l 1
 215.900390625 656 l 1
EndSplineSet
EndChar

StartChar: u
Encoding: 117 117 46
GlifName: u
Width: 544
Flags: W
HStem: -12 60<209.023 358.457> 480 20G<139.025 202.192 498.025 561.192>
VStem: 142.192 60<440 500> 501.192 60<440 500>
LayerCount: 2
Fore
SplineSet
142.192382812 500 m 1
 202.192382812 500 l 1
 159.745117188 232 l 2
 150.716796875 175 158.748046875 131 181.521484375 98 c 0
 204.294921875 65 237.602539062 48 280.602539062 48 c 0
 323.602539062 48 361.294921875 65 394.521484375 98 c 0
 427.748046875 131 449.716796875 175 458.745117188 232 c 2
 501.192382812 500 l 1
 561.192382812 500 l 1
 518.745117188 232 l 2
 507.18359375 159 477.6796875 99 430.7109375 55 c 0
 383.7421875 11 331.099609375 -12 271.099609375 -12 c 0
 211.099609375 -12 164.7421875 11 131.7109375 55 c 0
 98.6796875 99 88.18359375 159 99.7451171875 232 c 2
 142.192382812 500 l 1
EndSplineSet
EndChar

StartChar: v
Encoding: 118 118 47
GlifName: v
Width: 493
Flags: W
HStem: 0 21G<210.088 290.248> 480 20G<92.1924 162.072 483.977 560.192>
VStem: 92.1924 65<435 500>
LayerCount: 2
Fore
SplineSet
92.1923828125 500 m 1
 157.192382812 500 l 1
 259.670898438 80 l 1
 495.192382812 500 l 1
 560.192382812 500 l 1
 279 0 l 1
 215 0 l 1
 92.1923828125 500 l 1
EndSplineSet
EndChar

StartChar: w
Encoding: 119 119 48
GlifName: w
Width: 766
Flags: W
HStem: 0 21G<169.768 245.342 508.73 584.368> 480 20G<92.1924 158.397 420.868 497.397 759.868 833.192>
VStem: 92.1924 63<437 500>
LayerCount: 2
Fore
SplineSet
770.192382812 500 m 1
 833.192382812 500 l 1
 574 0 l 1
 512 0 l 1
 445.462890625 407 l 1
 235 0 l 1
 173 0 l 1
 92.1923828125 500 l 1
 155.192382812 500 l 1
 220.571289062 92 l 1
 431.192382812 500 l 1
 494.192382812 500 l 1
 559.571289062 92 l 1
 770.192382812 500 l 1
EndSplineSet
EndChar

StartChar: x
Encoding: 120 120 49
GlifName: x
Width: 440
Flags: W
HStem: 0 21G<12 103.841 344.494 428> 480 20G<91.1924 174.73 418.218 507.192>
LayerCount: 2
Fore
SplineSet
252.04296875 196 m 1
 87 0 l 1
 12 0 l 1
 223.595703125 250 l 1
 91.1923828125 500 l 1
 164.192382812 500 l 1
 267.990234375 303 l 1
 435.192382812 500 l 1
 507.192382812 500 l 1
 296.595703125 250 l 1
 428 0 l 1
 355 0 l 1
 252.04296875 196 l 1
EndSplineSet
EndChar

StartChar: y
Encoding: 121 121 50
GlifName: y
Width: 511
Flags: W
HStem: -212 59<-1.23242 112.745> 480 20G<92.1924 162.413 501.541 578.192>
VStem: 92.1924 65<435 500>
LayerCount: 2
Fore
SplineSet
92.1923828125 500 m 1
 157.192382812 500 l 1
 267.353515625 78 l 1
 513.192382812 500 l 1
 578.192382812 500 l 1
 241.329101562 -80 l 2
 217.994140625 -120 186.92578125 -152 146.124023438 -176 c 0
 105.323242188 -200 63.4228515625 -212 19.4228515625 -212 c 2
 -10.5771484375 -212 l 1
 -1.232421875 -153 l 1
 28.767578125 -153 l 2
 60.767578125 -153 92.1923828125 -144 120.884765625 -127 c 0
 149.578125 -110 172.220703125 -87 189.971679688 -57 c 2
 223 0 l 1
 92.1923828125 500 l 1
EndSplineSet
EndChar

StartChar: z
Encoding: 122 122 51
GlifName: z
Width: 483
Flags: W
HStem: 0 60<138.503 431> 440 60<132.192 424.689>
LayerCount: 2
Fore
SplineSet
53 0 m 1
 62.5029296875 60 l 1
 424.689453125 440 l 1
 122.689453125 440 l 1
 132.192382812 500 l 1
 510.192382812 500 l 1
 500.689453125 440 l 1
 138.502929688 60 l 1
 440.502929688 60 l 1
 431 0 l 1
 53 0 l 1
EndSplineSet
EndChar

StartChar: bracketleft
Encoding: 91 91 52
GlifName: bracketleft
Width: 321
Flags: W
HStem: 740 60<277.507 294.708>
LayerCount: 2
Fore
SplineSet
294.708007812 800 m 6
 276.708007812 800 260.756835938 794 245.698242188 781 c 4
 230.639648438 768 222.263671875 753 219.412109375 735 c 6
 97.45703125 -35 l 6
 94.60546875 -53 98.2294921875 -68 109.170898438 -81 c 4
 120.112304688 -94 134.161132812 -100 152.161132812 -100 c 6
 223.161132812 -100 l 5
 232.665039062 -40 l 5
 161.665039062 -40 l 6
 158.665039062 -40 156.981445312 -38 157.45703125 -35 c 6
 279.412109375 735 l 6
 279.887695312 738 282.204101562 740 285.204101562 740 c 6
 356.204101562 740 l 5
 365.708007812 800 l 5
 294.708007812 800 l 6
EndSplineSet
EndChar

StartChar: backslash
Encoding: 92 92 53
GlifName: backslash
Width: 364
Flags: W
LayerCount: 2
Fore
SplineSet
193.313476562 747 m 5
 133.145507812 727 l 5
 274.6953125 -84 l 5
 333.86328125 -64 l 5
 193.313476562 747 l 5
EndSplineSet
EndChar

StartChar: bracketright
Encoding: 93 93 54
GlifName: bracketright
Width: 321
Flags: W
HStem: -100 60<86.665 165.363> 740 60<219.708 283.507>
VStem: 77.1611 268.251
LayerCount: 2
Fore
SplineSet
290.708007812 800 m 6
 308.708007812 800 322.756835938 794 333.698242188 781 c 4
 344.639648438 768 348.263671875 753 345.412109375 735 c 6
 223.45703125 -35 l 6
 220.60546875 -53 212.229492188 -68 197.170898438 -81 c 4
 182.112304688 -94 166.161132812 -100 148.161132812 -100 c 6
 77.1611328125 -100 l 5
 86.6650390625 -40 l 5
 157.665039062 -40 l 6
 160.665039062 -40 162.981445312 -38 163.45703125 -35 c 6
 285.412109375 735 l 6
 285.887695312 738 284.204101562 740 281.204101562 740 c 6
 210.204101562 740 l 5
 219.708007812 800 l 5
 290.708007812 800 l 6
EndSplineSet
EndChar

StartChar: asciicircum
Encoding: 94 94 55
GlifName: asciicircum
Width: 547
Flags: W
HStem: 373 327
LayerCount: 2
Fore
SplineSet
458.077148438 373 m 1
 349.869140625 700 l 1
 417.869140625 700 l 1
 524.077148438 373 l 1
 458.077148438 373 l 1
143.077148438 373 m 1
 349.869140625 700 l 1
 417.869140625 700 l 1
 207.077148438 373 l 1
 143.077148438 373 l 1
EndSplineSet
EndChar

StartChar: underscore
Encoding: 95 95 56
GlifName: underscore
Width: 485
Flags: W
HStem: -60 60<33 443.497>
LayerCount: 2
Fore
SplineSet
23.4970703125 -60 m 1
 33 0 l 1
 453 0 l 1
 443.497070312 -60 l 1
 23.4970703125 -60 l 1
EndSplineSet
EndChar

StartChar: grave
Encoding: 96 96 57
GlifName: grave
Width: 210
Flags: W
HStem: 574 127
VStem: 120.027 179.886
LayerCount: 2
Fore
SplineSet
223.913085938 574 m 1
 120.02734375 701 l 1
 209.02734375 701 l 1
 299.913085938 574 l 1
 223.913085938 574 l 1
EndSplineSet
EndChar

StartChar: zero
Encoding: 48 48 58
GlifName: zero
Width: 641
Flags: W
HStem: -12 60<247.887 415.693> 652 60<336.857 504.767>
LayerCount: 2
Fore
SplineSet
424.266601562 652 m 0
 389.266601562 652 356.840820312 643 326.990234375 625 c 0
 297.139648438 607 270.49609375 584 249.903320312 555 c 0
 229.310546875 526 212.083984375 493 198.540039062 458 c 0
 184.997070312 423 174.453125 388 168.434570312 350 c 0
 162.416015625 312 161.872070312 277 164.329101562 242 c 0
 166.78515625 207 173.55859375 174 184.965820312 145 c 0
 196.373046875 116 215.729492188 93 239.87890625 75 c 0
 264.028320312 57 293.602539062 48 328.602539062 48 c 0
 363.602539062 48 396.028320312 57 425.87890625 75 c 0
 455.729492188 93 482.373046875 116 502.965820312 145 c 0
 523.55859375 174 541.78515625 207 555.329101562 242 c 0
 568.872070312 277 578.416015625 312 584.434570312 350 c 0
 590.453125 388 591.997070312 423 589.540039062 458 c 0
 587.083984375 493 579.310546875 526 567.903320312 555 c 0
 556.49609375 584 537.139648438 607 512.990234375 625 c 0
 488.840820312 643 459.266601562 652 424.266601562 652 c 0
433.76953125 712 m 0
 490.76953125 712 536.918945312 694 573.216796875 658 c 0
 609.514648438 622 633.387695312 577 643.993164062 524 c 0
 654.598632812 471 654.25390625 412 644.434570312 350 c 0
 634.614257812 288 616.270507812 229 588.875976562 176 c 0
 561.481445312 123 523.353515625 78 475.65234375 42 c 0
 427.950195312 6 376.099609375 -12 319.099609375 -12 c 0
 262.099609375 -12 214.950195312 6 178.65234375 42 c 0
 142.353515625 78 120.481445312 123 109.875976562 176 c 0
 99.2705078125 229 98.6142578125 288 108.434570312 350 c 0
 118.25390625 412 137.598632812 471 164.993164062 524 c 0
 192.387695312 577 228.514648438 622 276.216796875 658 c 0
 323.918945312 694 376.76953125 712 433.76953125 712 c 0
EndSplineSet
EndChar

StartChar: one
Encoding: 49 49 59
GlifName: one
Width: 411
Flags: W
HStem: 0 21G<229 292.168> 680 20G<312.85 399.869>
VStem: 229 60<0 60>
LayerCount: 2
Fore
SplineSet
339.869140625 700 m 1
 399.869140625 700 l 1
 289 0 l 1
 229 0 l 1
 327.514648438 622 l 1
 189.201171875 519 l 1
 157.487304688 565 l 1
 339.869140625 700 l 1
EndSplineSet
EndChar

StartChar: two
Encoding: 50 50 60
GlifName: two
Width: 526
Flags: W
HStem: 0 60<122.503 459> 652 60<263.029 423.784>
LayerCount: 2
Fore
SplineSet
356.76953125 712 m 0
 414.76953125 712 460.6015625 692 495.108398438 651 c 0
 529.614257812 610 541.6953125 560 532.508789062 502 c 0
 524.90625 454 492.987304688 404 437.592773438 351 c 2
 122.502929688 60 l 1
 468.502929688 60 l 1
 459 0 l 1
 33 0 l 1
 42.5029296875 60 l 1
 398.453125 388 l 2
 441.788085938 428 466.807617188 466 472.508789062 502 c 0
 479.319335938 545 471.021484375 581 447.456054688 609 c 0
 423.890625 637 390.266601562 652 347.266601562 652 c 0
 312.266601562 652 279.840820312 643 250.673828125 623 c 0
 221.505859375 603 200.229492188 576 185.844726562 542 c 1
 130.537109375 559 l 1
 150.6640625 604 181.524414062 641 222.958984375 669 c 0
 264.393554688 697 309.76953125 712 356.76953125 712 c 0
EndSplineSet
EndChar

StartChar: three
Encoding: 51 51 61
GlifName: three
Width: 547
Flags: W
HStem: -12 60<191.207 367.786> 350 60<257.938 404.487> 652 60<284.78 447.109>
LayerCount: 2
Fore
SplineSet
377.76953125 712 m 0
 431.76953125 712 476.077148438 695 509.692382812 661 c 0
 543.306640625 627 555.49609375 584 547.260742188 532 c 0
 543.30078125 507 532.340820312 482 515.856445312 460 c 0
 495.580078125 433 466.462890625 407 427.661132812 383 c 1
 461.493164062 363 488.375976562 337 507.307617188 305 c 0
 526.239257812 273 532.6953125 238 526.360351562 198 c 0
 516.857421875 138 485.9375 88 435.602539062 48 c 0
 385.266601562 8 327.099609375 -12 265.099609375 -12 c 0
 224.099609375 -12 187.68359375 -2 154.692382812 17 c 0
 121.702148438 36 98.8203125 62 85.046875 95 c 1
 140.956054688 126 l 1
 150.155273438 102 167.145507812 83 191.928710938 69 c 0
 216.7109375 55 243.602539062 48 274.602539062 48 c 0
 320.602539062 48 362.8203125 62 400.254882812 90 c 0
 437.689453125 118 459.391601562 154 466.360351562 198 c 0
 473.329101562 242 462.03125 278 432.624023438 307 c 0
 403.216796875 336 366.434570312 350 322.434570312 350 c 2
 248.434570312 350 l 1
 257.9375 410 l 1
 331.9375 410 l 2
 367.9375 410 400.6796875 421 432.322265625 444 c 0
 463.965820312 467 481.716796875 497 487.260742188 532 c 0
 492.961914062 568 484.555664062 597 461.040039062 619 c 0
 437.524414062 641 406.266601562 652 368.266601562 652 c 0
 341.266601562 652 315.31640625 646 289.2578125 633 c 0
 263.198242188 620 243.505859375 603 230.1796875 582 c 1
 182.931640625 612 l 1
 202.682617188 642 230.642578125 667 266.493164062 685 c 0
 302.344726562 703 339.76953125 712 377.76953125 712 c 0
EndSplineSet
EndChar

StartChar: four
Encoding: 52 52 62
GlifName: four
Width: 581
Flags: W
HStem: 0 21G<355 418.168> 182 60<157.329 383.826 453.329 577.826> 681 20G<366.491 419.06>
VStem: 355 60<0 60> 424.689 60<380 440>
LayerCount: 2
Fore
SplineSet
379.02734375 701 m 1
 429.068359375 676 l 1
 157.329101562 242 l 1
 393.329101562 242 l 1
 424.689453125 440 l 1
 484.689453125 440 l 1
 453.329101562 242 l 1
 587.329101562 242 l 1
 577.826171875 182 l 1
 443.826171875 182 l 1
 415 0 l 1
 355 0 l 1
 383.826171875 182 l 1
 81.826171875 182 l 1
 91.3291015625 242 l 1
 379.02734375 701 l 1
EndSplineSet
EndChar

StartChar: five
Encoding: 53 53 63
GlifName: five
Width: 539
Flags: W
HStem: -12 60<188.971 356.68> 382 60<241.006 401.945> 640 60<272.366 550.366>
LayerCount: 2
Fore
SplineSet
221.869140625 700 m 1
 559.869140625 700 l 1
 550.366210938 640 l 1
 272.366210938 640 l 1
 241.005859375 442 l 1
 337.005859375 442 l 2
 397.84765625 441 445.205078125 418 481.077148438 373 c 0
 516.950195312 328 530.555664062 275 520.736328125 213 c 0
 510.916015625 151 480.521484375 98 429.552734375 54 c 0
 378.583984375 10 322.099609375 -12 260.099609375 -12 c 0
 220.099609375 -12 184.68359375 -2 153.850585938 18 c 0
 123.018554688 38 98.978515625 63 82.046875 95 c 1
 134.065429688 133 l 1
 162.037109375 76 207.602539062 48 269.602539062 48 c 0
 316.602539062 48 357.13671875 64 394.205078125 96 c 0
 431.2734375 128 453.291992188 166 460.736328125 213 c 0
 468.021484375 259 459.198242188 298 433.424804688 331 c 0
 407.65234375 364 372.344726562 381 327.502929688 382 c 2
 171.502929688 382 l 1
 221.869140625 700 l 1
EndSplineSet
EndChar

StartChar: six
Encoding: 54 54 64
GlifName: six
Width: 542
Flags: W
HStem: -12 60<206.669 377.095> 387 60<280.088 422.783> 692 20G<399.053 482.77>
LayerCount: 2
Fore
SplineSet
341.294921875 387 m 0
 294.294921875 387 251.760742188 371 213.534179688 338 c 0
 175.307617188 305 152.813476562 264 145.369140625 217 c 0
 137.92578125 170 147.58984375 130 175.36328125 97 c 0
 203.13671875 64 240.602539062 48 287.602539062 48 c 0
 334.602539062 48 378.13671875 64 416.36328125 97 c 0
 454.58984375 130 476.92578125 170 484.369140625 217 c 0
 491.813476562 264 482.307617188 305 454.534179688 338 c 0
 426.760742188 371 388.294921875 387 341.294921875 387 c 0
413.76953125 712 m 1
 482.76953125 712 l 1
 278.897460938 435 l 1
 303.1640625 443 327.797851562 447 350.797851562 447 c 0
 413.797851562 447 465.313476562 425 503.186523438 380 c 0
 541.05859375 335 554.34765625 280 544.369140625 217 c 0
 534.391601562 154 503.838867188 100 451.7109375 55 c 0
 399.583984375 10 341.099609375 -12 278.099609375 -12 c 0
 215.099609375 -12 164.583984375 10 126.7109375 55 c 0
 88.8388671875 100 75.3916015625 154 85.369140625 217 c 0
 91.86328125 258 107.881835938 296 133.424804688 331 c 2
 413.76953125 712 l 1
EndSplineSet
EndChar

StartChar: seven
Encoding: 55 55 65
GlifName: seven
Width: 535
Flags: W
HStem: 0 21G<82 165.168> 640 60<158.869 536.366>
LayerCount: 2
Fore
SplineSet
149.366210938 640 m 1
 158.869140625 700 l 1
 613.869140625 700 l 1
 604.366210938 640 l 1
 151 0 l 1
 82 0 l 1
 536.366210938 640 l 1
 149.366210938 640 l 1
EndSplineSet
EndChar

StartChar: eight
Encoding: 56 56 66
GlifName: eight
Width: 573
Flags: W
HStem: -12 60<212.47 382.878> 349 60<279.599 422.938> 652 60<310.61 463.187>
LayerCount: 2
Fore
SplineSet
342.276367188 349 m 0
 299.276367188 349 257.900390625 334 220.465820312 306 c 0
 183.03125 278 161.170898438 241 154.360351562 198 c 0
 147.549804688 155 157.689453125 118 186.254882812 90 c 0
 214.8203125 62 251.602539062 48 294.602539062 48 c 0
 337.602539062 48 378.8203125 62 416.254882812 90 c 0
 453.689453125 118 475.549804688 155 482.360351562 198 c 0
 489.170898438 241 479.03125 278 450.465820312 306 c 0
 421.900390625 334 385.276367188 349 342.276367188 349 c 0
390.266601562 652 m 0
 354.266601562 652 321.366210938 640 290.881835938 618 c 0
 260.397460938 596 241.803710938 567 236.260742188 532 c 0
 230.716796875 497 239.965820312 467 263.322265625 444 c 0
 286.6796875 421 316.779296875 409 351.779296875 409 c 0
 386.779296875 409 420.6796875 421 451.322265625 444 c 0
 481.965820312 467 499.716796875 497 505.260742188 532 c 0
 510.803710938 567 502.397460938 596 478.881835938 618 c 0
 455.366210938 640 426.266601562 652 390.266601562 652 c 0
399.76953125 712 m 0
 451.76953125 712 494.077148438 695 527.534179688 660 c 0
 560.990234375 625 574.337890625 583 566.260742188 532 c 0
 558.182617188 481 531.372070312 438 486.829101562 403 c 0
 476.561523438 395 466.294921875 387 455.344726562 381 c 1
 471.918945312 372 485.176757812 361 498.958984375 347 c 0
 537.624023438 307 551.86328125 258 542.360351562 198 c 0
 532.857421875 138 502.9375 88 451.602539062 48 c 0
 400.266601562 8 345.099609375 -12 285.099609375 -12 c 0
 225.099609375 -12 176.266601562 8 137.602539062 48 c 0
 98.9375 88 84.857421875 138 94.3603515625 198 c 0
 103.86328125 258 133.624023438 307 184.958984375 347 c 0
 203.176757812 361 220.918945312 372 240.344726562 381 c 1
 231.294921875 387 222.561523438 395 214.829101562 403 c 0
 181.372070312 438 168.182617188 481 176.260742188 532 c 0
 184.337890625 583 210.990234375 625 255.534179688 660 c 0
 300.077148438 695 347.76953125 712 399.76953125 712 c 0
EndSplineSet
EndChar

StartChar: nine
Encoding: 57 57 67
GlifName: nine
Width: 542
Flags: W
HStem: 0 21G<178 261.821> 253 60<230.641 373.473> 652 60<277.771 446.754>
LayerCount: 2
Fore
SplineSet
311.57421875 313 m 0
 358.57421875 313 402.108398438 329 440.334960938 362 c 0
 478.561523438 395 500.897460938 435 508.340820312 482 c 0
 515.78515625 529 506.279296875 570 478.505859375 603 c 0
 450.732421875 636 412.266601562 652 365.266601562 652 c 0
 318.266601562 652 275.732421875 636 237.505859375 603 c 0
 199.279296875 570 176.78515625 529 169.340820312 482 c 0
 161.897460938 435 171.561523438 395 199.334960938 362 c 0
 227.108398438 329 264.57421875 313 311.57421875 313 c 0
247 0 m 1
 178 0 l 1
 374.971679688 265 l 1
 349.705078125 257 325.071289062 253 302.071289062 253 c 0
 239.071289062 253 188.555664062 275 150.682617188 320 c 0
 112.65234375 364 99.36328125 419 109.340820312 482 c 0
 119.319335938 545 150.189453125 601 202.158203125 645 c 0
 254.28515625 690 311.76953125 712 374.76953125 712 c 0
 437.76953125 712 489.28515625 690 527.158203125 645 c 0
 565.189453125 601 578.319335938 545 568.340820312 482 c 0
 561.689453125 440 545.829101562 403 520.444335938 369 c 2
 247 0 l 1
EndSplineSet
EndChar

StartChar: exclam
Encoding: 33 33 68
GlifName: exclam
Width: 297
Flags: W
HStem: -14 92<118.58 189.557> 680 20G<226.701 289.869>
VStem: 149.568 60<193 253> 229.869 60<640 700>
LayerCount: 2
Fore
SplineSet
229.869140625 700 m 5
 289.869140625 700 l 5
 209.568359375 193 l 5
 149.568359375 193 l 5
 229.869140625 700 l 5
161.353515625 78 m 4
 174.353515625 78 184.5625 73 192.13671875 64 c 4
 199.7109375 55 202.126953125 45 200.068359375 32 c 4
 198.009765625 19 192.42578125 9 182 0 c 4
 171.57421875 -9 159.782226562 -14 146.782226562 -14 c 4
 133.782226562 -14 123.57421875 -9 116 0 c 4
 108.42578125 9 106.009765625 19 108.068359375 32 c 4
 110.126953125 45 115.7109375 55 126.13671875 64 c 4
 136.5625 73 148.353515625 78 161.353515625 78 c 4
EndSplineSet
EndChar

StartChar: quotedbl
Encoding: 34 34 69
GlifName: quotedbl
Width: 319
Flags: W
HStem: 510 206<171.403 198.776 295.403 322.776>
VStem: 148.776 216.627
LayerCount: 2
Fore
SplineSet
295.403320312 716 m 1
 365.403320312 716 l 1
 322.776367188 510 l 1
 272.776367188 510 l 1
 295.403320312 716 l 1
171.403320312 716 m 1
 241.403320312 716 l 1
 198.776367188 510 l 1
 148.776367188 510 l 1
 171.403320312 716 l 1
EndSplineSet
EndChar

StartChar: numbersign
Encoding: 35 35 70
GlifName: numbersign
Width: 633
Flags: W
HStem: 0 21G<99 166.629 329 396.629> 208 61<66.6055 167.944 249.605 398.944 479.605 599.944> 448 60<145.459 248.956 329.459 478.956 560.459 679.956> 680 20G<326.264 393.869 556.264 623.869>
LayerCount: 2
Fore
SplineSet
562.869140625 700 m 1
 623.869140625 700 l 1
 560.458984375 508 l 1
 700.458984375 508 l 1
 679.956054688 448 l 1
 539.956054688 448 l 1
 479.60546875 269 l 1
 619.60546875 269 l 1
 599.944335938 208 l 1
 458.944335938 208 l 1
 390 0 l 1
 329 0 l 1
 398.944335938 208 l 1
 228.944335938 208 l 1
 160 0 l 1
 99 0 l 1
 167.944335938 208 l 1
 45.9443359375 208 l 1
 66.60546875 269 l 1
 188.60546875 269 l 1
 248.956054688 448 l 1
 125.956054688 448 l 1
 145.458984375 508 l 1
 269.458984375 508 l 1
 332.869140625 700 l 1
 393.869140625 700 l 1
 329.458984375 508 l 1
 499.458984375 508 l 1
 562.869140625 700 l 1
478.956054688 448 m 1
 309.956054688 448 l 1
 249.60546875 269 l 1
 418.60546875 269 l 1
 478.956054688 448 l 1
EndSplineSet
EndChar

StartChar: dollar
Encoding: 36 36 71
GlifName: dollar
Width: 544
Flags: W
VStem: 78.1152 60.167<98.8 129.327> 221.587 60<-91 -31> 361.282 60<731 791> 489.596 60.3262<590.563 616.133>
LayerCount: 2
Fore
SplineSet
361.282226562 791 m 1
 421.282226562 791 l 1
 408.453125 710 l 1
 441.819335938 706 470.393554688 697 493.701171875 680 c 0
 523.375 659 542.782226562 630 549.921875 593 c 1
 489.595703125 572 l 1
 484.555664062 597 472.723632812 617 451.940429688 631 c 0
 431.158203125 645 404.266601562 652 369.266601562 652 c 0
 327.266601562 652 291.524414062 641 261.881835938 618 c 0
 232.23828125 595 214.645507812 566 209.102539062 531 c 0
 204.350585938 501 210.549804688 477 228.381835938 457 c 0
 247.897460938 435 282.36328125 419 330.9375 410 c 0
 393.1953125 399 442.39453125 375 478.534179688 338 c 0
 514.673828125 301 527.387695312 255 518.518554688 199 c 0
 509.173828125 140 479.254882812 90 430.760742188 49 c 0
 390.375976562 15 345.366210938 -4 294.416015625 -10 c 1
 281.586914062 -91 l 1
 221.586914062 -91 l 1
 234.416015625 -10 l 1
 198.049804688 -6 166.950195312 6 141.118164062 26 c 0
 108.077148438 51 86.462890625 85 78.115234375 127 c 1
 138.282226562 147 l 1
 144.53125 117 158.729492188 93 182.87890625 75 c 0
 207.028320312 57 237.602539062 48 273.602539062 48 c 0
 319.602539062 48 359.978515625 63 395.571289062 92 c 0
 431.1640625 121 451.866210938 157 458.518554688 199 c 0
 464.853515625 239 454.081054688 272 428.198242188 298 c 0
 402.31640625 324 367.166992188 342 321.434570312 350 c 0
 263.176757812 361 218.344726562 381 185.9375 410 c 0
 153.53125 439 141.024414062 480 149.102539062 531 c 0
 157.1796875 582 182.990234375 625 226.534179688 660 c 0
 262.126953125 689 302.661132812 705 348.453125 710 c 1
 361.282226562 791 l 1
EndSplineSet
EndChar

StartChar: percent
Encoding: 37 37 72
GlifName: percent
Width: 862
Flags: W
HStem: -12 60<602.086 723.696> 0 21G<197.344 240.162> 244 60<626.872 747.482> 396 60<225.194 348.31> 652 60<249.18 372.296> 680 20G<733.707 776.525>
LayerCount: 2
Fore
SplineSet
700.1484375 304 m 4xb0
 743.1484375 304 778.614257812 288 804.705078125 257 c 4
 830.794921875 226 839.934570312 189 833.124023438 146 c 4
 826.313476562 103 805.453125 66 769.54296875 35 c 4
 733.633789062 4 693.099609375 -12 650.099609375 -12 c 4
 607.099609375 -12 572.633789062 4 546.54296875 35 c 4
 520.453125 66 510.313476562 103 517.124023438 146 c 4
 523.934570312 189 545.794921875 226 581.705078125 257 c 4
 617.614257812 288 657.1484375 304 700.1484375 304 c 4xb0
690.645507812 244 m 4
 663.645507812 244 639.061523438 234 617.052734375 215 c 4
 595.04296875 196 581.400390625 173 577.124023438 146 c 4
 572.84765625 119 579.205078125 96 595.1953125 77 c 4
 611.186523438 58 632.602539062 48 659.602539062 48 c 4
 686.602539062 48 711.186523438 58 733.1953125 77 c 4
 755.205078125 96 768.84765625 119 773.124023438 146 c 4
 777.400390625 173 771.04296875 196 755.052734375 215 c 4
 739.061523438 234 717.645507812 244 690.645507812 244 c 4
750.869140625 700 m 5x74
 794.484375 666 l 5
 223 0 l 5
 179.384765625 34 l 5
 750.869140625 700 l 5x74
323.76953125 712 m 4x38
 366.76953125 712 401.393554688 697 427.484375 666 c 4
 453.57421875 635 463.555664062 597 456.745117188 554 c 4
 449.934570312 511 427.916015625 473 392.005859375 442 c 4
 356.095703125 411 316.720703125 396 273.720703125 396 c 4
 230.720703125 396 196.095703125 411 170.005859375 442 c 4
 143.916015625 473 133.934570312 511 140.745117188 554 c 4
 147.555664062 597 169.57421875 635 205.484375 666 c 4
 241.393554688 697 280.76953125 712 323.76953125 712 c 4x38
314.266601562 652 m 4
 287.266601562 652 262.840820312 643 240.83203125 624 c 4
 218.822265625 605 205.021484375 581 200.745117188 554 c 4
 196.46875 527 202.666992188 503 218.658203125 484 c 4
 234.6484375 465 256.223632812 456 283.223632812 456 c 4
 310.223632812 456 334.6484375 465 356.658203125 484 c 4
 378.666992188 503 392.46875 527 396.745117188 554 c 4
 401.021484375 581 394.822265625 605 378.83203125 624 c 4
 362.840820312 643 341.266601562 652 314.266601562 652 c 4
EndSplineSet
EndChar

StartChar: ampersand
Encoding: 38 38 73
GlifName: ampersand
Width: 647
Flags: W
HStem: -12 60<193.615 388.879> 0 21G<538.406 630> 652 60<324.689 450.772>
LayerCount: 2
Fore
SplineSet
262.099609375 -12 m 0xa0
 206.099609375 -12 161.791992188 5 128.176757812 39 c 0
 94.5625 73 81.2138671875 115 89.4501953125 167 c 0
 95.15234375 203 110.37890625 236 136.60546875 269 c 0
 164.1484375 304 202.375976562 337 252.28515625 368 c 0
 289.928710938 391 318.9375 410 342.155273438 424 c 0
 372.1640625 443 390.064453125 455 393.381835938 457 c 0
 442.924804688 492 469.310546875 526 474.537109375 559 c 0
 479.129882812 588 471.614257812 610 454.306640625 627 c 0
 437 644 415.266601562 652 388.266601562 652 c 0
 362.266601562 652 338.682617188 642 315.83203125 624 c 0
 292.981445312 606 280.655273438 585 276.853515625 561 c 0
 273.369140625 539 278.7265625 516 294.2421875 494 c 6
 630 0 l 1
 552 0 l 1x60
 241.381835938 457 l 2
 219.608398438 490 210.993164062 524 216.853515625 561 c 0
 223.6640625 604 246.366210938 640 281.958984375 669 c 0
 317.552734375 698 355.76953125 712 397.76953125 712 c 0
 443.76953125 712 479.393554688 697 505.80078125 668 c 0
 532.208007812 639 541.505859375 603 534.537109375 559 c 0
 530.577148438 534 519.618164062 509 502.974609375 486 c 0
 487.490234375 464 465.1640625 443 438.837890625 422 c 0
 422.9375 410 402.87890625 397 377.186523438 380 c 0
 350.334960938 362 318.166992188 342 279.524414062 319 c 0
 237.565429688 294 206.447265625 268 184.170898438 241 c 0
 164.369140625 217 153.41015625 192 149.450195312 167 c 0
 143.58984375 130 154.997070312 101 179.670898438 80 c 0
 204.344726562 59 234.602539062 48 271.602539062 48 c 0
 311.602539062 48 346.39453125 53 379.294921875 65 c 0
 411.1953125 77 440.046875 95 465.689453125 118 c 0
 520.450195312 167 561.586914062 231 587.940429688 309 c 1
 647.940429688 309 l 1
 613.78515625 207 566.58984375 130 505.037109375 76 c 0
 472.444335938 47 433.959960938 25 389.583984375 10 c 0
 345.208007812 -5 303.099609375 -12 262.099609375 -12 c 0xa0
EndSplineSet
EndChar

StartChar: quotesingle
Encoding: 39 39 74
GlifName: quotesingle
Width: 195
Flags: W
HStem: 510 206<176.403 203.776>
VStem: 153.776 92.627
LayerCount: 2
Fore
SplineSet
176.403320312 716 m 1
 246.403320312 716 l 1
 203.776367188 510 l 1
 153.776367188 510 l 1
 176.403320312 716 l 1
EndSplineSet
EndChar

StartChar: parenleft
Encoding: 40 40 75
GlifName: parenleft
Width: 325
Flags: W
LayerCount: 2
Fore
SplineSet
356.548828125 799 m 1
 392.897460938 757 l 1
 336.02734375 701 289.048828125 638 251.803710938 567 c 0
 214.55859375 496 190.155273438 424 178.434570312 350 c 0
 166.713867188 276 168.310546875 204 183.223632812 134 c 0
 198.13671875 64 225 0 263.130859375 -56 c 1
 214.3203125 -99 l 1
 170.139648438 -37 140.2265625 33 123.421875 110 c 0
 106.618164062 187 105.2890625 267 118.434570312 350 c 0
 131.580078125 433 158.092773438 512 199.288085938 589 c 0
 240.484375 666 292.729492188 737 356.548828125 799 c 1
EndSplineSet
EndChar

StartChar: parenright
Encoding: 41 41 76
GlifName: parenright
Width: 325
Flags: W
LayerCount: 2
Fore
SplineSet
222.548828125 799 m 1
 266.729492188 737 296.484375 666 313.288085938 589 c 0
 330.092773438 512 331.580078125 433 318.434570312 350 c 0
 305.2890625 267 278.618164062 187 237.421875 110 c 0
 196.2265625 33 144.139648438 -37 80.3203125 -99 c 1
 80.3203125 -99 80.3203125 -99 45.130859375 -56 c 1
 101 0 148.13671875 64 185.223632812 134 c 0
 222.310546875 204 246.713867188 276 258.434570312 350 c 0
 270.155273438 424 268.55859375 496 253.803710938 567 c 0
 239.048828125 638 212.02734375 701 172.897460938 757 c 5
 172.897460938 757 172.897460938 757 222.548828125 799 c 1
EndSplineSet
EndChar

StartChar: asterisk
Encoding: 42 42 77
GlifName: asterisk
Width: 481
Flags: W
HStem: 571 57<477.368 492.568>
VStem: 324.403 60<656 716>
LayerCount: 2
Fore
SplineSet
162.4375 571 m 1
 189.465820312 628 l 1
 341.387695312 577 l 1
 314.360351562 520 l 1
 162.4375 571 l 1
229.561523438 395 m 1
 186.10546875 430 l 1
 306.487304688 565 l 1
 348.943359375 530 l 1
 229.561523438 395 l 1
432.10546875 430 m 1
 377.561523438 395 l 1
 300.943359375 530 l 1
 354.487304688 565 l 1
 432.10546875 430 l 1
491.465820312 628 m 1
 500.4375 571 l 1
 332.360351562 520 l 1
 323.387695312 577 l 1
 491.465820312 628 l 1
324.403320312 716 m 1
 384.403320312 716 l 1
 357.794921875 548 l 1
 297.794921875 548 l 5
 324.403320312 716 l 1
EndSplineSet
EndChar

StartChar: plus
Encoding: 43 43 78
GlifName: plus
Width: 625
Flags: W
HStem: 269 60<140.108 325.605 395.108 580.605>
VStem: 294.562 60<73 133> 365.835 60<463 523>
LayerCount: 2
Fore
SplineSet
365.834960938 523 m 1
 425.834960938 523 l 1
 395.108398438 329 l 1
 590.108398438 329 l 1
 580.60546875 269 l 1
 385.60546875 269 l 1
 354.5625 73 l 1
 294.5625 73 l 1
 325.60546875 269 l 1
 130.60546875 269 l 1
 140.108398438 329 l 1
 335.108398438 329 l 1
 365.834960938 523 l 1
EndSplineSet
EndChar

StartChar: comma
Encoding: 44 44 79
GlifName: comma
Width: 209
Flags: W
HStem: -116 202
VStem: 116.621 61<25 86>
LayerCount: 2
Fore
SplineSet
116.62109375 86 m 5
 177.62109375 86 l 5
 165.42578125 9 136.655273438 -59 90.626953125 -116 c 5
 29.626953125 -116 l 5
 76.2890625 -55 104.900390625 12 116.62109375 86 c 5
EndSplineSet
EndChar

StartChar: hyphen
Encoding: 45 45 80
GlifName: hyphen
Width: 425
Flags: W
HStem: 268 60<114.95 405.447>
VStem: 105.447 309.503
LayerCount: 2
Fore
SplineSet
105.447265625 268 m 1
 114.950195312 328 l 1
 414.950195312 328 l 1
 405.447265625 268 l 1
 105.447265625 268 l 1
EndSplineSet
EndChar

StartChar: period
Encoding: 46 46 81
GlifName: period
Width: 197
Flags: W
HStem: -14 92<68.58 138.87>
LayerCount: 2
Fore
SplineSet
150.068359375 32 m 0
 148.009765625 19 141.42578125 9 131 0 c 0
 120.57421875 -9 109.782226562 -14 96.7822265625 -14 c 0
 83.7822265625 -14 73.57421875 -9 66 0 c 0
 58.42578125 9 56.009765625 19 58.068359375 32 c 0
 60.126953125 45 65.7109375 55 76.13671875 64 c 0
 86.5625 73 98.353515625 78 111.353515625 78 c 0
 124.353515625 78 133.5625 73 141.13671875 64 c 0
 148.7109375 55 152.126953125 45 150.068359375 32 c 0
EndSplineSet
EndChar

StartChar: slash
Encoding: 47 47 82
GlifName: slash
Width: 361
Flags: W
LayerCount: 2
Fore
SplineSet
406.313476562 747 m 5
 459.145507812 727 l 5
 61.6953125 -84 l 5
 7.86328125 -64 l 5
 406.313476562 747 l 5
EndSplineSet
EndChar

StartChar: colon
Encoding: 58 58 83
GlifName: colon
Width: 239
Flags: W
HStem: -2 92<92.1227 162.643> 410 92<155.615 226.282>
LayerCount: 2
Fore
SplineSet
183.9375 410 m 256
 170.9375 410 160.571289062 414 152.997070312 423 c 0
 145.421875 432 143.1640625 443 145.223632812 456 c 256
 147.282226562 469 152.866210938 479 163.291992188 488 c 0
 173.716796875 497 185.508789062 502 198.508789062 502 c 256
 211.508789062 502 220.716796875 497 228.291992188 488 c 0
 235.866210938 479 239.282226562 469 237.223632812 456 c 256
 235.1640625 443 228.421875 432 217.997070312 423 c 0
 207.571289062 414 196.9375 410 183.9375 410 c 256
120.68359375 -2 m 256
 107.68359375 -2 97.4755859375 3 89.900390625 12 c 0
 82.326171875 21 79.91015625 31 81.96875 44 c 256
 84.0283203125 57 89.7705078125 68 100.1953125 77 c 0
 110.62109375 86 122.254882812 90 135.254882812 90 c 256
 148.254882812 90 157.62109375 86 165.1953125 77 c 0
 172.770507812 68 176.028320312 57 173.96875 44 c 256
 171.91015625 31 165.326171875 21 154.900390625 12 c 0
 144.475585938 3 133.68359375 -2 120.68359375 -2 c 256
EndSplineSet
EndChar

StartChar: semicolon
Encoding: 59 59 84
GlifName: semicolon
Width: 243
Flags: W
HStem: 410 92<161.615 232.282>
VStem: 116.621 61<25 86>
LayerCount: 2
Fore
SplineSet
116.62109375 86 m 5
 177.62109375 86 l 5
 165.42578125 9 136.655273438 -59 90.626953125 -116 c 5
 29.626953125 -116 l 5
 76.2890625 -55 104.900390625 12 116.62109375 86 c 5
189.9375 410 m 0
 176.9375 410 166.571289062 414 158.997070312 423 c 0
 151.421875 432 149.1640625 443 151.223632812 456 c 0
 153.282226562 469 158.866210938 479 169.291992188 488 c 0
 179.716796875 497 191.508789062 502 204.508789062 502 c 0
 217.508789062 502 226.716796875 497 234.291992188 488 c 0
 241.866210938 479 245.282226562 469 243.223632812 456 c 0
 241.1640625 443 234.421875 432 223.997070312 423 c 0
 213.571289062 414 202.9375 410 189.9375 410 c 0
EndSplineSet
EndChar

StartChar: less
Encoding: 60 60 85
GlifName: less
Width: 625
Flags: W
LayerCount: 2
Fore
SplineSet
550.450195312 489 m 1
 539.997070312 423 l 1
 258.198242188 298 l 1
 500.400390625 173 l 1
 489.7890625 106 l 1
 183.971679688 265 l 1
 194.424804688 331 l 1
 550.450195312 489 l 1
EndSplineSet
EndChar

StartChar: equal
Encoding: 61 61 86
GlifName: equal
Width: 625
Flags: W
HStem: 167 61<149.111 539.45> 368 60<180.788 571.285>
LayerCount: 2
Fore
SplineSet
171.28515625 368 m 1
 180.788085938 428 l 1
 580.788085938 428 l 1
 571.28515625 368 l 1
 171.28515625 368 l 1
139.450195312 167 m 1
 149.111328125 228 l 1
 549.111328125 228 l 1
 539.450195312 167 l 1
 139.450195312 167 l 1
EndSplineSet
EndChar

StartChar: greater
Encoding: 62 62 87
GlifName: greater
Width: 625
Flags: W
LayerCount: 2
Fore
SplineSet
230.450195312 489 m 1
 219.997070312 423 l 1
 462.198242188 298 l 1
 180.400390625 173 l 1
 169.7890625 106 l 5
 525.971679688 265 l 5
 536.424804688 331 l 1
 230.450195312 489 l 1
EndSplineSet
EndChar

StartChar: question
Encoding: 63 63 88
GlifName: question
Width: 504
Flags: W
HStem: -14 92<192.267 261.87> 652 60<265.805 417.89>
VStem: 181.068 92<0.422615 63.5774> 218.984 60<183 243>
LayerCount: 2
Fore
SplineSet
273.068359375 32 m 4xe0
 271.009765625 19 264.42578125 9 254 0 c 4
 243.57421875 -9 232.782226562 -14 219.782226562 -14 c 4
 206.782226562 -14 197.57421875 -9 190 0 c 4
 182.42578125 9 179.009765625 19 181.068359375 32 c 4
 183.126953125 45 189.7109375 55 200.13671875 64 c 4
 210.5625 73 221.353515625 78 234.353515625 78 c 4
 247.353515625 78 256.5625 73 264.13671875 64 c 4
 271.7109375 55 275.126953125 45 273.068359375 32 c 4xe0
354.76953125 712 m 4
 412.76953125 712 459.443359375 691 493.950195312 650 c 4
 528.456054688 609 540.6953125 560 531.508789062 502 c 4
 525.173828125 462 508.471679688 426 481.086914062 392 c 4
 453.701171875 358 420.583984375 332 380.732421875 314 c 4
 354.83203125 302 332.139648438 285 313.337890625 261 c 4
 294.537109375 237 283.418945312 211 278.984375 183 c 5
 218.984375 183 l 5xd0
 225.319335938 223 242.021484375 259 268.40625 293 c 4
 294.791992188 327 326.750976562 352 365.444335938 369 c 4
 393.344726562 381 416.353515625 400 436.155273438 424 c 4
 455.956054688 448 467.07421875 474 471.508789062 502 c 4
 478.002929688 543 469.387695312 577 444.139648438 607 c 4
 418.890625 637 386.266601562 652 345.266601562 652 c 4
 311.266601562 652 278.524414062 641 248.198242188 620 c 4
 217.872070312 599 195.595703125 572 182.369140625 539 c 5
 124.953125 549 l 5
 143.397460938 596 173.732421875 636 216.484375 666 c 4
 259.235351562 696 305.76953125 712 354.76953125 712 c 4
EndSplineSet
EndChar

StartChar: at
Encoding: 64 64 89
GlifName: at
Width: 993
Flags: W
HStem: -213 62<363.985 625.437> -83 62<763.22 828.748> 13 63<447.537 618.288> 426 63<496.44 666.505> 653 62<486.824 749.151>
LayerCount: 2
Fore
SplineSet
630.245117188 715 m 0
 692.245117188 715 748.344726562 703 801.701171875 680 c 0
 855.05859375 657 900.514648438 622 936.705078125 579 c 0
 972.89453125 536 999.974609375 486 1013.94726562 429 c 0
 1027.91894531 372 1030.57421875 313 1020.75488281 251 c 0
 1011.56835938 193 993.857421875 138 965.779296875 87 c 4
 940.334960938 40 907.366210938 -4 865.713867188 -46 c 0
 840.754882812 -71 812.854492188 -83 781.854492188 -83 c 0
 753.854492188 -83 730.4375 -73 713.60546875 -53 c 0
 696.7734375 -33 690.57421875 -9 695.009765625 19 c 2
 706.254882812 90 l 1
 651.176757812 39 588.05859375 13 519.05859375 13 c 0
 453.05859375 13 400.860351562 37 362.145507812 83 c 0
 323.431640625 129 308.30078125 185 318.754882812 251 c 0
 329.208007812 317 362.077148438 373 415.36328125 419 c 0
 468.6484375 465 528.450195312 489 594.450195312 489 c 0
 660.450195312 489 713.6484375 465 752.36328125 419 c 0
 791.077148438 373 805.208007812 317 794.754882812 251 c 2
 758.009765625 19 l 2
 756.266601562 8 758.841796875 -1 765.57421875 -9 c 0
 772.307617188 -17 780.673828125 -21 791.673828125 -21 c 0
 803.673828125 -21 814.624023438 -15 824.049804688 -6 c 0
 898.928710938 69 944.391601562 154 959.754882812 251 c 0
 968.1484375 304 966.384765625 356 953.145507812 405 c 0
 939.90625 454 918.875 498 886.89453125 536 c 0
 854.913085938 574 815.34765625 602 769.673828125 623 c 0
 724 644 673.424804688 653 620.424804688 653 c 0
 547.424804688 653 477.732421875 636 410.030273438 600 c 0
 342.329101562 564 286.568359375 515 240.748046875 453 c 0
 194.928710938 391 165.31640625 324 153.754882812 251 c 0
 145.360351562 198 147.124023438 146 160.36328125 97 c 0
 173.602539062 48 194.633789062 4 226.615234375 -34 c 0
 258.596679688 -72 298.161132812 -100 343.8359375 -121 c 0
 389.509765625 -142 440.083984375 -151 493.083984375 -151 c 0
 541.083984375 -151 590.350585938 -143 639.202148438 -125 c 1
 652.173828125 -182 l 1
 594.84765625 -203 539.263671875 -213 483.263671875 -213 c 0
 421.263671875 -213 364.165039062 -201 310.807617188 -178 c 0
 257.450195312 -155 212.994140625 -120 176.8046875 -77 c 0
 140.615234375 -34 113.534179688 16 99.5625 73 c 0
 85.58984375 130 82.9345703125 189 92.7548828125 251 c 0
 102.57421875 313 123.918945312 372 155.947265625 429 c 0
 187.974609375 486 230.89453125 536 280.705078125 579 c 0
 330.514648438 622 386.05859375 657 446.701171875 680 c 0
 507.344726562 703 568.245117188 715 630.245117188 715 c 0
584.471679688 426 m 0
 536.471679688 426 492.779296875 409 453.39453125 375 c 0
 414.008789062 341 389.357421875 299 381.754882812 251 c 0
 374.15234375 203 385.5 161 414.115234375 127 c 0
 442.729492188 93 481.037109375 76 529.037109375 76 c 0
 577.037109375 76 621.729492188 93 661.115234375 127 c 0
 700.5 161 724.15234375 203 731.754882812 251 c 0
 739.357421875 299 729.008789062 341 700.39453125 375 c 0
 671.779296875 409 632.471679688 426 584.471679688 426 c 0
EndSplineSet
EndChar

StartChar: braceleft
Encoding: 123 123 90
GlifName: braceleft
Width: 387
Flags: W
HStem: -100 60<271.051 309.161> 320 60<123.187 173.585> 740 60<386.836 442.204>
CounterMasks: 1 e0
LayerCount: 2
Fore
SplineSet
309.161132812 -100 m 1
 257.161132812 -100 220.8046875 -77 200.931640625 -32 c 0
 180.534179688 16 177.096679688 89 192.776367188 188 c 0
 199.745117188 232 196.129882812 266 182.614257812 288 c 0
 168.940429688 309 146.682617188 320 113.682617188 320 c 1
 123.186523438 380 l 1
 160.186523438 380 188.245117188 393 209.521484375 420 c 0
 227.005859375 442 237.7578125 472 244.092773438 512 c 0
 259.931640625 612 286.651367188 686 323.25390625 734 c 0
 357.22265625 778 399.708007812 800 451.708007812 800 c 1
 442.204101562 740 l 1
 411.045898438 739 384.51171875 723 362.6015625 692 c 0
 335.583007812 654 317.23828125 595 304.250976562 513 c 0
 295.698242188 459 277.887695312 416 252.13671875 386 c 0
 239.760742188 371 225.860351562 359 208.434570312 350 c 1
 216.642578125 345 224.534179688 338 230.266601562 330 c 0
 255.357421875 299 262.913085938 252 252.618164062 187 c 0
 238.521484375 98 240.54296875 35 258.68359375 -2 c 0
 270.881835938 -26 291.823242188 -39 318.665039062 -40 c 1
 309.161132812 -100 l 1
EndSplineSet
EndChar

StartChar: bar
Encoding: 124 124 91
GlifName: bar
Width: 263
Flags: W
VStem: 67.1553 60<-220 -160> 227.124 60<730 790>
LayerCount: 2
Fore
SplineSet
227.124023438 790 m 1
 287.124023438 790 l 1
 127.155273438 -220 l 1
 67.1552734375 -220 l 1
 227.124023438 790 l 1
EndSplineSet
EndChar

StartChar: braceright
Encoding: 125 125 92
GlifName: braceright
Width: 387
Flags: W
HStem: -100 60<56.665 110.516> 320 60<324.192 375.683> 740 60<189.708 227.675>
CounterMasks: 1 e0
LayerCount: 2
Fore
SplineSet
47.1611328125 -100 m 1
 99.1611328125 -100 142.8046875 -77 176.931640625 -32 c 0
 212.534179688 16 239.096679688 89 254.776367188 188 c 0
 261.745117188 232 276.129882812 266 296.614257812 288 c 0
 316.940429688 309 342.682617188 320 375.682617188 320 c 5
 385.186523438 380 l 5
 348.186523438 380 324.245117188 393 311.521484375 420 c 0
 301.005859375 442 299.7578125 472 306.092773438 512 c 0
 321.931640625 612 318.651367188 686 297.25390625 734 c 0
 277.22265625 778 241.708007812 800 189.708007812 800 c 1
 180.204101562 740 l 1
 211.045898438 739 231.51171875 723 243.6015625 692 c 0
 258.583007812 654 259.23828125 595 246.250976562 513 c 0
 237.698242188 459 240.887695312 416 257.13671875 386 c 0
 264.760742188 371 275.860351562 359 290.434570312 350 c 1
 280.642578125 345 270.534179688 338 262.266601562 330 c 0
 227.357421875 299 204.913085938 252 194.618164062 187 c 0
 180.521484375 98 157.54296875 35 127.68359375 -2 c 0
 107.881835938 -26 83.8232421875 -39 56.6650390625 -40 c 1
 47.1611328125 -100 l 1
EndSplineSet
EndChar

StartChar: asciitilde
Encoding: 126 126 93
GlifName: asciitilde
Width: 534
Flags: W
HStem: 237 60<360.004 445.556> 336 60<189.49 276.34>
VStem: 104.972 60<265 315.239>
LayerCount: 2
Fore
SplineSet
242.720703125 396 m 0
 279.720703125 396 312.7109375 377 340.850585938 340 c 0
 348.424804688 331 355.158203125 323 361.208007812 317 c 0
 373.990234375 303 388.040039062 297 401.040039062 297 c 0
 419.040039062 297 432.83203125 302 442.2578125 311 c 0
 454 322 464.008789062 341 470.28515625 368 c 1
 530.28515625 368 l 1
 517.682617188 320 495.981445312 284 469.655273438 263 c 0
 447.962890625 246 422.537109375 237 391.537109375 237 c 0
 355.537109375 237 323.387695312 255 296.08984375 291 c 0
 282.940429688 309 270.841796875 321 258.950195312 328 c 0
 249.7421875 333 241.216796875 336 233.216796875 336 c 0
 215.216796875 336 202.424804688 331 191.841796875 321 c 0
 180.099609375 310 171.08984375 291 164.971679688 265 c 1
 104.971679688 265 l 1
 116.57421875 313 136.118164062 348 162.444335938 369 c 0
 184.294921875 387 210.720703125 396 242.720703125 396 c 0
EndSplineSet
EndChar

StartChar: exclamdown
Encoding: 161 161 94
GlifName: exclamdown
Width: 297
Flags: W
HStem: 420 92<186.961 258.416>
VStem: 87.0059 60<-202 -142> 167.308 60<245 305>
LayerCount: 2
Fore
SplineSet
215.521484375 420 m 0
 228.521484375 420 240.313476562 425 250.739257812 434 c 0
 261.1640625 443 266.748046875 453 268.807617188 466 c 0
 270.866210938 479 268.608398438 490 261.034179688 499 c 0
 253.458984375 508 243.092773438 512 230.092773438 512 c 0
 217.092773438 512 205.458984375 508 195.034179688 499 c 0
 184.608398438 490 178.866210938 479 176.807617188 466 c 0
 174.748046875 453 177.1640625 443 184.739257812 434 c 0
 192.313476562 425 202.521484375 420 215.521484375 420 c 0
87.005859375 -202 m 1
 147.005859375 -202 l 1
 227.307617188 305 l 1
 167.307617188 305 l 1
 87.005859375 -202 l 1
EndSplineSet
EndChar

StartChar: cent
Encoding: 162 162 95
GlifName: cent
Width: 499
Flags: W
HStem: 0 21G<248 310.168> 92 61<225.045 262.571 330.6 414.514> 551 61<403.932 463.866> 680 20G<355.701 417.869>
VStem: 248 59<0 59> 358.869 59<641 700>
LayerCount: 2
Fore
SplineSet
403.931640625 612 m 1
 466.456054688 609 516.337890625 583 552.052734375 537 c 1
 504.083984375 493 l 1
 478.626953125 528 440.794921875 548 394.26953125 551 c 1
 330.599609375 149 l 1
 378.07421875 152 422.2421875 172 458.78515625 207 c 1
 492.81640625 163 l 1
 442.53125 117 384.413085938 91 320.9375 88 c 1
 307 0 l 1
 248 0 l 1
 262.571289062 92 l 1
 212.997070312 101 172.639648438 124 142.974609375 164 c 0
 105.052734375 215 91.7138671875 276 103.434570312 350 c 0
 115.155273438 424 147.81640625 485 201.89453125 536 c 0
 244.229492188 576 291.872070312 599 344.297851562 608 c 1
 358.869140625 700 l 1
 417.869140625 700 l 1
 403.931640625 612 l 1
334.477539062 546 m 1
 298.2109375 538 265.518554688 521 237.2421875 494 c 0
 197.064453125 455 172.462890625 407 163.434570312 350 c 0
 154.40625 293 163.962890625 246 191.78515625 207 c 0
 211.508789062 180 238.5 161 272.232421875 153 c 1
 334.477539062 546 l 1
EndSplineSet
EndChar

StartChar: sterling
Encoding: 163 163 96
GlifName: sterling
Width: 575
Flags: W
HStem: 0 63<62.9785 120.882 180.979 522> 287 63<108.435 178.456 252.435 440.456> 648 64<355.625 497.876>
VStem: 540.885 64<517 581>
LayerCount: 2
Fore
SplineSet
531.978515625 63 m 1
 522 0 l 1
 53 0 l 1
 62.978515625 63 l 1
 84.978515625 63 104.086914062 70 122.62109375 86 c 0
 141.155273438 102 152.1640625 121 155.649414062 143 c 2
 178.456054688 287 l 1
 98.4560546875 287 l 1
 108.434570312 350 l 1
 188.434570312 350 l 1
 214.884765625 517 l 2
 223.4375 571 249.723632812 617 293.7421875 655 c 0
 337.760742188 693 386.76953125 712 440.76953125 712 c 0
 494.76953125 712 537.760742188 693 569.7421875 655 c 0
 601.723632812 617 613.4375 571 604.884765625 517 c 1
 540.884765625 517 l 1
 546.586914062 553 538.337890625 583 516.456054688 609 c 0
 494.57421875 635 466.6328125 648 430.6328125 648 c 0
 394.6328125 648 361.57421875 635 331.456054688 609 c 0
 301.337890625 583 284.586914062 553 278.884765625 517 c 2
 252.434570312 350 l 1
 450.434570312 350 l 1
 440.456054688 287 l 1
 242.456054688 287 l 1
 219.649414062 143 l 2
 215.213867188 115 201.9375 88 180.978515625 63 c 1
 531.978515625 63 l 1
EndSplineSet
EndChar

StartChar: currency
Encoding: 164 164 97
GlifName: currency
Width: 544
Flags: W
HStem: 192 60<254.671 376.792> 448 60<279.165 401.452>
VStem: 169.435 60<281.894 399.357> 426.435 60<300.096 418.106>
LayerCount: 2
Fore
SplineSet
408.36328125 419 m 0
 392.372070312 438 370.956054688 448 343.956054688 448 c 0
 316.956054688 448 291.372070312 438 269.36328125 419 c 0
 247.353515625 400 233.7109375 377 229.434570312 350 c 0
 225.158203125 323 231.515625 300 247.505859375 281 c 0
 263.497070312 262 285.913085938 252 312.913085938 252 c 0
 339.913085938 252 364.497070312 262 386.505859375 281 c 0
 408.515625 300 422.158203125 323 426.434570312 350 c 0
 430.7109375 377 424.353515625 400 408.36328125 419 c 0
505.52734375 540 m 1
 540.716796875 497 l 1
 472.372070312 438 l 1
 486.25390625 412 491.661132812 383 486.434570312 350 c 0
 481.208007812 317 466.456054688 287 444.337890625 261 c 1
 494.15234375 203 l 1
 445.5 161 l 1
 395.686523438 219 l 1
 366.834960938 201 336.41015625 192 303.41015625 192 c 0
 270.41015625 192 241.834960938 201 218.686523438 219 c 1
 151.5 161 l 1
 115.15234375 203 l 1
 182.337890625 261 l 1
 168.456054688 287 164.208007812 317 169.434570312 350 c 0
 174.661132812 383 188.25390625 412 210.372070312 438 c 1
 161.716796875 497 l 1
 211.52734375 540 l 1
 260.182617188 481 l 1
 289.034179688 499 320.458984375 508 353.458984375 508 c 0
 386.458984375 508 414.034179688 499 437.182617188 481 c 1
 505.52734375 540 l 1
EndSplineSet
EndChar

StartChar: yen
Encoding: 165 165 98
GlifName: yen
Width: 521
Flags: W
HStem: 0 21G<231 294.168> 145 60<123.469 253.966 323.469 453.966> 282 60<145.167 260.167 370.167 475.664> 692 20G<125.77 200.977 540.227 621.77>
VStem: 231 60<0 60>
LayerCount: 2
Fore
SplineSet
135.6640625 282 m 1
 145.166992188 342 l 1
 260.166992188 342 l 1
 125.76953125 712 l 1
 193.76953125 712 l 1
 318.810546875 365 l 1
 553.76953125 712 l 1
 621.76953125 712 l 1
 370.166992188 342 l 1
 485.166992188 342 l 1
 475.6640625 282 l 1
 335.6640625 282 l 1
 323.46875 205 l 1
 463.46875 205 l 1
 453.965820312 145 l 1
 313.965820312 145 l 1
 291 0 l 1
 231 0 l 1
 253.965820312 145 l 1
 113.965820312 145 l 1
 123.46875 205 l 1
 263.46875 205 l 1
 275.6640625 282 l 1
 135.6640625 282 l 1
EndSplineSet
EndChar

StartChar: brokenbar
Encoding: 166 166 99
GlifName: brokenbar
Width: 265
Flags: W
VStem: 68.1553 60<-220 -160> 137.845 60<160 220> 158.435 60<350 410> 228.124 60<730 790>
LayerCount: 2
Fore
SplineSet
68.1552734375 -220 m 1xd0
 137.844726562 220 l 1
 197.844726562 220 l 1
 128.155273438 -220 l 1
 68.1552734375 -220 l 1xd0
158.434570312 350 m 1xb0
 228.124023438 790 l 1
 288.124023438 790 l 1
 218.434570312 350 l 1
 158.434570312 350 l 1xb0
EndSplineSet
EndChar

StartChar: section
Encoding: 167 167 100
GlifName: section
Width: 531
Flags: W
HStem: -90 57<196.939 330.408> 158 57<236.495 353.625> 407 57<275.933 394.02> 655 57<299.628 432.229>
VStem: 113.82 57<-4.10717 62> 460.695 56<560 626.107>
LayerCount: 2
Fore
SplineSet
378.76953125 712 m 0
 422.76953125 712 459.393554688 697 486.642578125 667 c 0
 513.890625 637 523.34765625 602 516.6953125 560 c 1
 460.6953125 560 l 1
 464.813476562 586 457.297851562 608 439.306640625 627 c 0
 421.31640625 646 398.7421875 655 369.7421875 655 c 0
 340.7421875 655 314.31640625 646 290.306640625 627 c 0
 266.297851562 608 253.813476562 586 249.6953125 560 c 0
 245.577148438 534 250.934570312 511 268.924804688 492 c 0
 286.916015625 473 310.490234375 464 339.490234375 464 c 0
 383.490234375 464 420.114257812 449 447.36328125 419 c 0
 474.611328125 389 484.91015625 353 478.2578125 311 c 0
 471.60546875 269 449.903320312 233 413.15234375 203 c 0
 406.202148438 197 397.41015625 192 389.618164062 187 c 1
 395.826171875 182 402.875976562 176 407.92578125 170 c 0
 435.173828125 140 444.471679688 104 437.8203125 62 c 0
 431.16796875 20 410.624023438 -15 373.873046875 -45 c 0
 337.12109375 -75 295.745117188 -90 251.745117188 -90 c 0
 207.745117188 -90 171.12109375 -75 143.873046875 -45 c 0
 116.624023438 -15 107.16796875 20 113.8203125 62 c 1
 170.8203125 62 l 1
 166.702148438 36 172.217773438 14 190.208007812 -5 c 0
 208.19921875 -24 231.7734375 -33 260.7734375 -33 c 0
 289.7734375 -33 315.19921875 -24 339.208007812 -5 c 0
 363.217773438 14 377.702148438 36 381.8203125 62 c 0
 385.9375 88 378.581054688 111 360.58984375 130 c 0
 342.599609375 149 320.024414062 158 291.024414062 158 c 0
 247.024414062 158 210.400390625 173 183.15234375 203 c 0
 155.903320312 233 145.60546875 269 152.2578125 311 c 0
 158.91015625 353 180.611328125 389 217.36328125 419 c 0
 224.313476562 425 232.263671875 431 240.055664062 436 c 1
 233.84765625 441 227.639648438 446 222.58984375 452 c 0
 195.340820312 482 186.04296875 518 192.6953125 560 c 0
 199.34765625 602 219.890625 637 256.642578125 667 c 0
 293.393554688 697 334.76953125 712 378.76953125 712 c 0
330.462890625 407 m 0
 301.462890625 407 275.037109375 398 251.02734375 379 c 0
 227.018554688 360 213.534179688 338 209.2578125 311 c 0
 204.981445312 284 211.497070312 262 229.487304688 243 c 0
 247.478515625 224 271.052734375 215 300.052734375 215 c 0
 329.052734375 215 355.478515625 224 379.487304688 243 c 0
 403.497070312 262 416.981445312 284 421.2578125 311 c 0
 425.534179688 338 419.018554688 360 401.02734375 379 c 0
 383.037109375 398 359.462890625 407 330.462890625 407 c 0
EndSplineSet
EndChar

StartChar: dieresis
Encoding: 168 168 101
GlifName: dieresis
Width: 427
Flags: W
HStem: 630 80<166.999 232.393 408.999 473.394>
VStem: 159.117 322
LayerCount: 2
Fore
SplineSet
205.453125 710 m 4
 216.453125 710 225.977539062 707 232.7109375 699 c 4
 239.443359375 691 240.859375 681 239.1171875 670 c 4
 237.375 659 232.950195312 650 223.682617188 642 c 4
 214.416015625 634 203.782226562 630 192.782226562 630 c 4
 181.782226562 630 173.416015625 634 166.682617188 642 c 4
 159.950195312 650 157.375 659 159.1171875 670 c 4
 160.859375 681 166.443359375 691 175.7109375 699 c 4
 184.977539062 707 194.453125 710 205.453125 710 c 4
447.453125 710 m 4
 458.453125 710 466.977539062 707 473.7109375 699 c 4
 480.443359375 691 482.859375 681 481.1171875 670 c 4
 479.375 659 473.950195312 650 464.682617188 642 c 4
 455.416015625 634 445.782226562 630 434.782226562 630 c 4
 423.782226562 630 415.416015625 634 408.682617188 642 c 4
 401.950195312 650 399.375 659 401.1171875 670 c 4
 402.859375 681 408.443359375 691 417.7109375 699 c 4
 426.977539062 707 436.453125 710 447.453125 710 c 4
EndSplineSet
EndChar

StartChar: copyright
Encoding: 169 169 102
GlifName: copyright
Width: 828
Flags: W
HStem: -11 60<310.135 538.306> 152 60<385.769 524.949> 488 60<422.974 562.334> 652 60<402.139 627.459>
LayerCount: 2
Fore
SplineSet
527.76953125 712 m 0
 592.76953125 712 650.235351562 696 701.166992188 664 c 0
 752.098632812 632 789.129882812 588 812.260742188 532 c 0
 835.390625 476 841.887695312 416 831.592773438 351 c 0
 821.297851562 286 795.63671875 225 754.766601562 169 c 0
 713.897460938 113 663.086914062 70 602.018554688 38 c 0
 540.950195312 6 478.2578125 -11 413.2578125 -11 c 0
 348.2578125 -11 289.950195312 6 239.018554688 38 c 0
 188.086914062 70 150.897460938 113 127.766601562 169 c 0
 104.63671875 225 98.2978515625 286 108.592773438 351 c 0
 118.887695312 416 144.390625 476 185.260742188 532 c 0
 226.129882812 588 277.098632812 632 338.166992188 664 c 0
 399.235351562 696 462.76953125 712 527.76953125 712 c 0
518.266601562 652 m 0
 435.266601562 652 358.514648438 622 290.170898438 563 c 0
 221.826171875 504 181.739257812 434 168.592773438 351 c 0
 155.447265625 268 173.04296875 196 222.698242188 137 c 0
 272.353515625 78 339.760742188 49 422.760742188 49 c 0
 505.760742188 49 581.353515625 78 649.698242188 137 c 0
 718.04296875 196 758.447265625 268 771.592773438 351 c 0
 784.739257812 434 766.826171875 504 717.170898438 563 c 0
 667.514648438 622 601.266601562 652 518.266601562 652 c 0
505.794921875 548 m 0
 558.794921875 548 599.78515625 529 628.766601562 491 c 1
 578.956054688 448 l 1
 560.232421875 475 533.291992188 488 496.291992188 488 c 0
 459.291992188 488 427.07421875 474 399.956054688 448 c 0
 372.837890625 422 355.611328125 389 349.434570312 350 c 0
 343.2578125 311 350.03125 278 368.913085938 252 c 0
 387.794921875 226 415.577148438 212 452.577148438 212 c 0
 489.577148438 212 520.63671875 225 547.913085938 252 c 1
 583.944335938 208 l 1
 542.92578125 170 496.07421875 152 443.07421875 152 c 0
 389.07421875 152 348.083984375 171 319.102539062 209 c 0
 290.12109375 247 280.565429688 294 289.434570312 350 c 0
 298.303710938 406 322.748046875 453 363.766601562 491 c 0
 404.78515625 529 451.794921875 548 505.794921875 548 c 0
EndSplineSet
EndChar

StartChar: ordfeminine
Encoding: 170 170 103
GlifName: ordfeminine
Width: 377
Flags: W
HStem: 393 55<200.356 317.74> 651 56<224.715 344.265> 680 20G<388.701 443.869>
VStem: 122.111 321.758
LayerCount: 2
Fore
SplineSet
391.869140625 700 m 1xb0
 443.869140625 700 l 1xb0
 396.353515625 400 l 1
 344.353515625 400 l 1
 350.53125 439 l 1
 322.62109375 408 287.245117188 393 244.245117188 393 c 0
 202.245117188 393 168.62109375 408 145.372070312 438 c 0
 122.282226562 469 115.142578125 506 122.111328125 550 c 0
 129.080078125 594 148.098632812 632 180.850585938 662 c 0
 213.6015625 692 250.977539062 707 293.977539062 707 c 0xd0
 335.977539062 707 367.443359375 691 385.375 659 c 5
 391.869140625 700 l 1xb0
288.108398438 651 m 0xd0
 260.108398438 651 236.682617188 642 215.514648438 622 c 0
 194.34765625 602 182.705078125 579 178.111328125 550 c 0
 173.518554688 521 177.875 498 192.708007812 478 c 0
 207.540039062 458 227.956054688 448 255.956054688 448 c 0
 282.956054688 448 307.540039062 458 327.708007812 478 c 0
 347.875 498 359.518554688 521 364.111328125 550 c 0
 368.705078125 579 364.34765625 602 350.514648438 622 c 0
 336.682617188 642 315.108398438 651 288.108398438 651 c 0xd0
EndSplineSet
EndChar

StartChar: guillemotleft
Encoding: 171 171 104
GlifName: guillemotleft
Width: 555
Flags: W
LayerCount: 2
Fore
SplineSet
356.568359375 515 m 5
 392.916015625 473 l 5
 190.198242188 298 l 5
 337.639648438 124 l 5
 287.829101562 81 l 5
 105.198242188 298 l 5
 356.568359375 515 l 5
533.568359375 515 m 5
 569.916015625 473 l 5
 367.198242188 298 l 5
 514.639648438 124 l 5
 464.829101562 81 l 5
 282.198242188 298 l 5
 533.568359375 515 l 5
EndSplineSet
EndChar

StartChar: logicalnot
Encoding: 172 172 105
GlifName: logicalnot
Width: 625
Flags: W
HStem: 296 60<189.385 479.882>
VStem: 464.835 60<201 261>
LayerCount: 2
Fore
SplineSet
179.881835938 296 m 1
 189.384765625 356 l 1
 549.384765625 356 l 5
 524.834960938 201 l 5
 464.834960938 201 l 1
 479.881835938 296 l 1
 179.881835938 296 l 1
EndSplineSet
EndChar

StartChar: uni00AD
Encoding: 173 173 106
GlifName: uni00A_D_
Width: 425
Flags: W
HStem: 268 60<114.95 405.447>
VStem: 105.447 309.503
LayerCount: 2
Fore
SplineSet
105.447265625 268 m 1
 114.950195312 328 l 1
 414.950195312 328 l 1
 405.447265625 268 l 1
 105.447265625 268 l 1
EndSplineSet
EndChar

StartChar: registered
Encoding: 174 174 107
GlifName: registered
Width: 631
Flags: W
HStem: 176 60<263.885 449.774> 531 59<372.103 437.431> 652 60<322.832 508.734>
VStem: 275.04 60<297 357> 407.04 64<297 361> 443.351 60<479.237 521.764>
LayerCount: 2
Fore
SplineSet
428.76953125 712 m 0xf0
 502.76953125 712 561.493164062 685 605.2578125 633 c 0
 649.021484375 581 666.04296875 518 654.322265625 444 c 0
 642.602539062 370 605.465820312 306 545.229492188 254 c 0
 484.994140625 202 417.875976562 176 343.875976562 176 c 0
 269.875976562 176 210.994140625 202 167.229492188 254 c 0
 123.465820312 306 106.602539062 370 118.322265625 444 c 0
 130.04296875 518 167.021484375 581 227.2578125 633 c 0
 287.493164062 685 354.76953125 712 428.76953125 712 c 0xf0
419.266601562 652 m 0
 362.266601562 652 310.098632812 632 262.60546875 591 c 0
 215.111328125 550 187.350585938 501 178.322265625 444 c 0
 169.294921875 387 181.534179688 338 216.040039062 297 c 0
 250.546875 256 296.37890625 236 353.37890625 236 c 0
 410.37890625 236 462.546875 256 510.040039062 297 c 0
 557.534179688 338 585.294921875 387 594.322265625 444 c 0
 603.350585938 501 591.111328125 550 556.60546875 591 c 0
 522.098632812 632 476.266601562 652 419.266601562 652 c 0
321.447265625 590 m 1
 429.447265625 590 l 2
 452.447265625 590 472.021484375 581 487.170898438 563 c 0
 502.319335938 545 506.993164062 524 503.350585938 501 c 0xf4
 500.024414062 480 491.173828125 462 478.797851562 447 c 0
 466.421875 432 452.6796875 421 438.729492188 415 c 1
 471.040039062 297 l 1
 407.040039062 297 l 1xf8
 376.095703125 411 l 1
 353.095703125 411 l 1
 335.040039062 297 l 1
 275.040039062 297 l 1
 321.447265625 590 l 1
372.102539062 531 m 1
 362.598632812 471 l 1
 406.598632812 471 l 2
 415.598632812 471 424.07421875 474 430.866210938 479 c 0
 437.658203125 484 441.924804688 492 443.350585938 501 c 0
 444.776367188 510 442.884765625 517 437.676757812 522 c 0
 432.46875 527 425.102539062 531 416.102539062 531 c 2
 372.102539062 531 l 1
EndSplineSet
EndChar

StartChar: macron
Encoding: 175 175 108
GlifName: macron
Width: 305
Flags: W
HStem: 580 60<104.366 394.863>
VStem: 94.8633 309.503
LayerCount: 2
Fore
SplineSet
94.86328125 580 m 1
 104.366210938 640 l 1
 404.366210938 640 l 1
 394.86328125 580 l 1
 94.86328125 580 l 1
EndSplineSet
EndChar

StartChar: degree
Encoding: 176 176 109
GlifName: degree
Width: 370
Flags: W
HStem: 453 60<218.549 322.145> 658 59<235.464 337.375>
VStem: 145.655 265
LayerCount: 2
Fore
SplineSet
299.561523438 717 m 0
 336.561523438 717 364.661132812 705 386.54296875 679 c 0
 408.424804688 653 416.514648438 622 410.655273438 585 c 0
 404.794921875 548 386.884765625 517 356.766601562 491 c 0
 326.6484375 465 294.748046875 453 257.748046875 453 c 0
 220.748046875 453 191.6484375 465 169.766601562 491 c 0
 147.884765625 517 139.794921875 548 145.655273438 585 c 0
 151.514648438 622 169.424804688 653 199.54296875 679 c 0
 229.661132812 705 262.561523438 717 299.561523438 717 c 0
290.216796875 658 m 0
 270.216796875 658 250.950195312 650 234.732421875 636 c 0
 218.514648438 622 208.822265625 605 205.655273438 585 c 0
 202.487304688 565 206.794921875 548 218.577148438 534 c 0
 230.360351562 520 247.250976562 513 267.250976562 513 c 0
 287.250976562 513 305.360351562 520 321.577148438 534 c 0
 337.794921875 548 347.487304688 565 350.655273438 585 c 0
 353.822265625 605 349.514648438 622 337.732421875 636 c 0
 325.950195312 650 310.216796875 658 290.216796875 658 c 0
EndSplineSet
EndChar

StartChar: plusminus
Encoding: 177 177 110
GlifName: plusminus
Width: 625
Flags: W
HStem: 0 60<97.5029 538> 312 61<177.077 332.416 402.077 557.416>
VStem: 305.016 60<139 199> 369.637 60<487 547>
LayerCount: 2
Fore
SplineSet
88 0 m 1
 97.5029296875 60 l 1
 547.502929688 60 l 1
 538 0 l 1
 88 0 l 1
167.416015625 312 m 1
 177.077148438 373 l 1
 342.077148438 373 l 1
 369.63671875 547 l 1
 429.63671875 547 l 1
 402.077148438 373 l 1
 567.077148438 373 l 1
 557.416015625 312 l 1
 392.416015625 312 l 1
 365.015625 139 l 1
 305.015625 139 l 1
 332.416015625 312 l 1
 167.416015625 312 l 1
EndSplineSet
EndChar

StartChar: uni00B2
Encoding: 178 178 111
GlifName: uni00B_2
Width: 364
Flags: W
HStem: 379 60<190.531 363.027> 747 60<232.522 334.818>
VStem: 97.0273 311.041
LayerCount: 2
Fore
SplineSet
295.81640625 807 m 0
 332.81640625 807 362.756835938 794 384.797851562 769 c 0
 406.837890625 744 413.76953125 712 408.068359375 676 c 0
 403 644 382.931640625 612 349.021484375 581 c 2
 190.53125 439 l 1
 372.53125 439 l 1
 363.02734375 379 l 1
 97.02734375 379 l 1
 106.53125 439 l 1
 311.514648438 622 l 2
 334.840820312 643 346.534179688 660 349.068359375 676 c 0
 352.552734375 698 346.245117188 715 334.303710938 728 c 0
 322.36328125 741 307.313476562 747 288.313476562 747 c 0
 270.313476562 747 254.36328125 741 239.779296875 731 c 0
 225.1953125 721 215.135742188 708 208.6015625 692 c 1
 152.661132812 705 l 1
 162.25390625 734 181.055664062 758 208.22265625 778 c 0
 235.390625 798 264.81640625 807 295.81640625 807 c 0
EndSplineSet
EndChar

StartChar: uni00B3
Encoding: 179 179 112
GlifName: uni00B_3
Width: 359
Flags: W
HStem: 373 60<196.902 312.586> 570 60<246.782 323.812> 711 21G<176.621 233.482> 747 60<241.431 346.847>
VStem: 339.351 60<460.029 551.387>
LayerCount: 2
Fore
SplineSet
308.81640625 807 m 0
 343.81640625 807 371.916015625 795 393.431640625 773 c 0
 414.946289062 751 422.51171875 723 417.28515625 690 c 0
 414.909179688 675 407.534179688 660 397.158203125 645 c 0
 386.782226562 630 371.723632812 617 352.505859375 603 c 1
 368.60546875 591 380.387695312 577 388.853515625 561 c 0
 398.844726562 542 402.676757812 522 399.350585938 501 c 0
 393.6484375 465 374.897460938 435 343.9375 410 c 0
 312.977539062 385 279.077148438 373 241.077148438 373 c 0
 213.077148438 373 188.186523438 380 167.561523438 395 c 0
 146.9375 410 131.947265625 429 126.58984375 452 c 1
 186.7578125 472 l 1
 190.856445312 460 199.2734375 450 211.1640625 443 c 0
 223.055664062 436 236.580078125 433 251.580078125 433 c 0
 272.580078125 433 292.53125 439 309.58984375 452 c 0
 326.6484375 465 336.182617188 481 339.350585938 501 c 0
 342.518554688 521 338.369140625 539 324.427734375 552 c 0
 311.329101562 564 295.279296875 570 273.279296875 570 c 2
 237.279296875 570 l 1
 246.782226562 630 l 1
 282.782226562 630 l 2
 299.782226562 630 315.732421875 636 331.474609375 647 c 0
 346.216796875 658 355.592773438 673 358.28515625 690 c 0
 361.135742188 708 356.1953125 721 344.779296875 731 c 0
 333.36328125 741 319.313476562 747 300.313476562 747 c 0
 284.313476562 747 270.837890625 744 257.729492188 737 c 0
 245.779296875 731 236.353515625 722 230.611328125 711 c 1
 176.62109375 730 l 1
 188.10546875 752 207.272460938 772 231.490234375 786 c 0
 255.708007812 800 282.81640625 807 308.81640625 807 c 0
EndSplineSet
EndChar

StartChar: acute
Encoding: 180 180 113
GlifName: acute
Width: 210
Flags: W
HStem: 574 126
VStem: 94.9131 217.956
LayerCount: 2
Fore
SplineSet
94.9130859375 574 m 1
 223.869140625 700 l 1
 312.869140625 700 l 1
 170.913085938 574 l 1
 94.9130859375 574 l 1
EndSplineSet
EndChar

StartChar: mu
Encoding: 181 181 114
GlifName: mu
Width: 559
Flags: W
HStem: -200 21G<31.3232 94.4909> -12 60<209.449 358.292> 0 21G<422 485.168> 480 20G<139.025 202.192 498.025 561.192>
VStem: 31.3232 60<-200 -140> 142.192 60<440 500> 422 60<0 60> 501.192 60<440 500>
LayerCount: 2
Fore
SplineSet
561.192382812 500 m 1xdf
 482 0 l 1
 422 0 l 1xbf
 431.978515625 63 l 1
 387.05859375 13 333.099609375 -12 271.099609375 -12 c 0
 209.099609375 -12 162.05859375 13 132.978515625 63 c 1
 91.3232421875 -200 l 1
 31.3232421875 -200 l 1
 142.192382812 500 l 5
 202.192382812 500 l 5
 159.745117188 232 l 2
 150.716796875 175 158.748046875 131 181.521484375 98 c 0
 204.294921875 65 237.602539062 48 280.602539062 48 c 0
 323.602539062 48 361.294921875 65 394.521484375 98 c 0
 427.748046875 131 449.716796875 175 458.745117188 232 c 2
 501.192382812 500 l 1
 561.192382812 500 l 1xdf
EndSplineSet
EndChar

StartChar: paragraph
Encoding: 182 182 115
GlifName: paragraph
Width: 536
Flags: W
HStem: 640 60<421.366 475.366>
VStem: 246.695 60<-84 -24> 360.695 60<-84 -24>
LayerCount: 2
Fore
SplineSet
360.869140625 700 m 2
 370.869140625 700 l 1
 544.869140625 700 l 1
 420.6953125 -84 l 1
 360.6953125 -84 l 1
 475.366210938 640 l 1
 421.366210938 640 l 1
 306.6953125 -84 l 1
 246.6953125 -84 l 1
 302.129882812 266 l 1
 292.129882812 266 l 2
 232.129882812 266 183.614257812 288 148.266601562 330 c 0
 112.918945312 372 99.9970703125 423 109.5 483 c 0
 119.002929688 543 148.23828125 595 196.890625 637 c 0
 245.54296875 679 300.869140625 700 360.869140625 700 c 2
EndSplineSet
EndChar

StartChar: periodcentered
Encoding: 183 183 116
GlifName: periodcentered
Width: 257
Flags: W
HStem: 275 92<143.995 215.45>
VStem: 133.842 92
LayerCount: 2
Fore
SplineSet
225.841796875 321 m 0
 223.782226562 308 218.198242188 298 207.7734375 289 c 0
 197.34765625 280 185.555664062 275 172.555664062 275 c 0
 159.555664062 275 149.34765625 280 141.7734375 289 c 0
 134.198242188 298 131.782226562 308 133.841796875 321 c 0
 135.900390625 334 141.642578125 345 152.068359375 354 c 0
 162.493164062 363 174.126953125 367 187.126953125 367 c 0
 200.126953125 367 210.493164062 363 218.068359375 354 c 0
 225.642578125 345 227.900390625 334 225.841796875 321 c 0
EndSplineSet
EndChar

StartChar: cedilla
Encoding: 184 184 117
GlifName: cedilla
Width: 211
Flags: W
HStem: -210 57<5.35585 125.559>
VStem: -21.668 242.581
LayerCount: 2
Fore
SplineSet
192.2265625 33 m 1
 217.791992188 5 227.407226562 -29 220.913085938 -70 c 0
 214.736328125 -109 195.509765625 -142 164.233398438 -169 c 0
 132.95703125 -196 97.7392578125 -210 58.7392578125 -210 c 0
 26.7392578125 -210 0.1650390625 -201 -21.66796875 -181 c 1
 6.92578125 -152 22.3017578125 -137 22.3017578125 -137 c 5
 34.7177734375 -147 49.767578125 -153 67.767578125 -153 c 0
 89.767578125 -153 111.192382812 -144 129.7265625 -128 c 0
 148.260742188 -112 160.428710938 -92 163.913085938 -70 c 0
 166.447265625 -54 164.823242188 -39 158.881835938 -26 c 0
 152.94140625 -13 143.524414062 -3 130.633789062 4 c 1
 192.2265625 33 l 1
EndSplineSet
EndChar

StartChar: uni00B9
Encoding: 185 185 118
GlifName: uni00B_9
Width: 287
Flags: W
VStem: 195.187 60<380 440>
LayerCount: 2
Fore
SplineSet
261.708007812 800 m 1
 321.708007812 800 l 1
 255.186523438 380 l 1
 195.186523438 380 l 1
 249.353515625 722 l 1
 172.325195312 665 l 1
 141.611328125 711 l 1
 261.708007812 800 l 1
EndSplineSet
EndChar

StartChar: ordmasculine
Encoding: 186 186 119
GlifName: ordmasculine
Width: 370
Flags: W
HStem: 393 60<200.615 321.491> 647 60<225.308 344.638>
VStem: 121.111 303
LayerCount: 2
Fore
SplineSet
297.977539062 707 m 0
 341.977539062 707 375.6015625 692 398.850585938 662 c 0
 422.098632812 632 431.080078125 594 424.111328125 550 c 0
 417.142578125 506 396.124023438 468 363.372070312 438 c 0
 330.62109375 408 292.245117188 393 248.245117188 393 c 0
 204.245117188 393 169.62109375 408 146.372070312 438 c 0
 123.124023438 468 114.142578125 506 121.111328125 550 c 0
 128.080078125 594 149.098632812 632 181.850585938 662 c 0
 214.6015625 692 253.977539062 707 297.977539062 707 c 0
288.474609375 647 m 0
 261.474609375 647 238.048828125 638 218.040039062 619 c 0
 198.030273438 600 185.387695312 577 181.111328125 550 c 0
 176.834960938 523 182.034179688 499 196.024414062 480 c 0
 210.015625 461 230.748046875 453 257.748046875 453 c 0
 284.748046875 453 308.015625 461 328.024414062 480 c 0
 348.034179688 499 359.834960938 523 364.111328125 550 c 0
 368.387695312 577 364.030273438 600 350.040039062 619 c 0
 336.048828125 638 315.474609375 647 288.474609375 647 c 0
EndSplineSet
EndChar

StartChar: guillemotright
Encoding: 187 187 120
GlifName: guillemotright
Width: 555
Flags: W
LayerCount: 2
Fore
SplineSet
182.568359375 515 m 5
 132.916015625 473 l 5
 280.198242188 298 l 5
 77.6396484375 124 l 5
 113.829101562 81 l 5
 365.198242188 298 l 5
 182.568359375 515 l 5
358.568359375 515 m 5
 309.916015625 473 l 5
 457.198242188 298 l 5
 254.639648438 124 l 5
 289.829101562 81 l 5
 542.198242188 298 l 5
 358.568359375 515 l 5
EndSplineSet
EndChar

StartChar: onequarter
Encoding: 188 188 121
GlifName: onequarter
Width: 829
Flags: W
HStem: 0 21G<164.344 207.162 676 739.168> 91 60<580.916 690.413 759.916 819.413> 680 20G<218.881 305.869 700.707 743.525>
VStem: 179.348 60<280 340> 676 60<0 60> 718.764 60<210 270>
LayerCount: 2
Fore
SplineSet
683.521484375 420 m 1xf8
 733.403320312 394 l 1
 580.916015625 151 l 1
 699.916015625 151 l 1
 718.763671875 270 l 1
 778.763671875 270 l 1xf4
 759.916015625 151 l 1
 828.916015625 151 l 1
 819.413085938 91 l 1
 750.413085938 91 l 1
 736 0 l 1
 676 0 l 1
 690.413085938 91 l 1
 505.413085938 91 l 1
 514.916015625 151 l 1
 683.521484375 420 l 1xf8
717.869140625 700 m 5
 761.484375 666 l 5
 190 0 l 5
 146.384765625 34 l 5
 717.869140625 700 l 5
245.869140625 700 m 1
 305.869140625 700 l 1
 239.34765625 280 l 1
 179.34765625 280 l 1
 233.514648438 622 l 1
 156.487304688 565 l 1
 125.772460938 611 l 1
 245.869140625 700 l 1
EndSplineSet
EndChar

StartChar: onehalf
Encoding: 189 189 122
GlifName: onehalf
Width: 862
Flags: W
HStem: 0 60<628.503 801> 367 60<669.376 772.632> 680 20G<218.881 305.869 700.707 743.525>
VStem: 179.348 60<280 340>
LayerCount: 2
Fore
SplineSet
733.629882812 427 m 0
 770.629882812 427 800.571289062 414 822.611328125 389 c 0
 844.65234375 364 851.583984375 332 845.881835938 296 c 0
 840.813476562 264 820.745117188 232 786.834960938 201 c 2
 628.502929688 60 l 1
 810.502929688 60 l 1
 801 0 l 1
 535 0 l 1
 544.502929688 60 l 1
 749.329101562 242 l 2
 772.655273438 263 783.34765625 280 785.881835938 296 c 0
 789.366210938 318 784.05859375 335 772.118164062 348 c 0
 760.176757812 361 745.126953125 367 726.126953125 367 c 0
 708.126953125 367 692.334960938 362 677.750976562 352 c 0
 663.166992188 342 652.950195312 328 646.416015625 312 c 1
 590.474609375 325 l 1
 600.068359375 354 618.7109375 377 645.87890625 397 c 0
 673.045898438 417 702.629882812 427 733.629882812 427 c 0
717.869140625 700 m 5
 761.484375 666 l 5
 190 0 l 5
 146.384765625 34 l 5
 717.869140625 700 l 5
245.869140625 700 m 1
 305.869140625 700 l 1
 239.34765625 280 l 1
 179.34765625 280 l 1
 233.514648438 622 l 1
 156.487304688 565 l 1
 125.772460938 611 l 1
 245.869140625 700 l 1
EndSplineSet
EndChar

StartChar: threequarters
Encoding: 190 190 123
GlifName: threequarters
Width: 901
Flags: W
HStem: 0 21G<236.344 279.162 748 811.168> 91 60<652.916 762.413 831.916 891.413> 273 60<181.064 296.748> 470 60<230.943 307.974> 647 60<225.592 331.009> 680 20G<772.707 815.525>
VStem: 323.671 59.8408<360.029 451.388> 748 60<0 60> 790.764 60<210 270>
LayerCount: 2
Fore
SplineSet
755.521484375 420 m 1xf3
 805.403320312 394 l 1
 652.916015625 151 l 1
 771.916015625 151 l 1
 790.763671875 270 l 1
 850.763671875 270 l 1xf280
 831.916015625 151 l 1
 900.916015625 151 l 1
 891.413085938 91 l 1
 822.413085938 91 l 1
 808 0 l 1
 748 0 l 1
 762.413085938 91 l 1
 577.413085938 91 l 1
 586.916015625 151 l 1
 755.521484375 420 l 1xf3
789.869140625 700 m 5xf6
 833.484375 666 l 5
 262 0 l 5
 218.384765625 34 l 5
 789.869140625 700 l 5xf6
292.977539062 707 m 0xfa
 327.977539062 707 356.077148438 695 377.592773438 673 c 0
 399.108398438 651 406.673828125 623 401.447265625 590 c 0
 399.071289062 575 391.6953125 560 381.319335938 545 c 0
 370.943359375 530 355.7265625 516 336.508789062 502 c 1
 352.608398438 490 364.390625 476 372.856445312 460 c 0
 382.84765625 441 386.837890625 422 383.51171875 401 c 0
 377.810546875 365 359.05859375 335 328.099609375 310 c 0
 297.139648438 285 263.239257812 273 225.239257812 273 c 0
 197.239257812 273 172.34765625 280 151.723632812 295 c 0
 131.099609375 310 116.108398438 329 110.750976562 352 c 1
 170.918945312 372 l 1
 175.018554688 360 183.434570312 350 195.326171875 343 c 0
 207.216796875 336 220.7421875 333 235.7421875 333 c 0
 256.7421875 333 276.692382812 339 293.750976562 352 c 0
 310.810546875 365 320.502929688 382 323.670898438 402 c 0
 326.837890625 422 322.53125 439 308.58984375 452 c 0
 295.490234375 464 279.440429688 470 257.440429688 470 c 2
 221.440429688 470 l 1
 230.943359375 530 l 1
 266.943359375 530 l 2
 283.943359375 530 299.89453125 536 315.63671875 547 c 0
 330.37890625 558 339.75390625 573 342.447265625 590 c 0
 345.297851562 608 340.356445312 621 328.940429688 631 c 0
 317.524414062 641 303.474609375 647 284.474609375 647 c 0
 268.474609375 647 255 644 241.890625 637 c 0
 229.940429688 631 220.514648438 622 214.772460938 611 c 1
 160.782226562 630 l 1
 172.266601562 652 191.434570312 672 215.651367188 686 c 0
 239.869140625 700 266.977539062 707 292.977539062 707 c 0xfa
EndSplineSet
EndChar

StartChar: questiondown
Encoding: 191 191 124
GlifName: questiondown
Width: 456
Flags: W
HStem: -213 60<136.696 287.433> 421 92<291.119 361.64>
VStem: 275.05 60<256 316>
LayerCount: 2
Fore
SplineSet
280.965820312 467 m 0
 283.024414062 480 288.766601562 491 299.192382812 500 c 0
 309.618164062 509 321.250976562 513 334.250976562 513 c 0
 347.250976562 513 356.618164062 509 364.192382812 500 c 0
 371.766601562 491 375.024414062 480 372.965820312 467 c 0
 370.90625 454 364.322265625 444 353.897460938 435 c 0
 343.471679688 426 332.6796875 421 319.6796875 421 c 0
 306.6796875 421 296.471679688 426 288.897460938 435 c 0
 281.322265625 444 278.90625 454 280.965820312 467 c 0
199.263671875 -213 m 0
 141.263671875 -213 95.58984375 -192 61.083984375 -151 c 0
 26.578125 -110 13.3388671875 -61 22.5244140625 -3 c 0
 28.8603515625 37 45.5625 73 72.947265625 107 c 0
 100.33203125 141 133.291992188 166 173.142578125 184 c 0
 199.04296875 196 221.89453125 214 240.6953125 238 c 0
 259.497070312 262 270.614257812 288 275.049804688 316 c 1
 335.049804688 316 l 1
 328.713867188 276 312.012695312 240 285.626953125 206 c 0
 259.2421875 172 228.282226562 147 189.58984375 130 c 0
 161.689453125 118 138.6796875 99 118.87890625 75 c 0
 99.0771484375 51 86.9599609375 25 82.5244140625 -3 c 0
 76.03125 -44 85.646484375 -78 110.89453125 -108 c 0
 136.142578125 -138 167.767578125 -153 208.767578125 -153 c 0
 242.767578125 -153 274.509765625 -142 304.8359375 -121 c 0
 335.161132812 -100 358.4375 -73 371.665039062 -40 c 1
 429.081054688 -50 l 1
 410.63671875 -97 379.301757812 -137 336.549804688 -167 c 0
 293.797851562 -197 248.263671875 -213 199.263671875 -213 c 0
EndSplineSet
EndChar

StartChar: Agrave
Encoding: 192 192 125
GlifName: A_grave
Width: 607
Flags: W
HStem: 0 21G<13 88.3872 525.948 595> 205 60<215.972 475.972> 680 20G<374.244 449.159>
VStem: 530 65<0 65>
LayerCount: 2
Fore
SplineSet
384.837890625 744 m 1
 280.953125 871 l 1
 369.953125 871 l 1
 460.837890625 744 l 1
 384.837890625 744 l 1
215.971679688 265 m 1
 475.971679688 265 l 1
 402.040039062 619 l 1
 215.971679688 265 l 1
184.46875 205 m 1
 78 0 l 1
 13 0 l 1
 384.869140625 700 l 1
 444.869140625 700 l 1
 595 0 l 1
 530 0 l 1
 488.46875 205 l 1
 184.46875 205 l 1
EndSplineSet
EndChar

StartChar: Aacute
Encoding: 193 193 126
GlifName: A_acute
Width: 607
Flags: W
HStem: 0 21G<13 88.3872 525.948 595> 205 60<215.972 475.972> 680 20G<374.244 449.159>
VStem: 530 65<0 65>
LayerCount: 2
Fore
SplineSet
215.971679688 265 m 1
 475.971679688 265 l 1
 402.040039062 619 l 1
 215.971679688 265 l 1
184.46875 205 m 1
 78 0 l 1
 13 0 l 1
 384.869140625 700 l 1
 444.869140625 700 l 1
 595 0 l 1
 530 0 l 1
 488.46875 205 l 1
 184.46875 205 l 1
383.837890625 744 m 1
 512.794921875 870 l 1
 601.794921875 870 l 1
 459.837890625 744 l 1
 383.837890625 744 l 1
EndSplineSet
EndChar

StartChar: Acircumflex
Encoding: 194 194 127
GlifName: A_circumflex
Width: 607
Flags: W
HStem: 0 21G<13 88.3872 525.948 595> 205 60<215.972 475.972> 680 20G<374.244 449.159>
VStem: 530 65<0 65>
LayerCount: 2
Fore
SplineSet
255.837890625 744 m 1
 395.794921875 870 l 1
 477.794921875 870 l 1
 577.837890625 744 l 1
 495.837890625 744 l 1
 429.508789062 824 l 5
 337.837890625 744 l 1
 255.837890625 744 l 1
215.971679688 265 m 1
 475.971679688 265 l 1
 402.040039062 619 l 1
 215.971679688 265 l 1
184.46875 205 m 1
 78 0 l 1
 13 0 l 1
 384.869140625 700 l 1
 444.869140625 700 l 1
 595 0 l 1
 530 0 l 1
 488.46875 205 l 1
 184.46875 205 l 1
EndSplineSet
EndChar

StartChar: Atilde
Encoding: 195 195 128
GlifName: A_tilde
Width: 607
Flags: W
HStem: 0 21G<13 88.3872 525.948 595> 205 60<215.972 475.972> 680 20G<374.244 449.159> 742 56<453.568 521.894> 814 56<333.236 399.143>
VStem: 529.409 59<804.423 836> 530 65<0 65>
LayerCount: 2
Fore
SplineSet
476.521484375 742 m 0xfc
 447.521484375 742 425.421875 754 409.22265625 778 c 0
 402.6484375 787 397.07421875 796 391.182617188 803 c 0
 385.291015625 810 378.924804688 814 370.924804688 814 c 0
 349.924804688 814 335.024414062 802 325.064453125 777 c 1
 266.064453125 777 l 1
 273.182617188 803 287.508789062 824 309.359375 842 c 0
 331.2109375 860 354.794921875 870 379.794921875 870 c 0
 404.794921875 870 425.893554688 858 443.092773438 834 c 0
 449.666992188 825 456.2421875 816 462.1328125 809 c 0
 468.024414062 802 476.390625 798 485.390625 798 c 0
 506.390625 798 521.450195312 811 529.409179688 836 c 1
 588.409179688 836 l 1
 580.1328125 809 565.6484375 787 544.797851562 769 c 0
 523.946289062 751 501.521484375 742 476.521484375 742 c 0xfc
215.971679688 265 m 1
 475.971679688 265 l 1
 402.040039062 619 l 1
 215.971679688 265 l 1
184.46875 205 m 1
 78 0 l 1
 13 0 l 1
 384.869140625 700 l 1
 444.869140625 700 l 1
 595 0 l 1
 530 0 l 1xfa
 488.46875 205 l 1
 184.46875 205 l 1
EndSplineSet
EndChar

StartChar: Adieresis
Encoding: 196 196 129
GlifName: A_dieresis
Width: 607
Flags: W
HStem: 0 21G<13 88.3872 525.948 595> 205 60<215.972 475.972> 680 20G<374.244 449.159> 800 80<274.925 340.318 525.071 581.319>
VStem: 530 65<0 65>
LayerCount: 2
Fore
SplineSet
313.377929688 880 m 4
 324.377929688 880 333.903320312 877 340.635742188 869 c 4
 347.369140625 861 348.78515625 851 347.04296875 840 c 4
 345.30078125 829 340.875 820 331.608398438 812 c 4
 322.340820312 804 311.708007812 800 300.708007812 800 c 4
 289.708007812 800 281.340820312 804 274.608398438 812 c 4
 267.875 820 265.30078125 829 267.04296875 840 c 4
 268.78515625 851 274.369140625 861 283.635742188 869 c 4
 292.903320312 877 302.377929688 880 313.377929688 880 c 4
555.377929688 880 m 4
 566.377929688 880 574.903320312 877 581.635742188 869 c 4
 588.369140625 861 590.78515625 851 589.04296875 840 c 4
 587.30078125 829 581.875 820 572.608398438 812 c 4
 563.340820312 804 553.708007812 800 542.708007812 800 c 4
 531.708007812 800 522.340820312 804 515.608398438 812 c 4
 508.875 820 507.30078125 829 509.04296875 840 c 4
 510.78515625 851 515.369140625 861 524.635742188 869 c 4
 533.903320312 877 544.377929688 880 555.377929688 880 c 4
215.971679688 265 m 1
 475.971679688 265 l 1
 402.040039062 619 l 1
 215.971679688 265 l 1
184.46875 205 m 1
 78 0 l 1
 13 0 l 1
 384.869140625 700 l 1
 444.869140625 700 l 1
 595 0 l 1
 530 0 l 1
 488.46875 205 l 1
 184.46875 205 l 1
EndSplineSet
EndChar

StartChar: Aring
Encoding: 197 197 130
GlifName: A_ring
Width: 607
Flags: W
HStem: 0 21G<13 88.3872 525.948 595> 205 60<215.972 475.972> 680 20G<374.244 449.159> 733 46<397.839 466.032> 859 45<400.764 468.671>
VStem: 347.717 46<791.376 851.25> 472.717 46<786.75 846.624> 530 65<0 65>
LayerCount: 2
Fore
SplineSet
446.1796875 904 m 0
 469.1796875 904 488.912109375 896 503.219726562 879 c 0
 517.52734375 862 522.359375 842 518.716796875 819 c 0
 515.07421875 796 503.90625 776 484.213867188 759 c 0
 464.521484375 742 442.095703125 733 419.095703125 733 c 0
 396.095703125 733 377.521484375 742 363.213867188 759 c 0
 348.90625 776 344.07421875 796 347.716796875 819 c 0
 351.359375 842 362.52734375 862 382.219726562 879 c 0
 401.912109375 896 423.1796875 904 446.1796875 904 c 0
439.051757812 859 m 0
 428.051757812 859 418.418945312 855 409.151367188 847 c 0
 399.884765625 839 395.458984375 830 393.716796875 819 c 0
 391.974609375 808 393.548828125 799 400.282226562 791 c 0
 407.014648438 783 415.381835938 779 426.381835938 779 c 0
 437.381835938 779 448.014648438 783 457.282226562 791 c 0
 466.548828125 799 470.974609375 808 472.716796875 819 c 0
 474.458984375 830 472.884765625 839 466.151367188 847 c 0
 459.418945312 855 450.051757812 859 439.051757812 859 c 0
215.971679688 265 m 1
 475.971679688 265 l 1
 402.040039062 619 l 1
 215.971679688 265 l 1
184.46875 205 m 1
 78 0 l 1
 13 0 l 1
 384.869140625 700 l 1
 444.869140625 700 l 1
 595 0 l 1
 530 0 l 1
 488.46875 205 l 1
 184.46875 205 l 1
EndSplineSet
EndChar

StartChar: AE
Encoding: 198 198 131
GlifName: A_E_
Width: 1000
Flags: W
HStem: 0 60<572.503 906> 205 60<312.972 535.469> 331 60<624.929 894.425> 640 60<664.366 1007.37>
LayerCount: 2
Fore
SplineSet
613.869140625 700 m 1
 1016.86914062 700 l 1
 1007.36621094 640 l 1
 664.366210938 640 l 1
 624.928710938 391 l 1
 903.928710938 391 l 1
 894.424804688 331 l 1
 615.424804688 331 l 1
 572.502929688 60 l 1
 915.502929688 60 l 1
 906 0 l 1
 503 0 l 1
 535.46875 205 l 1
 261.46875 205 l 1
 85 0 l 1
 11 0 l 1
 613.869140625 700 l 1
597.397460938 596 m 1
 312.971679688 265 l 1
 544.971679688 265 l 1
 597.397460938 596 l 1
EndSplineSet
EndChar

StartChar: Ccedilla
Encoding: 199 199 132
GlifName: C_cedilla
Width: 683
Flags: W
HStem: -210 57<265.356 385.559> -12 60<292.34 442.697> 652 60<381.456 600.288>
LayerCount: 2
Fore
SplineSet
452.2265625 33 m 1
 477.791992188 5 487.407226562 -29 480.913085938 -70 c 0
 474.736328125 -109 455.509765625 -142 424.233398438 -169 c 0
 392.95703125 -196 357.739257812 -210 318.739257812 -210 c 0
 286.739257812 -210 260.165039062 -201 238.33203125 -181 c 1
 266.92578125 -152 282.301757812 -137 282.301757812 -137 c 5
 294.717773438 -147 309.767578125 -153 327.767578125 -153 c 0
 349.767578125 -153 371.192382812 -144 389.7265625 -128 c 0
 408.260742188 -112 420.428710938 -92 423.913085938 -70 c 0
 426.447265625 -54 423.823242188 -39 417.881835938 -26 c 0
 411.94140625 -13 403.524414062 -3 390.633789062 4 c 1
 452.2265625 33 l 1
504.76953125 712 m 0
 554.76953125 712 600.344726562 703 639.176757812 683 c 0
 678.008789062 663 710.732421875 636 736.030273438 600 c 1
 686.061523438 556 l 1
 642.198242188 620 579.266601562 652 495.266601562 652 c 0
 414.266601562 652 342.673828125 623 281.329101562 564 c 0
 219.984375 505 181.739257812 434 168.434570312 350 c 0
 155.129882812 266 170.884765625 195 213.540039062 136 c 0
 256.1953125 77 318.602539062 48 399.602539062 48 c 0
 483.602539062 48 556.670898438 80 620.807617188 144 c 1
 656.997070312 101 l 1
 620.294921875 65 579.018554688 38 533.850585938 18 c 0
 488.68359375 -2 440.099609375 -12 390.099609375 -12 c 0
 291.099609375 -12 215.642578125 23 163.729492188 93 c 0
 111.81640625 163 92.279296875 248 108.434570312 350 c 0
 124.58984375 452 171.052734375 537 245.139648438 607 c 0
 319.2265625 677 405.76953125 712 504.76953125 712 c 0
EndSplineSet
EndChar

StartChar: Egrave
Encoding: 200 200 133
GlifName: E_grave
Width: 598
Flags: W
HStem: 0 60<172.503 506> 329 60<224.611 494.108> 640 60<264.366 607.366>
LayerCount: 2
Fore
SplineSet
392.837890625 744 m 1
 288.953125 871 l 1
 377.953125 871 l 1
 468.837890625 744 l 1
 392.837890625 744 l 1
103 0 m 1
 213.869140625 700 l 1
 616.869140625 700 l 1
 607.366210938 640 l 1
 264.366210938 640 l 1
 224.611328125 389 l 1
 503.611328125 389 l 1
 494.108398438 329 l 1
 215.108398438 329 l 1
 172.502929688 60 l 1
 515.502929688 60 l 1
 506 0 l 1
 103 0 l 1
EndSplineSet
EndChar

StartChar: Eacute
Encoding: 201 201 134
GlifName: E_acute
Width: 598
Flags: W
HStem: 0 60<172.503 506> 329 60<224.611 494.108> 640 60<264.366 607.366>
LayerCount: 2
Fore
SplineSet
103 0 m 1
 213.869140625 700 l 1
 616.869140625 700 l 1
 607.366210938 640 l 1
 264.366210938 640 l 1
 224.611328125 389 l 1
 503.611328125 389 l 1
 494.108398438 329 l 1
 215.108398438 329 l 1
 172.502929688 60 l 1
 515.502929688 60 l 1
 506 0 l 1
 103 0 l 1
377.837890625 744 m 1
 506.794921875 870 l 1
 595.794921875 870 l 1
 453.837890625 744 l 1
 377.837890625 744 l 1
EndSplineSet
EndChar

StartChar: Ecircumflex
Encoding: 202 202 135
GlifName: E_circumflex
Width: 598
Flags: W
HStem: 0 60<172.503 506> 329 60<224.611 494.108> 640 60<264.366 607.366>
LayerCount: 2
Fore
SplineSet
266.837890625 744 m 1
 406.794921875 870 l 1
 488.794921875 870 l 1
 588.837890625 744 l 1
 506.837890625 744 l 1
 440.508789062 824 l 5
 348.837890625 744 l 1
 266.837890625 744 l 1
103 0 m 1
 213.869140625 700 l 1
 616.869140625 700 l 1
 607.366210938 640 l 1
 264.366210938 640 l 1
 224.611328125 389 l 1
 503.611328125 389 l 1
 494.108398438 329 l 1
 215.108398438 329 l 1
 172.502929688 60 l 1
 515.502929688 60 l 1
 506 0 l 1
 103 0 l 1
EndSplineSet
EndChar

StartChar: Edieresis
Encoding: 203 203 136
GlifName: E_dieresis
Width: 598
Flags: W
HStem: 0 60<172.503 506> 329 60<224.611 494.108> 640 60<264.366 607.366> 800 80<290.925 355.319 541.071 598.318>
LayerCount: 2
Fore
SplineSet
329.377929688 880 m 4
 340.377929688 880 348.903320312 877 355.635742188 869 c 4
 362.369140625 861 364.78515625 851 363.04296875 840 c 4
 361.30078125 829 355.875 820 346.608398438 812 c 4
 337.340820312 804 327.708007812 800 316.708007812 800 c 4
 305.708007812 800 297.340820312 804 290.608398438 812 c 4
 283.875 820 281.30078125 829 283.04296875 840 c 4
 284.78515625 851 290.369140625 861 299.635742188 869 c 4
 308.903320312 877 318.377929688 880 329.377929688 880 c 4
571.377929688 880 m 4
 582.377929688 880 591.903320312 877 598.635742188 869 c 4
 605.369140625 861 606.78515625 851 605.04296875 840 c 4
 603.30078125 829 598.875 820 589.608398438 812 c 4
 580.340820312 804 569.708007812 800 558.708007812 800 c 4
 547.708007812 800 538.340820312 804 531.608398438 812 c 4
 524.875 820 523.30078125 829 525.04296875 840 c 4
 526.78515625 851 531.369140625 861 540.635742188 869 c 4
 549.903320312 877 560.377929688 880 571.377929688 880 c 4
103 0 m 1
 213.869140625 700 l 1
 616.869140625 700 l 1
 607.366210938 640 l 1
 264.366210938 640 l 1
 224.611328125 389 l 1
 503.611328125 389 l 1
 494.108398438 329 l 1
 215.108398438 329 l 1
 172.502929688 60 l 1
 515.502929688 60 l 1
 506 0 l 1
 103 0 l 1
EndSplineSet
EndChar

StartChar: Igrave
Encoding: 204 204 137
GlifName: I_grave
Width: 265
Flags: W
HStem: 0 21G<103 166.168> 680 20G<210.701 273.869>
VStem: 103 60<0 60> 213.869 60<640 700>
LayerCount: 2
Fore
SplineSet
217.837890625 744 m 1
 113.953125 871 l 1
 202.953125 871 l 1
 293.837890625 744 l 1
 217.837890625 744 l 1
103 0 m 1
 213.869140625 700 l 1
 273.869140625 700 l 1
 163 0 l 1
 103 0 l 1
EndSplineSet
EndChar

StartChar: Iacute
Encoding: 205 205 138
GlifName: I_acute
Width: 265
Flags: W
HStem: 0 21G<103 166.168> 680 20G<210.701 273.869>
VStem: 103 60<0 60> 213.869 60<640 700>
LayerCount: 2
Fore
SplineSet
103 0 m 1
 213.869140625 700 l 1
 273.869140625 700 l 1
 163 0 l 1
 103 0 l 1
211.204101562 740 m 1
 340.161132812 866 l 1
 429.161132812 866 l 1
 287.204101562 740 l 1
 211.204101562 740 l 1
EndSplineSet
EndChar

StartChar: Icircumflex
Encoding: 206 206 139
GlifName: I_circumflex
Width: 265
Flags: W
HStem: 0 21G<103 166.168> 680 20G<210.701 273.869>
VStem: 103 60<0 60> 213.869 60<640 700>
LayerCount: 2
Fore
SplineSet
88.837890625 744 m 1
 228.794921875 870 l 1
 310.794921875 870 l 1
 410.837890625 744 l 1
 328.837890625 744 l 1
 262.508789062 824 l 5
 170.837890625 744 l 1
 88.837890625 744 l 1
103 0 m 1
 213.869140625 700 l 1
 273.869140625 700 l 1
 163 0 l 1
 103 0 l 1
EndSplineSet
EndChar

StartChar: Idieresis
Encoding: 207 207 140
GlifName: I_dieresis
Width: 265
Flags: W
HStem: 0 21G<103 166.168> 680 20G<210.701 273.869> 800 80<170.071 226.319 310.071 367.318>
VStem: 103 60<0 60> 213.869 60<640 700>
LayerCount: 2
Fore
SplineSet
103 0 m 1
 213.869140625 700 l 1
 273.869140625 700 l 1
 163 0 l 1
 103 0 l 1
200.377929688 880 m 0
 211.377929688 880 219.903320312 877 226.635742188 869 c 0
 233.369140625 861 235.78515625 851 234.04296875 840 c 0
 232.30078125 829 226.875 820 217.608398438 812 c 0
 208.340820312 804 198.708007812 800 187.708007812 800 c 0
 176.708007812 800 167.340820312 804 160.608398438 812 c 0
 153.875 820 152.30078125 829 154.04296875 840 c 0
 155.78515625 851 160.369140625 861 169.635742188 869 c 0
 178.903320312 877 189.377929688 880 200.377929688 880 c 0
340.377929688 880 m 0
 351.377929688 880 360.903320312 877 367.635742188 869 c 0
 374.369140625 861 375.78515625 851 374.04296875 840 c 0
 372.30078125 829 367.875 820 358.608398438 812 c 0
 349.340820312 804 338.708007812 800 327.708007812 800 c 0
 316.708007812 800 307.340820312 804 300.608398438 812 c 0
 293.875 820 292.30078125 829 294.04296875 840 c 0
 295.78515625 851 300.369140625 861 309.635742188 869 c 0
 318.903320312 877 329.377929688 880 340.377929688 880 c 0
EndSplineSet
EndChar

StartChar: Eth
Encoding: 208 208 141
GlifName: E_th
Width: 688
Flags: W
HStem: 0 60<172.503 409.974> 319 60<113.027 351.524> 640 60<264.366 493.596>
LayerCount: 2
Fore
SplineSet
387.366210938 640 m 2
 264.366210938 640 l 1
 172.502929688 60 l 1
 295.502929688 60 l 2
 375.502929688 60 447.9375 88 513.965820312 145 c 0
 579.994140625 202 618.763671875 270 631.434570312 350 c 0
 644.10546875 430 626.875 498 578.903320312 555 c 0
 530.931640625 612 467.366210938 640 387.366210938 640 c 2
396.869140625 700 m 2
 493.869140625 700 570.484375 666 627.713867188 598 c 0
 684.943359375 530 706.797851562 447 691.434570312 350 c 0
 676.071289062 253 628.083984375 171 549.313476562 103 c 0
 470.54296875 35 383 0 286 0 c 2
 103 0 l 1
 213.869140625 700 l 1
 396.869140625 700 l 2
103.524414062 319 m 1
 113.02734375 379 l 1
 361.02734375 379 l 1
 351.524414062 319 l 1
 103.524414062 319 l 1
EndSplineSet
EndChar

StartChar: Ntilde
Encoding: 209 209 142
GlifName: N_tilde
Width: 739
Flags: W
HStem: 0 21G<103 166.168 566.228 640.168> 680 20G<210.701 284.641 684.701 747.869> 742 56<519.568 587.894> 814 56<399.236 465.143>
VStem: 103 60<0 60> 595.409 59<804.423 836> 687.869 60<640 700>
LayerCount: 2
Fore
SplineSet
542.521484375 742 m 0
 513.521484375 742 491.421875 754 475.22265625 778 c 0
 468.6484375 787 463.07421875 796 457.182617188 803 c 0
 451.291015625 810 444.924804688 814 436.924804688 814 c 0
 415.924804688 814 401.024414062 802 391.064453125 777 c 1
 332.064453125 777 l 1
 339.182617188 803 353.508789062 824 375.359375 842 c 0
 397.2109375 860 420.794921875 870 445.794921875 870 c 0
 470.794921875 870 491.893554688 858 509.092773438 834 c 0
 515.666992188 825 522.2421875 816 528.1328125 809 c 0
 534.024414062 802 542.390625 798 551.390625 798 c 0
 572.390625 798 587.450195312 811 595.409179688 836 c 1
 654.409179688 836 l 1
 646.1328125 809 631.6484375 787 610.797851562 769 c 0
 589.946289062 751 567.521484375 742 542.521484375 742 c 0
213.869140625 700 m 1
 273.869140625 700 l 1
 593.7890625 106 l 1
 687.869140625 700 l 1
 747.869140625 700 l 1
 637 0 l 1
 577 0 l 1
 257.080078125 594 l 1
 163 0 l 1
 103 0 l 1
 213.869140625 700 l 1
EndSplineSet
EndChar

StartChar: Ograve
Encoding: 210 210 143
GlifName: O_grave
Width: 781
Flags: W
HStem: -12 60<291.34 512.163> 652 60<380.456 601.28>
LayerCount: 2
Fore
SplineSet
477.837890625 744 m 1
 373.953125 871 l 1
 462.953125 871 l 1
 553.837890625 744 l 1
 477.837890625 744 l 1
494.266601562 652 m 0
 413.266601562 652 341.673828125 623 280.329101562 564 c 0
 218.984375 505 181.739257812 434 168.434570312 350 c 0
 155.129882812 266 169.884765625 195 212.540039062 136 c 0
 255.1953125 77 317.602539062 48 398.602539062 48 c 0
 479.602539062 48 550.1953125 77 611.540039062 136 c 0
 672.884765625 195 711.129882812 266 724.434570312 350 c 0
 737.739257812 434 721.984375 505 679.329101562 564 c 0
 636.673828125 623 575.266601562 652 494.266601562 652 c 0
503.76953125 712 m 0
 602.76953125 712 678.2265625 677 730.139648438 607 c 0
 782.052734375 537 800.58984375 452 784.434570312 350 c 0
 768.279296875 248 722.81640625 163 648.729492188 93 c 0
 574.642578125 23 488.099609375 -12 389.099609375 -12 c 0
 290.099609375 -12 214.642578125 23 162.729492188 93 c 0
 110.81640625 163 92.279296875 248 108.434570312 350 c 0
 124.58984375 452 170.052734375 537 244.139648438 607 c 0
 318.2265625 677 404.76953125 712 503.76953125 712 c 0
EndSplineSet
EndChar

StartChar: Oacute
Encoding: 211 211 144
GlifName: O_acute
Width: 781
Flags: W
HStem: -12 60<291.34 512.163> 652 60<380.456 601.28>
LayerCount: 2
Fore
SplineSet
494.266601562 652 m 0
 413.266601562 652 341.673828125 623 280.329101562 564 c 0
 218.984375 505 181.739257812 434 168.434570312 350 c 0
 155.129882812 266 169.884765625 195 212.540039062 136 c 0
 255.1953125 77 317.602539062 48 398.602539062 48 c 0
 479.602539062 48 550.1953125 77 611.540039062 136 c 0
 672.884765625 195 711.129882812 266 724.434570312 350 c 0
 737.739257812 434 721.984375 505 679.329101562 564 c 0
 636.673828125 623 575.266601562 652 494.266601562 652 c 0
503.76953125 712 m 0
 602.76953125 712 678.2265625 677 730.139648438 607 c 0
 782.052734375 537 800.58984375 452 784.434570312 350 c 0
 768.279296875 248 722.81640625 163 648.729492188 93 c 0
 574.642578125 23 488.099609375 -12 389.099609375 -12 c 0
 290.099609375 -12 214.642578125 23 162.729492188 93 c 0
 110.81640625 163 92.279296875 248 108.434570312 350 c 0
 124.58984375 452 170.052734375 537 244.139648438 607 c 0
 318.2265625 677 404.76953125 712 503.76953125 712 c 0
472.204101562 740 m 1
 601.161132812 866 l 1
 690.161132812 866 l 1
 548.204101562 740 l 1
 472.204101562 740 l 1
EndSplineSet
EndChar

StartChar: Ocircumflex
Encoding: 212 212 145
GlifName: O_circumflex
Width: 781
Flags: W
HStem: -12 60<291.34 512.163> 652 60<380.456 601.28>
LayerCount: 2
Fore
SplineSet
348.837890625 744 m 1
 488.794921875 870 l 1
 570.794921875 870 l 1
 670.837890625 744 l 1
 588.837890625 744 l 1
 522.508789062 824 l 5
 430.837890625 744 l 1
 348.837890625 744 l 1
494.266601562 652 m 0
 413.266601562 652 341.673828125 623 280.329101562 564 c 0
 218.984375 505 181.739257812 434 168.434570312 350 c 0
 155.129882812 266 169.884765625 195 212.540039062 136 c 0
 255.1953125 77 317.602539062 48 398.602539062 48 c 0
 479.602539062 48 550.1953125 77 611.540039062 136 c 0
 672.884765625 195 711.129882812 266 724.434570312 350 c 0
 737.739257812 434 721.984375 505 679.329101562 564 c 0
 636.673828125 623 575.266601562 652 494.266601562 652 c 0
503.76953125 712 m 0
 602.76953125 712 678.2265625 677 730.139648438 607 c 0
 782.052734375 537 800.58984375 452 784.434570312 350 c 0
 768.279296875 248 722.81640625 163 648.729492188 93 c 0
 574.642578125 23 488.099609375 -12 389.099609375 -12 c 0
 290.099609375 -12 214.642578125 23 162.729492188 93 c 0
 110.81640625 163 92.279296875 248 108.434570312 350 c 0
 124.58984375 452 170.052734375 537 244.139648438 607 c 0
 318.2265625 677 404.76953125 712 503.76953125 712 c 0
EndSplineSet
EndChar

StartChar: Otilde
Encoding: 213 213 146
GlifName: O_tilde
Width: 781
Flags: W
HStem: -12 60<291.34 512.163> 652 60<380.456 601.28> 742 56<549.472 618.247> 814 56<429.236 494.916>
VStem: 625.409 59<804.423 836>
LayerCount: 2
Fore
SplineSet
572.521484375 742 m 0
 543.521484375 742 520.421875 754 504.22265625 778 c 0
 497.6484375 787 493.07421875 796 487.182617188 803 c 0
 481.291015625 810 474.924804688 814 466.924804688 814 c 0
 445.924804688 814 431.024414062 802 421.064453125 777 c 1
 362.064453125 777 l 1
 369.182617188 803 383.508789062 824 405.359375 842 c 0
 427.2109375 860 450.794921875 870 475.794921875 870 c 0
 500.794921875 870 521.893554688 858 539.092773438 834 c 0
 545.666992188 825 552.2421875 816 558.1328125 809 c 0
 564.024414062 802 572.390625 798 581.390625 798 c 0
 602.390625 798 617.450195312 811 625.409179688 836 c 1
 684.409179688 836 l 1
 676.1328125 809 662.6484375 787 641.797851562 769 c 0
 620.946289062 751 597.521484375 742 572.521484375 742 c 0
494.266601562 652 m 0
 413.266601562 652 341.673828125 623 280.329101562 564 c 0
 218.984375 505 181.739257812 434 168.434570312 350 c 0
 155.129882812 266 169.884765625 195 212.540039062 136 c 0
 255.1953125 77 317.602539062 48 398.602539062 48 c 0
 479.602539062 48 550.1953125 77 611.540039062 136 c 0
 672.884765625 195 711.129882812 266 724.434570312 350 c 0
 737.739257812 434 721.984375 505 679.329101562 564 c 0
 636.673828125 623 575.266601562 652 494.266601562 652 c 0
503.76953125 712 m 0
 602.76953125 712 678.2265625 677 730.139648438 607 c 0
 782.052734375 537 800.58984375 452 784.434570312 350 c 0
 768.279296875 248 722.81640625 163 648.729492188 93 c 0
 574.642578125 23 488.099609375 -12 389.099609375 -12 c 0
 290.099609375 -12 214.642578125 23 162.729492188 93 c 0
 110.81640625 163 92.279296875 248 108.434570312 350 c 0
 124.58984375 452 170.052734375 537 244.139648438 607 c 0
 318.2265625 677 404.76953125 712 503.76953125 712 c 0
EndSplineSet
EndChar

StartChar: Odieresis
Encoding: 214 214 147
GlifName: O_dieresis
Width: 781
Flags: W
HStem: -12 60<291.34 512.163> 652 60<380.456 601.28> 800 80<372.925 437.319 623.071 680.318>
LayerCount: 2
Fore
SplineSet
411.377929688 880 m 4
 422.377929688 880 430.903320312 877 437.635742188 869 c 4
 444.369140625 861 446.78515625 851 445.04296875 840 c 4
 443.30078125 829 437.875 820 428.608398438 812 c 4
 419.340820312 804 409.708007812 800 398.708007812 800 c 4
 387.708007812 800 379.340820312 804 372.608398438 812 c 4
 365.875 820 363.30078125 829 365.04296875 840 c 4
 366.78515625 851 372.369140625 861 381.635742188 869 c 4
 390.903320312 877 400.377929688 880 411.377929688 880 c 4
653.377929688 880 m 4
 664.377929688 880 673.903320312 877 680.635742188 869 c 4
 687.369140625 861 688.78515625 851 687.04296875 840 c 4
 685.30078125 829 680.875 820 671.608398438 812 c 4
 662.340820312 804 651.708007812 800 640.708007812 800 c 4
 629.708007812 800 620.340820312 804 613.608398438 812 c 4
 606.875 820 605.30078125 829 607.04296875 840 c 4
 608.78515625 851 613.369140625 861 622.635742188 869 c 4
 631.903320312 877 642.377929688 880 653.377929688 880 c 4
494.266601562 652 m 0
 413.266601562 652 341.673828125 623 280.329101562 564 c 0
 218.984375 505 181.739257812 434 168.434570312 350 c 0
 155.129882812 266 169.884765625 195 212.540039062 136 c 0
 255.1953125 77 317.602539062 48 398.602539062 48 c 0
 479.602539062 48 550.1953125 77 611.540039062 136 c 0
 672.884765625 195 711.129882812 266 724.434570312 350 c 0
 737.739257812 434 721.984375 505 679.329101562 564 c 0
 636.673828125 623 575.266601562 652 494.266601562 652 c 0
503.76953125 712 m 0
 602.76953125 712 678.2265625 677 730.139648438 607 c 0
 782.052734375 537 800.58984375 452 784.434570312 350 c 0
 768.279296875 248 722.81640625 163 648.729492188 93 c 0
 574.642578125 23 488.099609375 -12 389.099609375 -12 c 0
 290.099609375 -12 214.642578125 23 162.729492188 93 c 0
 110.81640625 163 92.279296875 248 108.434570312 350 c 0
 124.58984375 452 170.052734375 537 244.139648438 607 c 0
 318.2265625 677 404.76953125 712 503.76953125 712 c 0
EndSplineSet
EndChar

StartChar: multiply
Encoding: 215 215 148
GlifName: multiply
Width: 625
Flags: W
LayerCount: 2
Fore
SplineSet
182.7890625 106 m 1
 147.440429688 148 l 1
 318.881835938 296 l 1
 194.322265625 444 l 1
 243.1328125 487 l 1
 367.692382812 339 l 1
 539.1328125 487 l 1
 575.322265625 444 l 1
 403.881835938 296 l 1
 528.440429688 148 l 1
 478.7890625 106 l 1
 354.229492188 254 l 1
 182.7890625 106 l 1
EndSplineSet
EndChar

StartChar: Oslash
Encoding: 216 216 149
GlifName: O_slash
Width: 781
Flags: W
HStem: -12 60<294.34 515.163> 652 60<383.456 604.28>
LayerCount: 2
Fore
SplineSet
497.266601562 652 m 0
 416.266601562 652 344.673828125 623 283.329101562 564 c 0
 221.984375 505 184.739257812 434 171.434570312 350 c 0
 158.129882812 266 172.884765625 195 215.540039062 136 c 0
 258.1953125 77 320.602539062 48 401.602539062 48 c 0
 482.602539062 48 553.1953125 77 614.540039062 136 c 0
 675.884765625 195 714.129882812 266 727.434570312 350 c 0
 740.739257812 434 724.984375 505 682.329101562 564 c 0
 639.673828125 623 578.266601562 652 497.266601562 652 c 0
506.76953125 712 m 0
 605.76953125 712 681.2265625 677 733.139648438 607 c 0
 785.052734375 537 803.58984375 452 787.434570312 350 c 0
 771.279296875 248 725.81640625 163 651.729492188 93 c 0
 577.642578125 23 491.099609375 -12 392.099609375 -12 c 0
 293.099609375 -12 217.642578125 23 165.729492188 93 c 0
 113.81640625 163 95.279296875 248 111.434570312 350 c 0
 127.58984375 452 173.052734375 537 247.139648438 607 c 0
 321.2265625 677 407.76953125 712 506.76953125 712 c 0
128.2578125 -11 m 5
 89.4345703125 28 l 1
 769.611328125 711 l 1
 810.434570312 672 l 1
 128.2578125 -11 l 5
EndSplineSet
EndChar

StartChar: Ugrave
Encoding: 217 217 150
GlifName: U_grave
Width: 714
Flags: W
HStem: -12 60<278.94 457.622> 680 20G<200.701 263.869 669.701 732.869>
VStem: 203.869 60<640 700> 672.869 60<640 700>
LayerCount: 2
Fore
SplineSet
438.837890625 744 m 1
 334.953125 871 l 1
 423.953125 871 l 1
 514.837890625 744 l 1
 438.837890625 744 l 1
203.869140625 700 m 1
 263.869140625 700 l 1
 197.823242188 283 l 2
 186.736328125 213 196.708007812 156 229.897460938 113 c 0
 263.086914062 70 306.602539062 48 364.602539062 48 c 0
 422.602539062 48 474.086914062 70 520.897460938 113 c 0
 567.708007812 156 595.736328125 213 606.823242188 283 c 2
 672.869140625 700 l 1
 732.869140625 700 l 1
 666.823242188 283 l 2
 652.884765625 195 615.481445312 123 556.928710938 69 c 0
 498.375976562 15 431.099609375 -12 355.099609375 -12 c 0
 279.099609375 -12 221.375976562 15 179.928710938 69 c 0
 138.481445312 123 123.884765625 195 137.823242188 283 c 2
 203.869140625 700 l 1
EndSplineSet
EndChar

StartChar: Uacute
Encoding: 218 218 151
GlifName: U_acute
Width: 714
Flags: W
HStem: -12 60<278.94 457.622> 680 20G<200.701 263.869 669.701 732.869>
VStem: 203.869 60<640 700> 672.869 60<640 700>
LayerCount: 2
Fore
SplineSet
431.837890625 744 m 1
 560.794921875 870 l 1
 649.794921875 870 l 1
 507.837890625 744 l 1
 431.837890625 744 l 1
203.869140625 700 m 1
 263.869140625 700 l 1
 197.823242188 283 l 2
 186.736328125 213 196.708007812 156 229.897460938 113 c 0
 263.086914062 70 306.602539062 48 364.602539062 48 c 0
 422.602539062 48 474.086914062 70 520.897460938 113 c 0
 567.708007812 156 595.736328125 213 606.823242188 283 c 2
 672.869140625 700 l 1
 732.869140625 700 l 1
 666.823242188 283 l 2
 652.884765625 195 615.481445312 123 556.928710938 69 c 0
 498.375976562 15 431.099609375 -12 355.099609375 -12 c 0
 279.099609375 -12 221.375976562 15 179.928710938 69 c 0
 138.481445312 123 123.884765625 195 137.823242188 283 c 2
 203.869140625 700 l 1
EndSplineSet
EndChar

StartChar: Ucircumflex
Encoding: 219 219 152
GlifName: U_circumflex
Width: 714
Flags: W
HStem: -12 60<278.94 457.622> 680 20G<200.701 263.869 669.701 732.869>
VStem: 203.869 60<640 700> 672.869 60<640 700>
LayerCount: 2
Fore
SplineSet
314.837890625 744 m 1
 454.794921875 870 l 1
 536.794921875 870 l 1
 636.837890625 744 l 1
 554.837890625 744 l 1
 488.508789062 824 l 5
 396.837890625 744 l 1
 314.837890625 744 l 1
203.869140625 700 m 1
 263.869140625 700 l 1
 197.823242188 283 l 2
 186.736328125 213 196.708007812 156 229.897460938 113 c 0
 263.086914062 70 306.602539062 48 364.602539062 48 c 0
 422.602539062 48 474.086914062 70 520.897460938 113 c 0
 567.708007812 156 595.736328125 213 606.823242188 283 c 2
 672.869140625 700 l 1
 732.869140625 700 l 1
 666.823242188 283 l 2
 652.884765625 195 615.481445312 123 556.928710938 69 c 0
 498.375976562 15 431.099609375 -12 355.099609375 -12 c 0
 279.099609375 -12 221.375976562 15 179.928710938 69 c 0
 138.481445312 123 123.884765625 195 137.823242188 283 c 2
 203.869140625 700 l 1
EndSplineSet
EndChar

StartChar: Udieresis
Encoding: 220 220 153
GlifName: U_dieresis
Width: 714
Flags: W
HStem: -12 60<278.94 457.622> 680 20G<200.701 263.869 669.701 732.869> 800 80<337.071 393.319 579.071 636.318>
VStem: 203.869 60<640 700> 672.869 60<640 700>
LayerCount: 2
Fore
SplineSet
367.377929688 880 m 4
 378.377929688 880 386.903320312 877 393.635742188 869 c 4
 400.369140625 861 402.78515625 851 401.04296875 840 c 4
 399.30078125 829 393.875 820 384.608398438 812 c 4
 375.340820312 804 365.708007812 800 354.708007812 800 c 4
 343.708007812 800 334.340820312 804 327.608398438 812 c 4
 320.875 820 319.30078125 829 321.04296875 840 c 4
 322.78515625 851 327.369140625 861 336.635742188 869 c 4
 345.903320312 877 356.377929688 880 367.377929688 880 c 4
609.377929688 880 m 4
 620.377929688 880 629.903320312 877 636.635742188 869 c 4
 643.369140625 861 644.78515625 851 643.04296875 840 c 4
 641.30078125 829 636.875 820 627.608398438 812 c 4
 618.340820312 804 607.708007812 800 596.708007812 800 c 4
 585.708007812 800 576.340820312 804 569.608398438 812 c 4
 562.875 820 561.30078125 829 563.04296875 840 c 4
 564.78515625 851 569.369140625 861 578.635742188 869 c 4
 587.903320312 877 598.377929688 880 609.377929688 880 c 4
203.869140625 700 m 1
 263.869140625 700 l 1
 197.823242188 283 l 2
 186.736328125 213 196.708007812 156 229.897460938 113 c 0
 263.086914062 70 306.602539062 48 364.602539062 48 c 0
 422.602539062 48 474.086914062 70 520.897460938 113 c 0
 567.708007812 156 595.736328125 213 606.823242188 283 c 2
 672.869140625 700 l 1
 732.869140625 700 l 1
 666.823242188 283 l 2
 652.884765625 195 615.481445312 123 556.928710938 69 c 0
 498.375976562 15 431.099609375 -12 355.099609375 -12 c 0
 279.099609375 -12 221.375976562 15 179.928710938 69 c 0
 138.481445312 123 123.884765625 195 137.823242188 283 c 2
 203.869140625 700 l 1
EndSplineSet
EndChar

StartChar: Yacute
Encoding: 221 221 154
GlifName: Y_acute
Width: 531
Flags: W
HStem: 0 21G<236 299.168> 680 20G<123.869 203.443 543.959 629.869>
VStem: 236 60<0 60>
LayerCount: 2
Fore
SplineSet
329.837890625 744 m 1
 458.794921875 870 l 1
 548.794921875 870 l 1
 406.837890625 744 l 1
 329.837890625 744 l 1
123.869140625 700 m 1
 194.869140625 700 l 1
 327.76953125 390 l 1
 558.869140625 700 l 1
 629.869140625 700 l 1
 346.841796875 321 l 5
 296 0 l 1
 236 0 l 1
 286.841796875 321 l 1
 123.869140625 700 l 1
EndSplineSet
EndChar

StartChar: Thorn
Encoding: 222 222 155
GlifName: T_horn
Width: 575
Flags: W
HStem: 1 21G<103.158 166.326> 144 60<195.311 440.262> 518 60<254.546 484.803> 681 20G<210.86 274.027>
VStem: 103.158 60<1 61> 214.027 60<641 701>
LayerCount: 2
Fore
SplineSet
214.02734375 701 m 1
 274.02734375 701 l 1
 254.545898438 578 l 1
 417.545898438 578 l 2
 477.545898438 578 526.219726562 557 561.568359375 515 c 0
 596.916015625 473 609.6796875 421 600.176757812 361 c 0
 590.673828125 301 561.595703125 250 512.944335938 208 c 0
 464.291992188 166 408.807617188 144 348.807617188 144 c 2
 185.807617188 144 l 1
 163.158203125 1 l 1
 103.158203125 1 l 1
 214.02734375 701 l 1
245.04296875 518 m 1
 195.310546875 204 l 1
 358.310546875 204 l 2
 401.310546875 204 440.686523438 219 476.595703125 250 c 0
 512.505859375 281 533.366210938 318 540.176757812 361 c 0
 546.987304688 404 537.84765625 441 511.7578125 472 c 0
 485.666992188 503 451.04296875 518 408.04296875 518 c 2
 245.04296875 518 l 1
EndSplineSet
EndChar

StartChar: germandbls
Encoding: 223 223 156
GlifName: germandbls
Width: 556
Flags: W
HStem: 0 60<251.503 386.899> 327 60<308.295 423.222> 652 60<302.884 459.103>
VStem: 78 60<0 60>
LayerCount: 2
Fore
SplineSet
393.76953125 712 m 0
 449.76953125 712 493.760742188 693 527.7421875 655 c 0
 561.723632812 617 574.595703125 572 566.201171875 519 c 0
 560.974609375 486 548.223632812 456 528.788085938 428 c 0
 509.353515625 400 485.869140625 378 457.018554688 360 c 1
 486.326171875 343 507.524414062 319 521.931640625 290 c 0
 536.337890625 261 540.111328125 228 534.568359375 193 c 0
 526.173828125 140 498.046875 95 450.028320312 57 c 0
 402.009765625 19 350 0 291 0 c 2
 242 0 l 1
 251.502929688 60 l 1
 300.502929688 60 l 2
 342.502929688 60 380.5625 73 414.6796875 99 c 0
 448.797851562 125 468.708007812 156 474.568359375 193 c 0
 480.428710938 230 470.497070312 262 444.614257812 288 c 0
 418.732421875 314 384.791992188 327 342.791992188 327 c 2
 298.791992188 327 l 1
 308.294921875 387 l 1
 352.294921875 387 l 2
 389.294921875 387 422.1953125 399 452.313476562 425 c 0
 482.431640625 451 500.340820312 482 506.201171875 519 c 0
 512.061523438 556 502.971679688 587 479.08984375 613 c 0
 455.208007812 639 424.266601562 652 384.266601562 652 c 0
 344.266601562 652 309.208007812 639 277.08984375 613 c 0
 244.971679688 587 226.061523438 556 220.201171875 519 c 2
 138 0 l 1
 78 0 l 1
 160.201171875 519 l 2
 168.595703125 572 194.723632812 617 240.7421875 655 c 0
 286.760742188 693 337.76953125 712 393.76953125 712 c 0
EndSplineSet
EndChar

StartChar: agrave
Encoding: 224 224 157
GlifName: agrave
Width: 608
Flags: W
HStem: -12 60<215.041 389.912> 0 21G<471 534.168> 452 60<272.875 447.192> 480 20G<547.025 610.192> 681 20G<270.027 373.34>
VStem: 471 60<0 60> 550.192 60<440 500>
LayerCount: 2
Fore
SplineSet
373.913085938 574 m 1x0e
 270.02734375 701 l 1
 359.02734375 701 l 1
 449.913085938 574 l 1
 373.913085938 574 l 1x0e
550.192382812 500 m 1x1e
 610.192382812 500 l 1
 531 0 l 1
 471 0 l 1x5e
 484.462890625 85 l 1
 478.1953125 77 471.928710938 69 464.8203125 62 c 0
 418.05859375 13 361.099609375 -12 291.099609375 -12 c 0
 220.099609375 -12 165.05859375 13 127.13671875 64 c 0
 89.2138671875 115 76.0341796875 177 87.595703125 250 c 0
 99.158203125 323 131.977539062 385 186.055664062 436 c 0
 240.1328125 487 303.092773438 512 374.092773438 512 c 0xae
 444.092773438 512 493.1328125 487 524.372070312 438 c 0
 529.263671875 431 532.997070312 423 536.729492188 415 c 1
 550.192382812 500 l 1x1e
364.58984375 452 m 0xae
 309.58984375 452 261.580078125 433 221.403320312 394 c 0
 181.2265625 355 156.624023438 307 147.595703125 250 c 0
 138.568359375 193 147.965820312 145 175.7890625 106 c 0
 203.611328125 67 245.602539062 48 300.602539062 48 c 0
 354.602539062 48 400.611328125 67 438.7890625 106 c 0
 476.965820312 145 501.41015625 192 510.595703125 250 c 0
 519.782226562 308 510.2265625 355 484.403320312 394 c 0
 458.580078125 433 418.58984375 452 364.58984375 452 c 0xae
EndSplineSet
EndChar

StartChar: aacute
Encoding: 225 225 158
GlifName: aacute
Width: 608
Flags: W
HStem: -12 60<215.041 389.912> 0 21G<471 534.168> 452 60<272.875 447.192> 480 20G<547.025 610.192> 680 20G<473.4 582.869>
VStem: 471 60<0 60> 550.192 60<440 500>
LayerCount: 2
Fore
SplineSet
364.913085938 574 m 1x0e
 493.869140625 700 l 1
 582.869140625 700 l 1
 440.913085938 574 l 1
 364.913085938 574 l 1x0e
550.192382812 500 m 1x1e
 610.192382812 500 l 1
 531 0 l 1
 471 0 l 1x5e
 484.462890625 85 l 1
 478.1953125 77 471.928710938 69 464.8203125 62 c 0
 418.05859375 13 361.099609375 -12 291.099609375 -12 c 0
 220.099609375 -12 165.05859375 13 127.13671875 64 c 0
 89.2138671875 115 76.0341796875 177 87.595703125 250 c 0
 99.158203125 323 131.977539062 385 186.055664062 436 c 0
 240.1328125 487 303.092773438 512 374.092773438 512 c 0xae
 444.092773438 512 493.1328125 487 524.372070312 438 c 0
 529.263671875 431 532.997070312 423 536.729492188 415 c 1
 550.192382812 500 l 1x1e
364.58984375 452 m 0xae
 309.58984375 452 261.580078125 433 221.403320312 394 c 0
 181.2265625 355 156.624023438 307 147.595703125 250 c 0
 138.568359375 193 147.965820312 145 175.7890625 106 c 0
 203.611328125 67 245.602539062 48 300.602539062 48 c 0
 354.602539062 48 400.611328125 67 438.7890625 106 c 0
 476.965820312 145 501.41015625 192 510.595703125 250 c 0
 519.782226562 308 510.2265625 355 484.403320312 394 c 0
 458.580078125 433 418.58984375 452 364.58984375 452 c 0xae
EndSplineSet
EndChar

StartChar: acircumflex
Encoding: 226 226 159
GlifName: acircumflex
Width: 608
Flags: W
HStem: -12 60<215.041 389.912> 0 21G<471 534.168> 452 60<272.875 447.192> 480 20G<547.025 610.192> 680 20G<352.654 472.749>
VStem: 471 60<0 60> 550.192 60<440 500>
LayerCount: 2
Fore
SplineSet
234.913085938 574 m 1x0e
 374.869140625 700 l 1
 456.869140625 700 l 1
 556.913085938 574 l 1
 474.913085938 574 l 1
 408.583007812 654 l 5
 316.913085938 574 l 1
 234.913085938 574 l 1x0e
550.192382812 500 m 1x1e
 610.192382812 500 l 1
 531 0 l 1
 471 0 l 1x5e
 484.462890625 85 l 1
 478.1953125 77 471.928710938 69 464.8203125 62 c 0
 418.05859375 13 361.099609375 -12 291.099609375 -12 c 0
 220.099609375 -12 165.05859375 13 127.13671875 64 c 0
 89.2138671875 115 76.0341796875 177 87.595703125 250 c 0
 99.158203125 323 131.977539062 385 186.055664062 436 c 0
 240.1328125 487 303.092773438 512 374.092773438 512 c 0xae
 444.092773438 512 493.1328125 487 524.372070312 438 c 0
 529.263671875 431 532.997070312 423 536.729492188 415 c 1
 550.192382812 500 l 1x1e
364.58984375 452 m 0xae
 309.58984375 452 261.580078125 433 221.403320312 394 c 0
 181.2265625 355 156.624023438 307 147.595703125 250 c 0
 138.568359375 193 147.965820312 145 175.7890625 106 c 0
 203.611328125 67 245.602539062 48 300.602539062 48 c 0
 354.602539062 48 400.611328125 67 438.7890625 106 c 0
 476.965820312 145 501.41015625 192 510.595703125 250 c 0
 519.782226562 308 510.2265625 355 484.403320312 394 c 0
 458.580078125 433 418.58984375 452 364.58984375 452 c 0xae
EndSplineSet
EndChar

StartChar: atilde
Encoding: 227 227 160
GlifName: atilde
Width: 608
Flags: W
HStem: -12 60<215.041 389.912> 0 21G<471 534.168> 452 60<272.875 447.192> 480 20G<547.025 610.192> 572 56<427.643 495.969> 644 56<307.31 373.217>
VStem: 471 60<0 60> 503.484 59<634.423 666> 550.192 60<440 500>
LayerCount: 2
Fore
SplineSet
450.595703125 572 m 0x0d
 421.595703125 572 399.49609375 584 383.297851562 608 c 0
 376.723632812 617 371.1484375 626 365.2578125 633 c 0
 359.366210938 640 353 644 345 644 c 0
 324 644 309.098632812 632 299.139648438 607 c 1
 240.139648438 607 l 1
 247.2578125 633 261.583007812 654 283.434570312 672 c 0
 305.28515625 690 328.869140625 700 353.869140625 700 c 0
 378.869140625 700 399.96875 688 417.166992188 664 c 0
 423.7421875 655 430.31640625 646 436.208007812 639 c 0
 442.098632812 632 450.465820312 628 459.465820312 628 c 0
 480.465820312 628 495.524414062 641 503.484375 666 c 1
 562.484375 666 l 1
 554.208007812 639 539.723632812 617 518.872070312 599 c 0
 498.021484375 581 475.595703125 572 450.595703125 572 c 0x0d
550.192382812 500 m 1x1e80
 610.192382812 500 l 1
 531 0 l 1
 471 0 l 1x5e80
 484.462890625 85 l 1
 478.1953125 77 471.928710938 69 464.8203125 62 c 0
 418.05859375 13 361.099609375 -12 291.099609375 -12 c 0
 220.099609375 -12 165.05859375 13 127.13671875 64 c 0
 89.2138671875 115 76.0341796875 177 87.595703125 250 c 0
 99.158203125 323 131.977539062 385 186.055664062 436 c 0
 240.1328125 487 303.092773438 512 374.092773438 512 c 0xae80
 444.092773438 512 493.1328125 487 524.372070312 438 c 0
 529.263671875 431 532.997070312 423 536.729492188 415 c 1
 550.192382812 500 l 1x1e80
364.58984375 452 m 0xac
 309.58984375 452 261.580078125 433 221.403320312 394 c 0
 181.2265625 355 156.624023438 307 147.595703125 250 c 0
 138.568359375 193 147.965820312 145 175.7890625 106 c 0
 203.611328125 67 245.602539062 48 300.602539062 48 c 0
 354.602539062 48 400.611328125 67 438.7890625 106 c 0
 476.965820312 145 501.41015625 192 510.595703125 250 c 0
 519.782226562 308 510.2265625 355 484.403320312 394 c 0
 458.580078125 433 418.58984375 452 364.58984375 452 c 0xac
EndSplineSet
EndChar

StartChar: adieresis
Encoding: 228 228 161
GlifName: adieresis
Width: 608
Flags: W
HStem: -12 60<215.041 389.912> 0 21G<471 534.168> 452 60<272.875 447.192> 480 20G<547.025 610.192> 630 80<267.146 323.394 500.999 566.393>
VStem: 471 60<0 60> 550.192 60<440 500>
LayerCount: 2
Fore
SplineSet
297.453125 710 m 4x0e
 308.453125 710 316.977539062 707 323.7109375 699 c 4
 330.443359375 691 332.859375 681 331.1171875 670 c 4
 329.375 659 323.950195312 650 314.682617188 642 c 4
 305.416015625 634 295.782226562 630 284.782226562 630 c 4
 273.782226562 630 264.416015625 634 257.682617188 642 c 4
 250.950195312 650 249.375 659 251.1171875 670 c 4
 252.859375 681 257.443359375 691 266.7109375 699 c 4
 275.977539062 707 286.453125 710 297.453125 710 c 4x0e
539.453125 710 m 4
 550.453125 710 559.977539062 707 566.7109375 699 c 4
 573.443359375 691 574.859375 681 573.1171875 670 c 4
 571.375 659 566.950195312 650 557.682617188 642 c 4
 548.416015625 634 537.782226562 630 526.782226562 630 c 4
 515.782226562 630 507.416015625 634 500.682617188 642 c 4
 493.950195312 650 491.375 659 493.1171875 670 c 4
 494.859375 681 500.443359375 691 509.7109375 699 c 4
 518.977539062 707 528.453125 710 539.453125 710 c 4
550.192382812 500 m 1x1e
 610.192382812 500 l 1
 531 0 l 1
 471 0 l 1x5e
 484.462890625 85 l 1
 478.1953125 77 471.928710938 69 464.8203125 62 c 0
 418.05859375 13 361.099609375 -12 291.099609375 -12 c 0
 220.099609375 -12 165.05859375 13 127.13671875 64 c 0
 89.2138671875 115 76.0341796875 177 87.595703125 250 c 0
 99.158203125 323 131.977539062 385 186.055664062 436 c 0
 240.1328125 487 303.092773438 512 374.092773438 512 c 0xae
 444.092773438 512 493.1328125 487 524.372070312 438 c 0
 529.263671875 431 532.997070312 423 536.729492188 415 c 1
 550.192382812 500 l 1x1e
364.58984375 452 m 0xae
 309.58984375 452 261.580078125 433 221.403320312 394 c 0
 181.2265625 355 156.624023438 307 147.595703125 250 c 0
 138.568359375 193 147.965820312 145 175.7890625 106 c 0
 203.611328125 67 245.602539062 48 300.602539062 48 c 0
 354.602539062 48 400.611328125 67 438.7890625 106 c 0
 476.965820312 145 501.41015625 192 510.595703125 250 c 0
 519.782226562 308 510.2265625 355 484.403320312 394 c 0
 458.580078125 433 418.58984375 452 364.58984375 452 c 0xae
EndSplineSet
EndChar

StartChar: aring
Encoding: 229 229 162
GlifName: aring
Width: 608
Flags: W
HStem: -12 60<215.041 389.912> 0 21G<471 534.168> 452 60<272.875 447.192> 480 20G<547.025 610.192> 563 46<372.758 441.15> 689 45<375.46 443.615>
VStem: 322.791 46<621.376 681.25> 447.791 46<616.324 676.624> 471 60<0 60> 550.192 60<440 500>
LayerCount: 2
Fore
SplineSet
422.25390625 734 m 0x0f40
 445.25390625 734 463.987304688 726 478.294921875 709 c 0
 492.6015625 692 497.434570312 672 493.791015625 649 c 0
 490.1484375 626 478.822265625 605 459.129882812 588 c 0
 439.4375 571 418.170898438 563 395.170898438 563 c 0
 372.170898438 563 352.4375 571 338.129882812 588 c 0
 323.822265625 605 319.1484375 626 322.791015625 649 c 0
 326.434570312 672 337.6015625 692 357.294921875 709 c 0
 376.987304688 726 399.25390625 734 422.25390625 734 c 0x0f40
415.126953125 689 m 0
 404.126953125 689 393.493164062 685 384.2265625 677 c 0
 374.958984375 669 370.534179688 660 368.791015625 649 c 0
 367.048828125 638 368.624023438 629 375.356445312 621 c 0
 382.08984375 613 391.456054688 609 402.456054688 609 c 0
 413.456054688 609 423.08984375 613 432.356445312 621 c 0
 441.624023438 629 446.048828125 638 447.791015625 649 c 0
 449.534179688 660 447.958984375 669 441.2265625 677 c 0
 434.493164062 685 426.126953125 689 415.126953125 689 c 0
550.192382812 500 m 1x1ec0
 610.192382812 500 l 1
 531 0 l 1
 471 0 l 1x5ec0
 484.462890625 85 l 1
 478.1953125 77 471.928710938 69 464.8203125 62 c 0
 418.05859375 13 361.099609375 -12 291.099609375 -12 c 0
 220.099609375 -12 165.05859375 13 127.13671875 64 c 0
 89.2138671875 115 76.0341796875 177 87.595703125 250 c 0
 99.158203125 323 131.977539062 385 186.055664062 436 c 0
 240.1328125 487 303.092773438 512 374.092773438 512 c 0xaec0
 444.092773438 512 493.1328125 487 524.372070312 438 c 0
 529.263671875 431 532.997070312 423 536.729492188 415 c 1
 550.192382812 500 l 1x1ec0
364.58984375 452 m 0xae40
 309.58984375 452 261.580078125 433 221.403320312 394 c 0
 181.2265625 355 156.624023438 307 147.595703125 250 c 0
 138.568359375 193 147.965820312 145 175.7890625 106 c 0
 203.611328125 67 245.602539062 48 300.602539062 48 c 0
 354.602539062 48 400.611328125 67 438.7890625 106 c 0
 476.965820312 145 501.41015625 192 510.595703125 250 c 0
 519.782226562 308 510.2265625 355 484.403320312 394 c 0
 458.580078125 433 418.58984375 452 364.58984375 452 c 0xae40
EndSplineSet
EndChar

StartChar: ae
Encoding: 230 230 163
GlifName: ae
Width: 1052
Flags: W
HStem: -12 60<215.041 389.912 712.575 907.413> 0 21G<471 534.168> 220 60<649.348 995.897> 452 60<272.875 447.192 769.035 939.472> 480 20G<547.025 610.192>
VStem: 471 60<0 60> 550.192 60<440 500>
LayerCount: 2
Fore
SplineSet
1046.84472656 220 m 5xb6
 639.844726562 220 l 5
 637.92578125 170 651.431640625 129 679.36328125 97 c 4
 707.294921875 65 746.602539062 48 795.602539062 48 c 4
 865.602539062 48 922.770507812 68 967.947265625 107 c 5
 1001.97851562 63 l 5
 944.05859375 13 872.099609375 -12 786.099609375 -12 c 4
 715.099609375 -12 660.05859375 13 622.13671875 64 c 4
 584.213867188 115 571.034179688 177 582.595703125 250 c 4
 594.158203125 323 626.977539062 385 681.055664062 436 c 4
 735.1328125 487 798.092773438 512 869.092773438 512 c 4
 939.092773438 512 989.291992188 488 1021.37207031 438 c 4
 1053.453125 388 1063.47460938 325 1051.59570312 250 c 6
 1046.84472656 220 l 5xb6
859.58984375 452 m 4
 810.58984375 452 765.897460938 435 727.829101562 403 c 4
 689.760742188 371 663.266601562 330 649.34765625 280 c 5
 995.34765625 280 l 5
 998.424804688 331 988.918945312 372 965.987304688 404 c 4
 943.055664062 436 907.58984375 452 859.58984375 452 c 4
550.192382812 500 m 1x2e
 610.192382812 500 l 1
 531 0 l 1
 471 0 l 1x6e
 484.462890625 85 l 1
 478.1953125 77 471.928710938 69 464.8203125 62 c 0
 418.05859375 13 361.099609375 -12 291.099609375 -12 c 0
 220.099609375 -12 165.05859375 13 127.13671875 64 c 0
 89.2138671875 115 76.0341796875 177 87.595703125 250 c 0
 99.158203125 323 131.977539062 385 186.055664062 436 c 0
 240.1328125 487 303.092773438 512 374.092773438 512 c 0xb6
 444.092773438 512 493.1328125 487 524.372070312 438 c 0
 529.263671875 431 532.997070312 423 536.729492188 415 c 1
 550.192382812 500 l 1x2e
364.58984375 452 m 0xb6
 309.58984375 452 261.580078125 433 221.403320312 394 c 0
 181.2265625 355 156.624023438 307 147.595703125 250 c 0
 138.568359375 193 147.965820312 145 175.7890625 106 c 0
 203.611328125 67 245.602539062 48 300.602539062 48 c 0
 354.602539062 48 400.611328125 67 438.7890625 106 c 0
 476.965820312 145 501.41015625 192 510.595703125 250 c 0
 519.782226562 308 510.2265625 355 484.403320312 394 c 0
 458.580078125 433 418.58984375 452 364.58984375 452 c 0xb6
EndSplineSet
EndChar

StartChar: ccedilla
Encoding: 231 231 164
GlifName: ccedilla
Width: 504
Flags: W
HStem: -210 57<164.356 284.559> -12 60<215.041 389.905> 452 60<272.875 446.602>
LayerCount: 2
Fore
SplineSet
351.2265625 33 m 1
 376.791992188 5 386.407226562 -29 379.913085938 -70 c 0
 373.736328125 -109 354.509765625 -142 323.233398438 -169 c 0
 291.95703125 -196 256.739257812 -210 217.739257812 -210 c 0
 185.739257812 -210 159.165039062 -201 137.33203125 -181 c 1
 165.92578125 -152 181.301757812 -137 181.301757812 -137 c 5
 193.717773438 -147 208.767578125 -153 226.767578125 -153 c 0
 248.767578125 -153 270.192382812 -144 288.7265625 -128 c 0
 307.260742188 -112 319.428710938 -92 322.913085938 -70 c 0
 325.447265625 -54 322.823242188 -39 316.881835938 -26 c 0
 310.94140625 -13 302.524414062 -3 289.633789062 4 c 1
 351.2265625 33 l 1
374.092773438 512 m 0
 444.092773438 512 498.1328125 487 536.213867188 437 c 1
 488.245117188 393 l 1
 459.421875 432 418.58984375 452 364.58984375 452 c 0
 309.58984375 452 261.580078125 433 221.403320312 394 c 0
 181.2265625 355 156.624023438 307 147.595703125 250 c 0
 138.568359375 193 147.965820312 145 175.7890625 106 c 0
 203.611328125 67 245.602539062 48 300.602539062 48 c 0
 354.602539062 48 401.770507812 68 442.947265625 107 c 1
 476.978515625 63 l 1
 423.05859375 13 361.099609375 -12 291.099609375 -12 c 0
 220.099609375 -12 165.05859375 13 127.13671875 64 c 0
 89.2138671875 115 76.0341796875 177 87.595703125 250 c 0
 99.158203125 323 131.977539062 385 186.055664062 436 c 0
 240.1328125 487 303.092773438 512 374.092773438 512 c 0
EndSplineSet
EndChar

StartChar: egrave
Encoding: 232 232 165
GlifName: egrave
Width: 554
Flags: W
HStem: -12 60<217.575 412.413> 220 60<154.348 500.897> 452 60<274.035 444.472> 681 20G<253.027 356.34>
LayerCount: 2
Fore
SplineSet
551.844726562 220 m 5
 144.844726562 220 l 5
 142.92578125 170 156.431640625 129 184.36328125 97 c 4
 212.294921875 65 251.602539062 48 300.602539062 48 c 4
 370.602539062 48 427.770507812 68 472.947265625 107 c 5
 506.978515625 63 l 5
 449.05859375 13 377.099609375 -12 291.099609375 -12 c 4
 220.099609375 -12 165.05859375 13 127.13671875 64 c 4
 89.2138671875 115 76.0341796875 177 87.595703125 250 c 4
 99.158203125 323 131.977539062 385 186.055664062 436 c 4
 240.1328125 487 303.092773438 512 374.092773438 512 c 4
 444.092773438 512 494.291992188 488 526.372070312 438 c 4
 558.453125 388 568.474609375 325 556.595703125 250 c 6
 551.844726562 220 l 5
364.58984375 452 m 4
 315.58984375 452 270.897460938 435 232.829101562 403 c 4
 194.760742188 371 168.266601562 330 154.34765625 280 c 5
 500.34765625 280 l 5
 503.424804688 331 493.918945312 372 470.987304688 404 c 4
 448.055664062 436 412.58984375 452 364.58984375 452 c 4
356.913085938 574 m 1
 253.02734375 701 l 1
 342.02734375 701 l 1
 432.913085938 574 l 1
 356.913085938 574 l 1
EndSplineSet
EndChar

StartChar: eacute
Encoding: 233 233 166
GlifName: eacute
Width: 554
Flags: W
HStem: -12 60<217.575 412.413> 220 60<154.348 500.897> 452 60<274.035 444.472> 680 20G<446.4 555.869>
LayerCount: 2
Fore
SplineSet
551.844726562 220 m 5
 144.844726562 220 l 5
 142.92578125 170 156.431640625 129 184.36328125 97 c 4
 212.294921875 65 251.602539062 48 300.602539062 48 c 4
 370.602539062 48 427.770507812 68 472.947265625 107 c 5
 506.978515625 63 l 5
 449.05859375 13 377.099609375 -12 291.099609375 -12 c 4
 220.099609375 -12 165.05859375 13 127.13671875 64 c 4
 89.2138671875 115 76.0341796875 177 87.595703125 250 c 4
 99.158203125 323 131.977539062 385 186.055664062 436 c 4
 240.1328125 487 303.092773438 512 374.092773438 512 c 4
 444.092773438 512 494.291992188 488 526.372070312 438 c 4
 558.453125 388 568.474609375 325 556.595703125 250 c 6
 551.844726562 220 l 5
364.58984375 452 m 4
 315.58984375 452 270.897460938 435 232.829101562 403 c 4
 194.760742188 371 168.266601562 330 154.34765625 280 c 5
 500.34765625 280 l 5
 503.424804688 331 493.918945312 372 470.987304688 404 c 4
 448.055664062 436 412.58984375 452 364.58984375 452 c 4
337.913085938 574 m 1
 466.869140625 700 l 1
 555.869140625 700 l 1
 413.913085938 574 l 1
 337.913085938 574 l 1
EndSplineSet
EndChar

StartChar: ecircumflex
Encoding: 234 234 167
GlifName: ecircumflex
Width: 554
Flags: W
HStem: -12 60<217.575 412.413> 220 60<154.348 500.897> 452 60<274.035 444.472> 680 20G<335.654 455.749>
LayerCount: 2
Fore
SplineSet
551.844726562 220 m 5
 144.844726562 220 l 5
 142.92578125 170 156.431640625 129 184.36328125 97 c 4
 212.294921875 65 251.602539062 48 300.602539062 48 c 4
 370.602539062 48 427.770507812 68 472.947265625 107 c 5
 506.978515625 63 l 5
 449.05859375 13 377.099609375 -12 291.099609375 -12 c 4
 220.099609375 -12 165.05859375 13 127.13671875 64 c 4
 89.2138671875 115 76.0341796875 177 87.595703125 250 c 4
 99.158203125 323 131.977539062 385 186.055664062 436 c 4
 240.1328125 487 303.092773438 512 374.092773438 512 c 4
 444.092773438 512 494.291992188 488 526.372070312 438 c 4
 558.453125 388 568.474609375 325 556.595703125 250 c 6
 551.844726562 220 l 5
364.58984375 452 m 4
 315.58984375 452 270.897460938 435 232.829101562 403 c 4
 194.760742188 371 168.266601562 330 154.34765625 280 c 5
 500.34765625 280 l 5
 503.424804688 331 493.918945312 372 470.987304688 404 c 4
 448.055664062 436 412.58984375 452 364.58984375 452 c 4
217.913085938 574 m 1
 357.869140625 700 l 1
 439.869140625 700 l 1
 539.913085938 574 l 1
 457.913085938 574 l 1
 391.583007812 654 l 1
 299.913085938 574 l 1
 217.913085938 574 l 1
EndSplineSet
EndChar

StartChar: edieresis
Encoding: 235 235 168
GlifName: edieresis
Width: 554
Flags: W
HStem: -12 60<217.575 412.413> 220 60<154.348 500.897> 452 60<274.035 444.472> 630 80<241.999 306.394 492.146 549.393>
LayerCount: 2
Fore
SplineSet
551.844726562 220 m 5
 144.844726562 220 l 5
 142.92578125 170 156.431640625 129 184.36328125 97 c 4
 212.294921875 65 251.602539062 48 300.602539062 48 c 4
 370.602539062 48 427.770507812 68 472.947265625 107 c 5
 506.978515625 63 l 5
 449.05859375 13 377.099609375 -12 291.099609375 -12 c 4
 220.099609375 -12 165.05859375 13 127.13671875 64 c 4
 89.2138671875 115 76.0341796875 177 87.595703125 250 c 4
 99.158203125 323 131.977539062 385 186.055664062 436 c 4
 240.1328125 487 303.092773438 512 374.092773438 512 c 4
 444.092773438 512 494.291992188 488 526.372070312 438 c 4
 558.453125 388 568.474609375 325 556.595703125 250 c 6
 551.844726562 220 l 5
364.58984375 452 m 4
 315.58984375 452 270.897460938 435 232.829101562 403 c 4
 194.760742188 371 168.266601562 330 154.34765625 280 c 5
 500.34765625 280 l 5
 503.424804688 331 493.918945312 372 470.987304688 404 c 4
 448.055664062 436 412.58984375 452 364.58984375 452 c 4
280.453125 710 m 0
 291.453125 710 299.977539062 707 306.7109375 699 c 0
 313.443359375 691 315.859375 681 314.1171875 670 c 0
 312.375 659 306.950195312 650 297.682617188 642 c 0
 288.416015625 634 278.782226562 630 267.782226562 630 c 0
 256.782226562 630 248.416015625 634 241.682617188 642 c 0
 234.950195312 650 232.375 659 234.1171875 670 c 0
 235.859375 681 241.443359375 691 250.7109375 699 c 0
 259.977539062 707 269.453125 710 280.453125 710 c 0
522.453125 710 m 0
 533.453125 710 542.977539062 707 549.7109375 699 c 0
 556.443359375 691 557.859375 681 556.1171875 670 c 0
 554.375 659 549.950195312 650 540.682617188 642 c 0
 531.416015625 634 520.782226562 630 509.782226562 630 c 0
 498.782226562 630 489.416015625 634 482.682617188 642 c 0
 475.950195312 650 474.375 659 476.1171875 670 c 0
 477.859375 681 482.443359375 691 491.7109375 699 c 0
 500.977539062 707 511.453125 710 522.453125 710 c 0
EndSplineSet
EndChar

StartChar: igrave
Encoding: 236 236 169
GlifName: igrave
Width: 225
Flags: W
HStem: 0 21G<82 145.168> 480 20G<158.025 221.192> 681 20G<60.0273 163.34>
VStem: 82 60<0 60> 161.192 60<440 500>
LayerCount: 2
Fore
SplineSet
163.913085938 574 m 1
 60.02734375 701 l 1
 149.02734375 701 l 1
 239.913085938 574 l 1
 163.913085938 574 l 1
82 0 m 1
 161.192382812 500 l 1
 221.192382812 500 l 1
 142 0 l 1
 82 0 l 1
EndSplineSet
EndChar

StartChar: iacute
Encoding: 237 237 170
GlifName: iacute
Width: 225
Flags: W
HStem: 0 21G<82 145.168> 480 20G<158.025 221.192> 680 20G<270.4 379.869>
VStem: 82 60<0 60> 161.192 60<440 500>
LayerCount: 2
Fore
SplineSet
161.913085938 574 m 1
 290.869140625 700 l 1
 379.869140625 700 l 1
 237.913085938 574 l 1
 161.913085938 574 l 1
82 0 m 1
 161.192382812 500 l 1
 221.192382812 500 l 1
 142 0 l 1
 82 0 l 1
EndSplineSet
EndChar

StartChar: icircumflex
Encoding: 238 238 171
GlifName: icircumflex
Width: 225
Flags: W
HStem: 0 21G<82 145.168> 480 20G<158.025 221.192> 680 20G<159.654 279.749>
VStem: 82 60<0 60> 161.192 60<440 500>
LayerCount: 2
Fore
SplineSet
41.9130859375 574 m 1
 181.869140625 700 l 1
 263.869140625 700 l 1
 363.913085938 574 l 1
 281.913085938 574 l 1
 215.583007812 654 l 5
 123.913085938 574 l 1
 41.9130859375 574 l 1
82 0 m 1
 161.192382812 500 l 1
 221.192382812 500 l 1
 142 0 l 1
 82 0 l 1
EndSplineSet
EndChar

StartChar: idieresis
Encoding: 239 239 172
GlifName: idieresis
Width: 225
Flags: W
HStem: 0 21G<82 145.168> 480 20G<158.025 221.192> 630 80<116.999 181.394 265.146 321.394>
VStem: 82 60<0 60> 161.192 60<440 500>
LayerCount: 2
Fore
SplineSet
82 0 m 1
 161.192382812 500 l 1
 221.192382812 500 l 1
 142 0 l 1
 82 0 l 1
155.453125 710 m 0
 166.453125 710 174.977539062 707 181.7109375 699 c 0
 188.443359375 691 190.859375 681 189.1171875 670 c 0
 187.375 659 181.950195312 650 172.682617188 642 c 0
 163.416015625 634 153.782226562 630 142.782226562 630 c 0
 131.782226562 630 123.416015625 634 116.682617188 642 c 0
 109.950195312 650 107.375 659 109.1171875 670 c 0
 110.859375 681 116.443359375 691 125.7109375 699 c 0
 134.977539062 707 144.453125 710 155.453125 710 c 0
295.453125 710 m 0
 306.453125 710 314.977539062 707 321.7109375 699 c 0
 328.443359375 691 330.859375 681 329.1171875 670 c 0
 327.375 659 321.950195312 650 312.682617188 642 c 0
 303.416015625 634 293.782226562 630 282.782226562 630 c 0
 271.782226562 630 262.416015625 634 255.682617188 642 c 0
 248.950195312 650 247.375 659 249.1171875 670 c 0
 250.859375 681 255.443359375 691 264.7109375 699 c 0
 273.977539062 707 284.453125 710 295.453125 710 c 0
EndSplineSet
EndChar

StartChar: eth
Encoding: 240 240 173
GlifName: eth
Width: 594
Flags: W
HStem: -12 60<216.371 392.987> 452 60<274.205 450.821> 654 58<288.77 372.482> 683 20G<496.533 539.054>
LayerCount: 2
Fore
SplineSet
375.092773438 512 m 0xc0
 446.092773438 512 501.1328125 487 539.055664062 436 c 0
 576.977539062 385 590.31640625 324 578.595703125 250 c 0
 566.875976562 176 534.213867188 115 480.13671875 64 c 0
 426.05859375 13 363.099609375 -12 292.099609375 -12 c 0
 221.099609375 -12 166.05859375 13 128.13671875 64 c 0
 90.2138671875 115 76.8759765625 176 88.595703125 250 c 0
 100.31640625 324 132.977539062 385 187.055664062 436 c 0
 241.1328125 487 304.092773438 512 375.092773438 512 c 0xc0
365.58984375 452 m 0
 310.58984375 452 263.580078125 433 223.403320312 394 c 0
 183.2265625 355 157.624023438 307 148.595703125 250 c 0
 139.568359375 193 149.965820312 145 177.7890625 106 c 0
 205.611328125 67 246.602539062 48 301.602539062 48 c 0
 356.602539062 48 403.611328125 67 443.7890625 106 c 0
 483.965820312 145 509.568359375 193 518.595703125 250 c 0
 527.624023438 307 517.2265625 355 489.403320312 394 c 0
 461.580078125 433 420.58984375 452 365.58984375 452 c 0
264.583007812 654 m 1xe0
 288.76953125 712 l 1
 305.76953125 712 330.294921875 709 359.185546875 702 c 0
 383.235351562 696 404.96875 688 426.384765625 678 c 0
 447.80078125 668 471.108398438 651 495.465820312 628 c 0
 519.822265625 605 538.387695312 577 553.477539062 546 c 0
 568.568359375 515 578.916015625 473 584.837890625 422 c 0
 590.760742188 371 588.57421875 313 578.595703125 250 c 1
 518.595703125 250 l 1
 532.692382812 339 531.25390625 412 513.282226562 469 c 4
 495.993164062 524 471.487304688 565 439.447265625 590 c 0
 405.723632812 617 373.57421875 635 344.682617188 642 c 0
 312.950195312 650 286.583007812 654 264.583007812 654 c 1xe0
340.655273438 585 m 1
 528.344726562 703 l 1xd0
 554.583007812 654 l 1
 366.89453125 536 l 1
 340.655273438 585 l 1
EndSplineSet
EndChar

StartChar: ntilde
Encoding: 241 241 174
GlifName: ntilde
Width: 559
Flags: W
HStem: 0 21G<78 141.168 437 500.168> 452 60<280.835 431.012> 480 20G<154.025 217.192> 572 56<409.643 477.969> 644 56<289.31 355.217>
VStem: 78 60<0 60> 157.192 60<440 500> 437 60<0 60> 485.484 59<634.423 666>
LayerCount: 2
Fore
SplineSet
432.595703125 572 m 0x9e80
 403.595703125 572 381.49609375 584 365.297851562 608 c 0
 358.723632812 617 353.1484375 626 347.2578125 633 c 0
 341.366210938 640 335 644 327 644 c 0
 306 644 291.098632812 632 281.139648438 607 c 1
 222.139648438 607 l 1
 229.2578125 633 243.583007812 654 265.434570312 672 c 0
 287.28515625 690 310.869140625 700 335.869140625 700 c 0
 360.869140625 700 381.96875 688 399.166992188 664 c 0
 405.7421875 655 412.31640625 646 418.208007812 639 c 0
 424.098632812 632 432.465820312 628 441.465820312 628 c 0
 462.465820312 628 477.524414062 641 485.484375 666 c 1
 544.484375 666 l 1
 536.208007812 639 521.723632812 617 500.872070312 599 c 0
 480.021484375 581 457.595703125 572 432.595703125 572 c 0x9e80
497 0 m 1xdf
 437 0 l 1
 479.447265625 268 l 2
 488.474609375 325 481.444335938 369 458.670898438 402 c 0
 435.897460938 435 402.58984375 452 359.58984375 452 c 0xdf
 316.58984375 452 277.897460938 435 244.670898438 402 c 0
 211.444335938 369 189.474609375 325 180.447265625 268 c 2
 138 0 l 5
 78 0 l 5
 157.192382812 500 l 1
 217.192382812 500 l 1xbf
 206.421875 432 l 1
 210.213867188 437 215.005859375 442 218.639648438 446 c 0
 260.608398438 490 311.092773438 512 369.092773438 512 c 0
 429.092773438 512 474.450195312 489 507.481445312 445 c 0
 540.51171875 401 551.008789062 341 539.447265625 268 c 2
 497 0 l 1xdf
EndSplineSet
EndChar

StartChar: ograve
Encoding: 242 242 175
GlifName: ograve
Width: 584
Flags: W
HStem: -12 60<215.041 391.737> 452 60<272.875 449.651> 681 20G<251.027 354.34>
LayerCount: 2
Fore
SplineSet
354.913085938 574 m 1
 251.02734375 701 l 1
 340.02734375 701 l 1
 430.913085938 574 l 1
 354.913085938 574 l 1
364.58984375 452 m 0
 309.58984375 452 261.580078125 433 221.403320312 394 c 0
 181.2265625 355 156.624023438 307 147.595703125 250 c 0
 138.568359375 193 147.965820312 145 175.7890625 106 c 0
 203.611328125 67 245.602539062 48 300.602539062 48 c 0
 355.602539062 48 402.611328125 67 442.7890625 106 c 0
 482.965820312 145 507.568359375 193 516.595703125 250 c 0
 525.624023438 307 516.2265625 355 488.403320312 394 c 0
 460.580078125 433 419.58984375 452 364.58984375 452 c 0
374.092773438 512 m 0
 445.092773438 512 499.1328125 487 537.055664062 436 c 0
 574.977539062 385 588.158203125 323 576.595703125 250 c 0
 565.034179688 177 532.213867188 115 478.13671875 64 c 0
 424.05859375 13 362.099609375 -12 291.099609375 -12 c 0
 220.099609375 -12 165.05859375 13 127.13671875 64 c 0
 89.2138671875 115 76.0341796875 177 87.595703125 250 c 0
 99.158203125 323 131.977539062 385 186.055664062 436 c 0
 240.1328125 487 303.092773438 512 374.092773438 512 c 0
EndSplineSet
EndChar

StartChar: oacute
Encoding: 243 243 176
GlifName: oacute
Width: 584
Flags: W
HStem: -12 60<215.041 391.737> 452 60<272.875 449.651> 680 20G<453.4 562.869>
LayerCount: 2
Fore
SplineSet
344.913085938 574 m 1
 473.869140625 700 l 1
 562.869140625 700 l 1
 420.913085938 574 l 1
 344.913085938 574 l 1
364.58984375 452 m 0
 309.58984375 452 261.580078125 433 221.403320312 394 c 0
 181.2265625 355 156.624023438 307 147.595703125 250 c 0
 138.568359375 193 147.965820312 145 175.7890625 106 c 0
 203.611328125 67 245.602539062 48 300.602539062 48 c 0
 355.602539062 48 402.611328125 67 442.7890625 106 c 0
 482.965820312 145 507.568359375 193 516.595703125 250 c 0
 525.624023438 307 516.2265625 355 488.403320312 394 c 0
 460.580078125 433 419.58984375 452 364.58984375 452 c 0
374.092773438 512 m 0
 445.092773438 512 499.1328125 487 537.055664062 436 c 0
 574.977539062 385 588.158203125 323 576.595703125 250 c 0
 565.034179688 177 532.213867188 115 478.13671875 64 c 0
 424.05859375 13 362.099609375 -12 291.099609375 -12 c 0
 220.099609375 -12 165.05859375 13 127.13671875 64 c 0
 89.2138671875 115 76.0341796875 177 87.595703125 250 c 0
 99.158203125 323 131.977539062 385 186.055664062 436 c 0
 240.1328125 487 303.092773438 512 374.092773438 512 c 0
EndSplineSet
EndChar

StartChar: ocircumflex
Encoding: 244 244 177
GlifName: ocircumflex
Width: 584
Flags: W
HStem: -12 60<215.041 391.737> 452 60<272.875 449.651> 680 20G<351.654 471.749>
LayerCount: 2
Fore
SplineSet
233.913085938 574 m 1
 373.869140625 700 l 1
 455.869140625 700 l 1
 555.913085938 574 l 1
 473.913085938 574 l 1
 407.583007812 654 l 5
 315.913085938 574 l 1
 233.913085938 574 l 1
364.58984375 452 m 0
 309.58984375 452 261.580078125 433 221.403320312 394 c 0
 181.2265625 355 156.624023438 307 147.595703125 250 c 0
 138.568359375 193 147.965820312 145 175.7890625 106 c 0
 203.611328125 67 245.602539062 48 300.602539062 48 c 0
 355.602539062 48 402.611328125 67 442.7890625 106 c 0
 482.965820312 145 507.568359375 193 516.595703125 250 c 0
 525.624023438 307 516.2265625 355 488.403320312 394 c 0
 460.580078125 433 419.58984375 452 364.58984375 452 c 0
374.092773438 512 m 0
 445.092773438 512 499.1328125 487 537.055664062 436 c 0
 574.977539062 385 588.158203125 323 576.595703125 250 c 0
 565.034179688 177 532.213867188 115 478.13671875 64 c 0
 424.05859375 13 362.099609375 -12 291.099609375 -12 c 0
 220.099609375 -12 165.05859375 13 127.13671875 64 c 0
 89.2138671875 115 76.0341796875 177 87.595703125 250 c 0
 99.158203125 323 131.977539062 385 186.055664062 436 c 0
 240.1328125 487 303.092773438 512 374.092773438 512 c 0
EndSplineSet
EndChar

StartChar: otilde
Encoding: 245 245 178
GlifName: otilde
Width: 584
Flags: W
HStem: -12 60<215.041 391.737> 452 60<272.875 449.651> 572 56<427.643 495.969> 644 56<307.31 373.217>
VStem: 503.484 59<634.423 666>
LayerCount: 2
Fore
SplineSet
450.595703125 572 m 0
 421.595703125 572 399.49609375 584 383.297851562 608 c 0
 376.723632812 617 371.1484375 626 365.2578125 633 c 0
 359.366210938 640 353 644 345 644 c 0
 324 644 309.098632812 632 299.139648438 607 c 1
 240.139648438 607 l 1
 247.2578125 633 261.583007812 654 283.434570312 672 c 0
 305.28515625 690 328.869140625 700 353.869140625 700 c 0
 378.869140625 700 399.96875 688 417.166992188 664 c 0
 423.7421875 655 430.31640625 646 436.208007812 639 c 0
 442.098632812 632 450.465820312 628 459.465820312 628 c 0
 480.465820312 628 495.524414062 641 503.484375 666 c 1
 562.484375 666 l 1
 554.208007812 639 539.723632812 617 518.872070312 599 c 0
 498.021484375 581 475.595703125 572 450.595703125 572 c 0
364.58984375 452 m 0
 309.58984375 452 261.580078125 433 221.403320312 394 c 0
 181.2265625 355 156.624023438 307 147.595703125 250 c 0
 138.568359375 193 147.965820312 145 175.7890625 106 c 0
 203.611328125 67 245.602539062 48 300.602539062 48 c 0
 355.602539062 48 402.611328125 67 442.7890625 106 c 0
 482.965820312 145 507.568359375 193 516.595703125 250 c 0
 525.624023438 307 516.2265625 355 488.403320312 394 c 0
 460.580078125 433 419.58984375 452 364.58984375 452 c 0
374.092773438 512 m 0
 445.092773438 512 499.1328125 487 537.055664062 436 c 0
 574.977539062 385 588.158203125 323 576.595703125 250 c 0
 565.034179688 177 532.213867188 115 478.13671875 64 c 0
 424.05859375 13 362.099609375 -12 291.099609375 -12 c 0
 220.099609375 -12 165.05859375 13 127.13671875 64 c 0
 89.2138671875 115 76.0341796875 177 87.595703125 250 c 0
 99.158203125 323 131.977539062 385 186.055664062 436 c 0
 240.1328125 487 303.092773438 512 374.092773438 512 c 0
EndSplineSet
EndChar

StartChar: odieresis
Encoding: 246 246 179
GlifName: odieresis
Width: 584
Flags: W
HStem: -12 60<215.041 391.737> 452 60<272.875 449.651> 630 80<261.146 318.393 494.999 559.394>
LayerCount: 2
Fore
SplineSet
291.453125 710 m 4
 302.453125 710 311.977539062 707 318.7109375 699 c 4
 325.443359375 691 326.859375 681 325.1171875 670 c 4
 323.375 659 318.950195312 650 309.682617188 642 c 4
 300.416015625 634 289.782226562 630 278.782226562 630 c 4
 267.782226562 630 258.416015625 634 251.682617188 642 c 4
 244.950195312 650 243.375 659 245.1171875 670 c 4
 246.859375 681 251.443359375 691 260.7109375 699 c 4
 269.977539062 707 280.453125 710 291.453125 710 c 4
533.453125 710 m 4
 544.453125 710 552.977539062 707 559.7109375 699 c 4
 566.443359375 691 568.859375 681 567.1171875 670 c 4
 565.375 659 559.950195312 650 550.682617188 642 c 4
 541.416015625 634 531.782226562 630 520.782226562 630 c 4
 509.782226562 630 501.416015625 634 494.682617188 642 c 4
 487.950195312 650 485.375 659 487.1171875 670 c 4
 488.859375 681 494.443359375 691 503.7109375 699 c 4
 512.977539062 707 522.453125 710 533.453125 710 c 4
364.58984375 452 m 0
 309.58984375 452 261.580078125 433 221.403320312 394 c 0
 181.2265625 355 156.624023438 307 147.595703125 250 c 0
 138.568359375 193 147.965820312 145 175.7890625 106 c 0
 203.611328125 67 245.602539062 48 300.602539062 48 c 0
 355.602539062 48 402.611328125 67 442.7890625 106 c 0
 482.965820312 145 507.568359375 193 516.595703125 250 c 0
 525.624023438 307 516.2265625 355 488.403320312 394 c 0
 460.580078125 433 419.58984375 452 364.58984375 452 c 0
374.092773438 512 m 0
 445.092773438 512 499.1328125 487 537.055664062 436 c 0
 574.977539062 385 588.158203125 323 576.595703125 250 c 0
 565.034179688 177 532.213867188 115 478.13671875 64 c 0
 424.05859375 13 362.099609375 -12 291.099609375 -12 c 0
 220.099609375 -12 165.05859375 13 127.13671875 64 c 0
 89.2138671875 115 76.0341796875 177 87.595703125 250 c 0
 99.158203125 323 131.977539062 385 186.055664062 436 c 0
 240.1328125 487 303.092773438 512 374.092773438 512 c 0
EndSplineSet
EndChar

StartChar: divide
Encoding: 247 247 180
GlifName: divide
Width: 625
Flags: W
HStem: 109 80<304.481 368.875> 267 61<174.95 545.289> 406 80<351.363 415.916>
CounterMasks: 1 e0
LayerCount: 2
Fore
SplineSet
389.974609375 486 m 0
 400.974609375 486 409.5 483 416.232421875 475 c 0
 422.965820312 467 425.381835938 457 423.639648438 446 c 0
 421.897460938 435 416.313476562 425 407.045898438 417 c 0
 397.779296875 409 388.303710938 406 377.303710938 406 c 0
 366.303710938 406 357.779296875 409 351.045898438 417 c 0
 344.313476562 425 341.897460938 435 343.639648438 446 c 0
 345.381835938 457 350.965820312 467 360.232421875 475 c 0
 369.5 483 378.974609375 486 389.974609375 486 c 0
174.950195312 328 m 1
 554.950195312 328 l 1
 545.2890625 267 l 1
 165.2890625 267 l 1
 174.950195312 328 l 1
342.934570312 189 m 0
 353.934570312 189 362.459960938 186 369.192382812 178 c 0
 375.92578125 170 378.341796875 160 376.599609375 149 c 0
 374.857421875 138 369.431640625 129 360.1640625 121 c 0
 350.897460938 113 341.263671875 109 330.263671875 109 c 0
 319.263671875 109 310.897460938 113 304.1640625 121 c 0
 297.431640625 129 294.857421875 138 296.599609375 149 c 0
 298.341796875 160 303.92578125 170 313.192382812 178 c 0
 322.459960938 186 331.934570312 189 342.934570312 189 c 0
EndSplineSet
EndChar

StartChar: oslash
Encoding: 248 248 181
GlifName: oslash
Width: 584
Flags: W
HStem: -12 60<215.041 391.737> 452 60<272.875 449.651>
LayerCount: 2
Fore
SplineSet
364.58984375 452 m 0
 309.58984375 452 261.580078125 433 221.403320312 394 c 0
 181.2265625 355 156.624023438 307 147.595703125 250 c 0
 138.568359375 193 147.965820312 145 175.7890625 106 c 0
 203.611328125 67 245.602539062 48 300.602539062 48 c 0
 355.602539062 48 402.611328125 67 442.7890625 106 c 0
 482.965820312 145 507.568359375 193 516.595703125 250 c 0
 525.624023438 307 516.2265625 355 488.403320312 394 c 0
 460.580078125 433 419.58984375 452 364.58984375 452 c 0
374.092773438 512 m 0
 445.092773438 512 499.1328125 487 537.055664062 436 c 0
 574.977539062 385 588.158203125 323 576.595703125 250 c 0
 565.034179688 177 532.213867188 115 478.13671875 64 c 0
 424.05859375 13 362.099609375 -12 291.099609375 -12 c 0
 220.099609375 -12 165.05859375 13 127.13671875 64 c 0
 89.2138671875 115 76.0341796875 177 87.595703125 250 c 0
 99.158203125 323 131.977539062 385 186.055664062 436 c 0
 240.1328125 487 303.092773438 512 374.092773438 512 c 0
554.092773438 512 m 1
 594.07421875 474 l 1
 110.099609375 -12 l 1
 70.2763671875 27 l 1
 554.092773438 512 l 1
EndSplineSet
EndChar

StartChar: ugrave
Encoding: 249 249 182
GlifName: ugrave
Width: 544
Flags: W
HStem: -12 60<209.023 358.457> 480 20G<139.025 202.192 498.025 561.192> 681 20G<235.027 338.34>
VStem: 142.192 60<440 500> 501.192 60<440 500>
LayerCount: 2
Fore
SplineSet
338.913085938 574 m 1
 235.02734375 701 l 1
 324.02734375 701 l 1
 414.913085938 574 l 1
 338.913085938 574 l 1
142.192382812 500 m 1
 202.192382812 500 l 1
 159.745117188 232 l 2
 150.716796875 175 158.748046875 131 181.521484375 98 c 0
 204.294921875 65 237.602539062 48 280.602539062 48 c 0
 323.602539062 48 361.294921875 65 394.521484375 98 c 0
 427.748046875 131 449.716796875 175 458.745117188 232 c 2
 501.192382812 500 l 1
 561.192382812 500 l 1
 518.745117188 232 l 2
 507.18359375 159 477.6796875 99 430.7109375 55 c 0
 383.7421875 11 331.099609375 -12 271.099609375 -12 c 0
 211.099609375 -12 164.7421875 11 131.7109375 55 c 0
 98.6796875 99 88.18359375 159 99.7451171875 232 c 2
 142.192382812 500 l 1
EndSplineSet
EndChar

StartChar: uacute
Encoding: 250 250 183
GlifName: uacute
Width: 544
Flags: W
HStem: -12 60<209.023 358.457> 480 20G<139.025 202.192 498.025 561.192> 680 20G<441.4 550.869>
VStem: 142.192 60<440 500> 501.192 60<440 500>
LayerCount: 2
Fore
SplineSet
332.913085938 574 m 1
 461.869140625 700 l 1
 550.869140625 700 l 1
 408.913085938 574 l 1
 332.913085938 574 l 1
142.192382812 500 m 1
 202.192382812 500 l 1
 159.745117188 232 l 2
 150.716796875 175 158.748046875 131 181.521484375 98 c 0
 204.294921875 65 237.602539062 48 280.602539062 48 c 0
 323.602539062 48 361.294921875 65 394.521484375 98 c 0
 427.748046875 131 449.716796875 175 458.745117188 232 c 2
 501.192382812 500 l 1
 561.192382812 500 l 1
 518.745117188 232 l 2
 507.18359375 159 477.6796875 99 430.7109375 55 c 0
 383.7421875 11 331.099609375 -12 271.099609375 -12 c 0
 211.099609375 -12 164.7421875 11 131.7109375 55 c 0
 98.6796875 99 88.18359375 159 99.7451171875 232 c 2
 142.192382812 500 l 1
EndSplineSet
EndChar

StartChar: ucircumflex
Encoding: 251 251 184
GlifName: ucircumflex
Width: 544
Flags: W
HStem: -12 60<209.023 358.457> 480 20G<139.025 202.192 498.025 561.192> 680 20G<320.654 440.749>
VStem: 142.192 60<440 500> 501.192 60<440 500>
LayerCount: 2
Fore
SplineSet
202.913085938 574 m 1
 342.869140625 700 l 1
 424.869140625 700 l 1
 524.913085938 574 l 1
 442.913085938 574 l 1
 376.583007812 654 l 5
 284.913085938 574 l 1
 202.913085938 574 l 1
142.192382812 500 m 1
 202.192382812 500 l 1
 159.745117188 232 l 2
 150.716796875 175 158.748046875 131 181.521484375 98 c 0
 204.294921875 65 237.602539062 48 280.602539062 48 c 0
 323.602539062 48 361.294921875 65 394.521484375 98 c 0
 427.748046875 131 449.716796875 175 458.745117188 232 c 2
 501.192382812 500 l 1
 561.192382812 500 l 1
 518.745117188 232 l 2
 507.18359375 159 477.6796875 99 430.7109375 55 c 0
 383.7421875 11 331.099609375 -12 271.099609375 -12 c 0
 211.099609375 -12 164.7421875 11 131.7109375 55 c 0
 98.6796875 99 88.18359375 159 99.7451171875 232 c 2
 142.192382812 500 l 1
EndSplineSet
EndChar

StartChar: udieresis
Encoding: 252 252 185
GlifName: udieresis
Width: 544
Flags: W
HStem: -12 60<209.023 358.457> 480 20G<139.025 202.192 498.025 561.192> 630 80<228.999 294.393 470.999 535.394>
VStem: 142.192 60<440 500> 501.192 60<440 500>
LayerCount: 2
Fore
SplineSet
267.453125 710 m 4
 278.453125 710 287.977539062 707 294.7109375 699 c 4
 301.443359375 691 302.859375 681 301.1171875 670 c 4
 299.375 659 294.950195312 650 285.682617188 642 c 4
 276.416015625 634 265.782226562 630 254.782226562 630 c 4
 243.782226562 630 235.416015625 634 228.682617188 642 c 4
 221.950195312 650 219.375 659 221.1171875 670 c 4
 222.859375 681 228.443359375 691 237.7109375 699 c 4
 246.977539062 707 256.453125 710 267.453125 710 c 4
509.453125 710 m 4
 520.453125 710 528.977539062 707 535.7109375 699 c 4
 542.443359375 691 544.859375 681 543.1171875 670 c 4
 541.375 659 535.950195312 650 526.682617188 642 c 4
 517.416015625 634 507.782226562 630 496.782226562 630 c 4
 485.782226562 630 477.416015625 634 470.682617188 642 c 4
 463.950195312 650 461.375 659 463.1171875 670 c 4
 464.859375 681 470.443359375 691 479.7109375 699 c 4
 488.977539062 707 498.453125 710 509.453125 710 c 4
142.192382812 500 m 1
 202.192382812 500 l 1
 159.745117188 232 l 2
 150.716796875 175 158.748046875 131 181.521484375 98 c 0
 204.294921875 65 237.602539062 48 280.602539062 48 c 0
 323.602539062 48 361.294921875 65 394.521484375 98 c 0
 427.748046875 131 449.716796875 175 458.745117188 232 c 2
 501.192382812 500 l 1
 561.192382812 500 l 1
 518.745117188 232 l 2
 507.18359375 159 477.6796875 99 430.7109375 55 c 0
 383.7421875 11 331.099609375 -12 271.099609375 -12 c 0
 211.099609375 -12 164.7421875 11 131.7109375 55 c 0
 98.6796875 99 88.18359375 159 99.7451171875 232 c 2
 142.192382812 500 l 1
EndSplineSet
EndChar

StartChar: yacute
Encoding: 253 253 186
GlifName: yacute
Width: 511
Flags: W
HStem: -212 59<-1.23242 112.745> 480 20G<92.1924 162.413 501.541 578.192> 680 20G<398.4 507.869>
VStem: 92.1924 65<435 500>
LayerCount: 2
Fore
SplineSet
289.913085938 574 m 1
 418.869140625 700 l 1
 507.869140625 700 l 1
 365.913085938 574 l 1
 289.913085938 574 l 1
92.1923828125 500 m 1
 157.192382812 500 l 1
 267.353515625 78 l 1
 513.192382812 500 l 1
 578.192382812 500 l 1
 241.329101562 -80 l 2
 217.994140625 -120 186.92578125 -152 146.124023438 -176 c 0
 105.323242188 -200 63.4228515625 -212 19.4228515625 -212 c 2
 -10.5771484375 -212 l 1
 -1.232421875 -153 l 1
 28.767578125 -153 l 2
 60.767578125 -153 92.1923828125 -144 120.884765625 -127 c 0
 149.578125 -110 172.220703125 -87 189.971679688 -57 c 2
 223 0 l 1
 92.1923828125 500 l 1
EndSplineSet
EndChar

StartChar: thorn
Encoding: 254 254 187
GlifName: thorn
Width: 614
Flags: W
HStem: -200 21G<45.3232 107.491> -12 60<239.5 413.987> 452 60<296.687 471.821> 680 20G<184.701 246.869>
VStem: 45.3232 59<-200 -141> 187.869 59<641 700>
LayerCount: 2
Fore
SplineSet
104.323242188 -200 m 1
 45.3232421875 -200 l 1
 187.869140625 700 l 1
 246.869140625 700 l 1
 201.729492188 415 l 1
 207.997070312 423 214.263671875 431 221.372070312 438 c 0
 268.1328125 487 326.092773438 512 396.092773438 512 c 0
 467.092773438 512 522.1328125 487 560.055664062 436 c 0
 597.977539062 385 611.31640625 324 599.595703125 250 c 0
 587.875976562 176 555.213867188 115 501.13671875 64 c 0
 447.05859375 13 384.099609375 -12 313.099609375 -12 c 0
 243.099609375 -12 193.05859375 13 161.8203125 62 c 0
 156.928710938 69 153.1953125 77 149.462890625 85 c 1
 104.323242188 -200 l 1
386.58984375 452 m 0
 332.58984375 452 285.580078125 433 247.403320312 394 c 0
 209.2265625 355 184.782226562 308 175.595703125 250 c 0
 166.41015625 192 175.965820312 145 201.7890625 106 c 0
 227.611328125 67 268.602539062 48 322.602539062 48 c 0
 377.602539062 48 424.611328125 67 464.7890625 106 c 0
 504.965820312 145 530.568359375 193 539.595703125 250 c 0
 548.624023438 307 538.2265625 355 510.403320312 394 c 0
 482.580078125 433 441.58984375 452 386.58984375 452 c 0
EndSplineSet
EndChar

StartChar: ydieresis
Encoding: 255 255 188
GlifName: ydieresis
Width: 511
Flags: W
HStem: -212 59<-1.23242 112.745> 480 20G<92.1924 162.413 501.541 578.192> 630 80<206.999 272.393 457.146 513.394>
VStem: 92.1924 65<435 500>
LayerCount: 2
Fore
SplineSet
245.453125 710 m 4
 256.453125 710 265.977539062 707 272.7109375 699 c 4
 279.443359375 691 280.859375 681 279.1171875 670 c 4
 277.375 659 272.950195312 650 263.682617188 642 c 4
 254.416015625 634 243.782226562 630 232.782226562 630 c 4
 221.782226562 630 213.416015625 634 206.682617188 642 c 4
 199.950195312 650 197.375 659 199.1171875 670 c 4
 200.859375 681 206.443359375 691 215.7109375 699 c 4
 224.977539062 707 234.453125 710 245.453125 710 c 4
487.453125 710 m 4
 498.453125 710 506.977539062 707 513.7109375 699 c 4
 520.443359375 691 522.859375 681 521.1171875 670 c 4
 519.375 659 513.950195312 650 504.682617188 642 c 4
 495.416015625 634 485.782226562 630 474.782226562 630 c 4
 463.782226562 630 454.416015625 634 447.682617188 642 c 4
 440.950195312 650 439.375 659 441.1171875 670 c 4
 442.859375 681 447.443359375 691 456.7109375 699 c 4
 465.977539062 707 476.453125 710 487.453125 710 c 4
92.1923828125 500 m 1
 157.192382812 500 l 1
 267.353515625 78 l 1
 513.192382812 500 l 1
 578.192382812 500 l 1
 241.329101562 -80 l 2
 217.994140625 -120 186.92578125 -152 146.124023438 -176 c 0
 105.323242188 -200 63.4228515625 -212 19.4228515625 -212 c 2
 -10.5771484375 -212 l 1
 -1.232421875 -153 l 1
 28.767578125 -153 l 2
 60.767578125 -153 92.1923828125 -144 120.884765625 -127 c 0
 149.578125 -110 172.220703125 -87 189.971679688 -57 c 2
 223 0 l 1
 92.1923828125 500 l 1
EndSplineSet
EndChar

StartChar: Amacron
Encoding: 256 256 189
GlifName: A_macron
Width: 607
Flags: W
HStem: 0 21G<13 88.3872 525.948 595> 205 60<215.972 475.972> 680 20G<374.244 449.159> 750 60<284.291 574.788>
VStem: 530 65<0 65>
LayerCount: 2
Fore
SplineSet
274.788085938 750 m 1
 284.291015625 810 l 1
 584.291015625 810 l 1
 574.788085938 750 l 1
 274.788085938 750 l 1
215.971679688 265 m 1
 475.971679688 265 l 1
 402.040039062 619 l 1
 215.971679688 265 l 1
184.46875 205 m 1
 78 0 l 1
 13 0 l 1
 384.869140625 700 l 1
 444.869140625 700 l 1
 595 0 l 1
 530 0 l 1
 488.46875 205 l 1
 184.46875 205 l 1
EndSplineSet
EndChar

StartChar: amacron
Encoding: 257 257 190
GlifName: amacron
Width: 608
Flags: W
HStem: -12 60<215.041 389.912> 0 21G<471 534.168> 452 60<272.875 447.192> 480 20G<547.025 610.192> 580 60<250.366 540.863>
VStem: 471 60<0 60> 550.192 60<440 500>
LayerCount: 2
Fore
SplineSet
240.86328125 580 m 1x0e
 250.366210938 640 l 1
 550.366210938 640 l 1
 540.86328125 580 l 1
 240.86328125 580 l 1x0e
550.192382812 500 m 1x1e
 610.192382812 500 l 1
 531 0 l 1
 471 0 l 1x5e
 484.462890625 85 l 1
 478.1953125 77 471.928710938 69 464.8203125 62 c 0
 418.05859375 13 361.099609375 -12 291.099609375 -12 c 0
 220.099609375 -12 165.05859375 13 127.13671875 64 c 0
 89.2138671875 115 76.0341796875 177 87.595703125 250 c 0
 99.158203125 323 131.977539062 385 186.055664062 436 c 0
 240.1328125 487 303.092773438 512 374.092773438 512 c 0xae
 444.092773438 512 493.1328125 487 524.372070312 438 c 0
 529.263671875 431 532.997070312 423 536.729492188 415 c 1
 550.192382812 500 l 1x1e
364.58984375 452 m 0xae
 309.58984375 452 261.580078125 433 221.403320312 394 c 0
 181.2265625 355 156.624023438 307 147.595703125 250 c 0
 138.568359375 193 147.965820312 145 175.7890625 106 c 0
 203.611328125 67 245.602539062 48 300.602539062 48 c 0
 354.602539062 48 400.611328125 67 438.7890625 106 c 0
 476.965820312 145 501.41015625 192 510.595703125 250 c 0
 519.782226562 308 510.2265625 355 484.403320312 394 c 0
 458.580078125 433 418.58984375 452 364.58984375 452 c 0xae
EndSplineSet
EndChar

StartChar: Abreve
Encoding: 258 258 191
GlifName: A_breve
Width: 607
Flags: W
HStem: 0 21G<13 88.3872 525.948 595> 205 60<215.972 475.972> 680 20G<374.244 449.159> 739 60<372.739 498.788>
VStem: 295.795 60<819.612 870> 530 65<0 65>
LayerCount: 2
Fore
SplineSet
295.794921875 870 m 1
 355.794921875 870 l 1
 352.46875 849 357.775390625 832 372.716796875 819 c 0
 387.658203125 806 406.548828125 799 431.548828125 799 c 0
 456.548828125 799 477.658203125 806 496.716796875 819 c 0
 515.775390625 832 526.46875 849 529.794921875 870 c 1
 589.794921875 870 l 1
 584.092773438 834 565.182617188 803 533.064453125 777 c 0
 500.946289062 751 464.045898438 739 422.045898438 739 c 0
 380.045898438 739 346.946289062 751 323.064453125 777 c 0
 299.182617188 803 290.092773438 834 295.794921875 870 c 1
215.971679688 265 m 1
 475.971679688 265 l 1
 402.040039062 619 l 1
 215.971679688 265 l 1
184.46875 205 m 1
 78 0 l 1
 13 0 l 1
 384.869140625 700 l 1
 444.869140625 700 l 1
 595 0 l 1
 530 0 l 1
 488.46875 205 l 1
 184.46875 205 l 1
EndSplineSet
EndChar

